<?xml version="1.0" encoding="utf-8"?>
<!-- Generator: Adobe Illustrator 16.0.0, SVG Export Plug-In . SVG Version: 6.00 Build 0)  -->
<!DOCTYPE svg PUBLIC "-//W3C//DTD SVG 1.1//EN" "http://www.w3.org/Graphics/SVG/1.1/DTD/svg11.dtd">
<svg version="1.1" id="Layer_1" xmlns="http://www.w3.org/2000/svg" xmlns:xlink="http://www.w3.org/1999/xlink" x="0px" y="0px"
	 width="166.617px" height="98.676px" viewBox="0 0 166.617 98.676" enable-background="new 0 0 166.617 98.676"
	 xml:space="preserve">
<g>
	<path fill-rule="evenodd" clip-rule="evenodd" fill="#282828" d="M49.101,48.669c0.064-0.211,0.133-0.42,0.195-0.633
		c0.569-1.932,2.18-3.267,4.302-3.295c4.72-0.064,9.442-0.023,14.163-0.023c0.084,0,0.168,0.038,0.292,0.067
		c0.138,1.958,0.273,3.909,0.41,5.862c0.119,1.709,0.19,3.424,0.369,5.127c0.239,2.258,2.142,3.889,4.325,3.807
		c2.273-0.088,4.026-1.885,4.159-4.164c0.196-3.4,0.454-6.796,0.672-10.195c0.026-0.412,0.2-0.518,0.585-0.518
		c5.366,0.011,10.733-0.001,16.1,0.027c0.314,0.002,0.787,0.236,0.895,0.488c0.106,0.246-0.064,0.741-0.278,0.974
		c-5.45,5.909-10.926,11.796-16.381,17.7c-0.376,0.406-0.79,0.443-1.266,0.394c-2.301-0.241-4.603-0.483-6.903-0.724
		c-4.116-0.429-8.233-0.854-12.35-1.281c-2.701-0.28-5.402-0.543-8.1-0.854c-0.409-0.047-0.793-0.305-1.189-0.466
		C49.101,56.865,49.101,52.767,49.101,48.669z"/>
	<path fill-rule="evenodd" clip-rule="evenodd" fill="#282828" d="M117.517,67.779c-0.29,0.551-0.778,0.576-1.317,0.518
		c-3.005-0.332-6.012-0.654-9.02-0.98c-4.354-0.473-8.71-0.946-13.066-1.418c-1.349-0.146-2.698-0.283-4.047-0.426
		c-0.923-0.099-1.115-0.578-0.522-1.359c2.174-2.875,4.355-5.743,6.536-8.613c2.57-3.385,5.149-6.763,7.704-10.158
		c0.346-0.458,0.729-0.645,1.295-0.64c2.492,0.021,4.984,0.013,7.478,0.012c2.546-0.001,4.191,1.259,4.848,3.716
		c0.022,0.084,0.074,0.16,0.112,0.24C117.517,55.039,117.517,61.408,117.517,67.779z"/>
	<path fill-rule="evenodd" clip-rule="evenodd" fill="#282828" d="M74.088,15.128c0.557,0.134,1.118,0.251,1.67,0.406
		c4.17,1.181,7.115,5.008,7.141,9.268c0.026,4.48-2.761,8.313-6.999,9.563c-0.528,0.156-0.685,0.418-0.717,0.92
		c-0.222,3.442-0.461,6.883-0.698,10.323c-0.221,3.218-0.448,6.437-0.665,9.655c-0.034,0.504-0.282,0.821-0.773,0.822
		c-0.545,0.001-0.754-0.391-0.789-0.893c-0.143-2.131-0.287-4.263-0.431-6.393c-0.314-4.596-0.633-9.189-0.932-13.785
		c-0.027-0.416-0.254-0.497-0.57-0.596c-3.36-1.048-5.629-3.229-6.7-6.591c-1.804-5.653,2.069-11.751,7.951-12.564
		c0.172-0.023,0.338-0.089,0.509-0.136C72.751,15.128,73.42,15.128,74.088,15.128z M69.356,18.291
		c-1.347,0.019-3.166,1.746-3.471,3.297c-0.214,1.087,0.554,1.844,1.633,1.609c1.403-0.304,2.961-1.973,3.168-3.392
		C70.815,18.926,70.247,18.279,69.356,18.291z"/>
	<path fill-rule="evenodd" clip-rule="evenodd" fill="#282828" d="M117.517,79.537c-0.067,0.23-0.14,0.458-0.202,0.689
		c-0.514,1.894-2.331,3.281-4.374,3.3c-2.026,0.019-4.053,0.003-6.079,0.003c-9.795,0-19.592,0-29.388,0
		c-0.178,0-0.372,0.047-0.531-0.008c-0.314-0.11-0.753-0.203-0.874-0.438c-0.12-0.235-0.011-0.708,0.167-0.954
		c2.15-2.977,4.339-5.926,6.495-8.897c0.324-0.445,0.699-0.556,1.205-0.493c2.339,0.292,4.68,0.572,7.02,0.857
		c3.864,0.471,7.729,0.941,11.592,1.41c4.196,0.511,8.392,1.018,12.586,1.527c0.464,0.057,0.94,0.071,1.385,0.199
		c0.354,0.104,0.667,0.35,0.999,0.534C117.517,78.023,117.517,78.781,117.517,79.537z"/>
	<path fill-rule="evenodd" clip-rule="evenodd" fill="#282828" d="M49.101,69.115c0.321-0.441,0.727-0.527,1.275-0.457
		c4.542,0.576,9.09,1.117,13.635,1.669c2.162,0.263,4.326,0.517,6.484,0.81c0.267,0.035,0.643,0.25,0.713,0.465
		c0.083,0.254-0.014,0.685-0.198,0.891c-3.161,3.561-6.343,7.103-9.548,10.625c-0.217,0.238-0.65,0.391-0.986,0.396
		c-2.225,0.034-4.45,0.023-6.675,0.016c-2.251-0.009-3.987-1.374-4.565-3.565c-0.026-0.102-0.09-0.195-0.135-0.291
		C49.101,76.152,49.101,72.632,49.101,69.115z"/>
</g>
</svg>
