<?xml version="1.0" encoding="utf-8"?>
<!-- Generator: Adobe Illustrator 16.0.0, SVG Export Plug-In . SVG Version: 6.00 Build 0)  -->
<!DOCTYPE svg PUBLIC "-//W3C//DTD SVG 1.1//EN" "http://www.w3.org/Graphics/SVG/1.1/DTD/svg11.dtd">
<svg version="1.1" id="Layer_1" xmlns="http://www.w3.org/2000/svg" xmlns:xlink="http://www.w3.org/1999/xlink" x="0px" y="0px"
	 width="3403px" height="446.825px" viewBox="0 0 3403 446.825" enable-background="new 0 0 3403 446.825" xml:space="preserve">
<g>
	<g>
		<path fill="#010101" d="M1534.009,155.595c-2.451-4.49-6.43-7.248-11.943-8.271c-1.227-0.201-2.553-0.307-3.982-0.307
			c-4.084,0-7.863,1.176-11.332,3.68c-4.084,2.861-6.635,6.635-7.656,11.281c-0.615,1.889-0.924,3.623-0.924,5.258
			c0,3.471,1.021,6.432,3.066,8.883c2.652,3.676,6.43,5.924,11.332,6.688c1.43,0.254,2.756,0.354,3.982,0.354
			c3.469,0,6.74-0.969,9.801-2.752c4.492-2.453,7.553-6.535,9.188-12.254c0.408-1.426,0.613-2.963,0.613-4.646
			C1536.153,160.906,1535.44,158.253,1534.009,155.595z"/>
		<path fill="#010101" d="M2366.505,199.65c-0.613-3.215-2.348-5.873-5.211-7.912c-2.855-2.037-5.916-2.754-9.188-2.143
			c-3.264,0.613-5.971,2.348-7.961,5.154c0,0.256-0.154,0.563-0.309,0.973l-0.305,0.303v0.613c-0.408,0.41-0.768,0.818-0.918,1.229
			c-0.406,1.016-0.971,1.939-1.684,2.75c-0.768,0.818-1.48,2.043-2.299,3.68c-0.816,1.426-1.734,2.912-2.756,4.443
			c-1.021,1.529-2.299,3.215-3.674,5.049c-1.227,1.791-2.658,3.777-4.293,5.822c-1.631,2.045-3.471,4.287-5.514,6.74
			c-1.834,2.039-3.828,4.285-5.973,6.686c-2.143,2.502-4.641,4.9-7.502,7.402c-5.105,5.105-10.924,10.209-17.459,15.314
			c-6.738,5.105-13.988,10.055-21.744,14.957c-4.084,2.297-8.32,4.645-12.713,7.096c-4.441,2.449-8.934,4.697-13.629,6.686
			c-4.9,2.094-9.801,4.084-14.701,5.975c-4.9,1.988-10.109,3.828-15.623,5.717c-5.359,1.635-10.77,3.217-16.387,4.695
			c-5.613,1.586-11.332,2.961-17,4.188c-5.916,1.426-11.945,2.652-18.07,3.676c-6.123,1.02-12.404,1.938-18.68,2.756
			c-12.459,1.637-25.32,2.758-38.596,3.371c-13.271,0.607-26.697,0.867-40.275,0.713c-13.58-0.051-27.314-0.613-41.197-1.633
			c-27.563-2.043-55.539-5.412-83.92-10.109c-14.094-2.502-28.078-5.104-41.967-7.965c-4.746-1.018-9.49-2.039-14.393-3.063
			c-3.883,10.008-7.811,15.006-11.641,15.006c-3.469,0-6.43-4.59-8.883-13.779c-3.471-12.049-6.225-27.617-8.27-46.555
			c-1.426-15.521-0.713-34.305,2.143-56.359v-4.033c3.066-4.645,5.924-9.85,8.58-15.568c8.574-16.541,14.393-33.281,17.459-50.229
			c0.816-3.273,1.375-6.432,1.834-9.498c0.154-2.855,0.309-5.617,0.309-8.32v-2.402c-0.205-8.625-2.453-14.393-6.74-17.459
			c-1.834-1.426-3.982-2.143-6.432-2.143c-15.926,0-28.074,19.811-36.445,59.422c-2.861,14.498-5.105,30.529-6.74,48.09
			c-0.818,6.938-1.48,13.781-1.84,20.467c-0.203,5.773-0.457,10.16-0.613,13.17v16.592c-3.469,19.502-8.469,36.91-15.006,52.225
			c-7.965,18.686-13.07,27.973-15.313,27.973c-3.881,0-6.078-6.486-6.586-19.602c-0.514-13.018-1.072-26.697-1.686-41.045
			c0-6.07,0.205-13.424,0.613-22.004v-1.834l0.303-2.145c0-1.889,0.105-3.469,0.311-4.9v-2.502c0-2.807-0.205-4.746-0.613-5.768
			c-0.816-3.271-4.188-5.613-10.109-7.043c-2.449-0.408-4.797-0.613-7.045-0.613c-2.652,0-4.9,0.508-6.74,1.48
			c-11.021-11.182-22.563-16.797-34.605-16.797h-0.311c-12.656,0-22.357,5.77-29.094,17.41c-3.369,5.816-5.717,12.502-6.994,19.961
			c-0.055,0.047-0.055,0.047-0.055,0.098c-0.662,1.637-1.275,3.271-1.834,4.797c-2.453,5.924-5.006,11.027-7.656,15.314
			c-7.148,11.844-14.604,17.717-22.359,17.717c-2.861,0-5.617-0.359-8.27-1.225c3.469-12.254,5.203-23.023,5.203-32.211
			c0-11.689-2.039-20.982-6.127-27.977c-3.674-6.127-8.061-9.189-13.166-9.189c-4.291,0-7.762,1.939-10.414,5.824
			c-3.27,4.486-4.9,10.563-4.9,18.115c0,10.063,1.121,18.945,3.365,26.701c3.066,10.063,7.658,17.613,13.785,22.719l0.916,0.662
			c-1.834,4.695-3.773,9.291-5.816,13.785c-2.652,5.717-5.41,10.617-8.271,14.699c-6.332-1.02-11.436-6.635-15.314-16.844
			c-1.629-3.674-2.961-8.016-3.977-12.916c-0.818-3.676-1.432-7.25-1.842-10.721c-2.043-5.512-3.064-14.246-3.064-26.084v-9.547
			c0.203-18.635,1.127-33.436,2.756-44.514c0.205-1.637,0.309-2.963,0.309-3.982c0-3.266-0.611-5.975-1.838-8.018
			c-4.697-8.982-9.287-14.188-13.785-15.619c-0.813-0.203-1.529-0.303-2.143-0.303c-4.697,0-8.166,5.408-10.416,16.23
			c-2.445,11.436-3.674,28.996-3.674,52.684v9.443c0.051,1.529,0.051,3.059,0.105,4.545c0,0.049,0,0.049,0,0.1
			c-2.756,18.275-6.176,32.365-10.209,42.266c-1.635,4.086-6.127,6.641-13.48,7.656c-3.674-0.199-6.227-1.475-7.656-3.826
			c-1.426-2.346-2.449-5.516-3.063-9.492c-0.611-4.035-0.916-6.178-0.916-6.588l-0.922-9.799l-1.227-9.801
			c-0.814-7.404-1.836-13.785-3.061-19.299c-0.613-2.652-1.326-5.006-2.145-7.043c-0.818-2.658-1.734-5.105-2.758-7.404
			c-2.65-5.254-6.125-8.523-10.412-9.801c-1.023-0.359-2.25-0.611-3.674-0.611c-1.84,0-3.879,0.611-6.127,1.889
			c-1.84,1.225-3.471,2.652-4.902,4.236c-3.674,4.139-5.514,8.834-5.514,14.088v2.758c0,0.613,0.205,1.381,0.613,2.197
			c0.764,1.428,1.482,3.211,2.145,5.355c-3.779,25.273-7.707,46.102-11.945,62.588c-5.309,21.287-9.904,31.904-13.783,31.904
			c-3.266,0-5.309-6.789-6.127-20.215c-0.205-4.49-0.408-11.334-0.613-20.574c2.656-41.811,3.779-69.578,3.369-83.256
			c-0.408-18.586-5-29.203-13.783-31.855c-4.082-1.275-8.674,0.613-13.779,5.514c-1.84,2.043-3.982,4.49-6.436,7.297
			c-0.613,0.869-1.326,2.096-2.143,3.73c-0.818,0.818-1.631,1.785-2.447,3.061c-7.15,11.027-13.172,26.49-18.072,46.352
			c-4.9,19.961-8.27,33.281-10.109,39.973l-0.918-8.883c-1.84-15.316-4.082-27.311-6.74-36.096
			c-0.816-2.242-1.531-4.336-2.143-6.119c-1.021-2.504-2.145-4.598-3.371-6.432c-3.061-4.697-6.635-7.1-10.719-7.1
			c-2.656,0-5.514,1.072-8.574,3.115c-2.453,1.631-4.596,3.773-6.436,6.432c-0.408,0.611-0.613,1.43-0.613,2.449
			c0,0.563,0.205,1.33,0.613,2.143c0.768,1.486,1.535,3.221,2.25,5.158v0.051l-0.105,0.613c0,0.818-0.1,1.736-0.305,2.756
			c-0.205,1.223-0.408,2.658-0.613,4.289c-0.818,3.883-1.531,7.961-2.143,12.248c-2.045,12.053-4.084,23.076-6.127,33.031
			c-6.736,34.916-12.25,52.375-16.541,52.375c-9.188,0-14.498-19.604-15.924-58.756c-0.408-6.789-0.613-13.988-0.613-21.744
			c0-5.105,0.1-10.414,0.305-15.93c0.205-4.695,0.41-9.395,0.613-14.092c0.203-1.631,0.305-3.266,0.305-4.896
			c0-1.225,0.104-2.248,0.309-3.115c0-0.613-0.105-1.277-0.309-2.094c-0.609-1.432-1.736-2.348-3.365-2.758
			c-0.613-0.203-1.432-0.307-2.453-0.307h-2.145l-3.674,0.617l-3.369,0.918c-8.779,1.426-15.928,2.346-21.441,2.756
			c-2.242,0.203-4.287,0.254-6.127,0.254c-2.652,0-5.104-0.148-7.348-0.613c-3.68-0.563-6.74-2.145-9.188-4.541
			c-1.637-2.043-4.033-4.9-7.199-8.574c-3.166-3.729-4.752-2.094-4.752,4.744c0,6.84,4.393,11.996,13.172,15.467
			c0.205,0.154,0.459,0.307,0.719,0.406c-3.475,24.402-9.139,45.744-16.951,64.07c-7.961,18.686-13.064,27.973-15.314,27.973
			c-3.877,0-6.076-6.486-6.584-19.602c-0.51-13.018-1.072-26.697-1.686-41.045c0-6.07,0.205-13.424,0.613-22.004v-1.834l0.305-2.145
			c0-1.889,0.104-3.469,0.309-4.9v-2.502c0-2.807-0.205-4.746-0.613-5.768c-0.818-3.271-4.188-5.613-10.109-7.043
			c-2.447-0.408-4.797-0.613-7.045-0.613c-2.652,0-4.9,0.508-6.734,1.48c-11.027-11.182-22.564-16.797-34.613-16.797h-0.305
			c-12.662,0-22.361,5.77-29.098,17.41c-1.48,2.551-2.756,5.203-3.777,8.064c-0.156,0.051-0.359,0.15-0.51,0.256
			c-1.227,1.021-1.943,2.246-2.148,3.623c-0.404,2.701-0.813,5.463-1.221,8.32c-0.613,3.625-1.332,7.352-2.145,11.027
			c-2.043,9.598-4.291,18.17-6.74,25.729c-7.557,21.645-16.541,32.463-26.955,32.463c-10.822,0-19.092-7.348-24.805-22.049
			c-2.045-5.514-3.779-11.846-5.211-18.988c-0.816-5.723-1.072-12.354-0.762-19.91c0.303-7.559,0.867-12.863,1.68-15.93
			c2.248-8.367,6.535-12.557,12.867-12.557h0.305c3.475,0,6.844,1.432,10.109,4.236c3.061,2.912,4.59,5.664,4.59,8.32
			c0,1.432-0.098,2.658-0.303,3.625v0.613c0,0.867,0.408,1.531,1.227,2.145c1.021,1.07,2.242,1.684,3.674,1.889h0.916
			c1.432,0,2.553-0.311,3.371-0.916c1.43-0.818,2.248-1.736,2.453-2.764c0.203-1.221,0.303-2.75,0.303-4.592
			c0-6.176-3.061-11.33-9.188-15.617c-6.535-4.287-14.904-6.484-25.115-6.484c-10.771,0-19.397,2.705-25.833,8.016
			c-5.868,4.695-9.646,10.922-11.227,18.678c-0.818,3.68-1.226,7.305-1.226,11.027c0,7.762,0.816,15.828,2.396,24.148
			c3.066,15.773,9.039,28.635,17.918,38.645c9.139,10.006,19.197,14.955,30.225,14.955c19.396,0,34.303-11.176,44.717-33.639
			c1.736-3.574,3.369-7.508,4.852-11.689c0.813,3.672,1.883,7.092,3.111,10.209c5.922,13.629,15.418,20.42,28.484,20.42
			c6.127,0,12.148-2.094,18.07-6.383c4.697-3.266,8.779-6.227,12.254-8.934c3.676,24.963,8.066,41.707,13.172,50.232
			c5.309,9.236,10.414,13.525,15.314,12.916c9.391,1.785,19.291-12.098,29.707-41.656c10.158-28.844,18.275-56.053,24.303-81.578
			c1.221,0.051,2.496,0.105,3.877,0.105c2.039,0,4.184-0.105,6.432-0.305c2.857-0.209,5.922-0.514,9.188-0.973
			c-0.613,4.289-1.326,9.957-2.145,16.846c-0.613,5.514-0.916,11.387-0.916,17.459c0,3.525,0.1,7.197,0.303,11.027
			c0.41,19.602,3.576,39.766,9.498,60.389c5.922,20.625,15.109,30.885,27.563,30.885c10.414,0,19.197-13.982,26.342-41.912
			c4.697-16.949,8.988-37.875,12.967-62.684c0.514,3.57,0.973,7.449,1.43,11.537c1.023,7.961,1.736,16.484,2.145,25.725
			c0.408,2.656,0.613,5.104,0.613,7.303c0,1.07,1.326,1.889,3.982,2.496c2.244,0.617,4.9,0.924,7.961,0.924h0.613
			c3.674,0,6.84-0.408,9.498-1.277c3.266-0.762,5.512-1.988,6.734-3.625v-0.309c0.205-0.199,0.408-0.508,0.613-0.967
			c2.248-7.91,5.563-19.756,9.955-35.529c4.393-15.674,9.342-31.086,14.855-46.197c5.514-13.07,8.371-19.602,8.576-19.602
			c0.611,0.408,1.121,1.936,1.529,4.541c0.205,0.869,0.309,1.889,0.309,3.115v2.145c0,5.713-0.613,13.066-1.838,22
			c-0.613,37.418-0.818,57.732-0.613,61.002c0.613,8.371,1.734,15.52,3.369,21.438c4.695,16.082,13.988,24.148,27.871,24.148
			c6.945,0,13.072-5.105,18.383-15.314c1.834-3.676,3.469-7.807,4.898-12.559c0.609-1.785,1.123-3.623,1.531-5.457
			c0.205-0.619,0.408-1.432,0.613-2.455l0.305-0.918l0.309-0.971c2.807-10.363,5.508-22.563,8.01-36.65l0.254,2.707l0.311,2.703
			c1.021,5.514,2.145,10.059,3.369,13.529c1.631,4.49,4.492,8.982,8.576,13.629c4.082,4.596,13.578,6.994,28.484,7.197
			c11.436-0.818,20.061-6.23,25.883-16.287c2.09-3.574,3.928-7.297,5.459-11.229c0.818,3.877,1.686,7.506,2.658,10.977
			c2.037,5.922,4.182,11.23,6.43,15.926c5.922,11.842,13.17,18.988,21.746,21.443c2.043,0.607,4.188,0.916,6.436,0.916
			c0.813,0,1.531-0.1,2.143-0.309c6.736-3.725,13.172-10.41,19.293-20.209c4.9-7.764,9.193-16.646,12.867-26.701
			c3.266,1.275,6.939,1.889,11.027,1.889c10.414,0,19.906-6.332,28.484-18.988c0.867-1.275,1.682-2.602,2.447-3.982
			c0.205,3.061,0.51,5.971,0.918,8.678c1.023,6.686,2.553,12.607,4.596,17.713c5.924,13.629,15.416,20.42,28.486,20.42
			c6.127,0,12.148-2.094,18.072-6.383c4.695-3.266,8.777-6.227,12.248-8.934c3.678,24.963,8.066,41.707,13.17,50.232
			c5.311,9.236,10.416,13.525,15.314,12.916c9.398,1.785,19.299-12.098,29.713-41.656c4.85-13.834,9.291-27.309,13.17-40.379
			c1.227,9.191,2.807,17.098,4.9,23.787c6.127,20.879,16.641,31.293,31.547,31.293c7.148,0,13.479-3.471,18.992-10.414
			c1.99-2.453,3.879-5.414,5.514-8.932c2.244,0.457,4.492,0.865,6.736,1.275c13.889,2.861,27.977,5.412,42.27,7.656
			c14.242,2.242,28.436,4.236,42.418,6.127c13.939,1.84,28.133,3.371,42.424,4.592c27.973,2.043,55.59,2.607,83.004,1.789
			c13.475-0.408,26.645-1.33,39.512-2.758c6.535-0.613,12.967-1.375,19.299-2.4c6.275-1.02,12.557-2.145,18.68-3.365
			c6.281-1.023,12.408-2.299,18.225-3.83c5.818-1.529,11.592-3.016,17.305-4.441c5.668-1.889,11.182-3.68,16.539-5.514
			c5.26-1.889,10.52-3.779,15.625-5.824c5.104-2.037,10.055-4.18,14.85-6.479c4.801-2.195,9.447-4.541,13.939-7.045
			c4.287-2.396,8.475-4.898,12.557-7.453c4.084-2.553,7.963-5.154,11.641-7.861c7.758-5.051,14.498-10.209,20.215-15.42
			c5.719-5.254,10.822-10.309,15.314-15.207c4.697-4.443,8.576-8.732,11.791-12.66c3.115-3.982,5.768-7.402,7.811-10.314
			c2.248-3.01,3.828-5.258,4.9-6.684c0-0.613,0.305-1.227,0.918-1.84l0.309-0.305C2366.351,206.031,2367.116,202.97,2366.505,199.65
			z M1860.21,122.826c0-1.023,0.1-1.941,0.305-2.758c0.203-1.277,0.457-2.504,0.916-3.68c0.613-2.652,1.127-5.254,1.531-7.658
			c2.248-5.916,4.596-9.49,7.049-10.768h0.305c0.203,0.869,0.303,2.145,0.303,4.033c0,2.248-0.1,4.801-0.303,7.658
			c-0.205,2.039-0.51,4.18-0.918,6.379c-0.408,1.686-0.768,3.117-0.922,4.287c-2.652,11.691-6.635,23.537-11.945,35.531
			C1857.144,143.039,1858.37,132.011,1860.21,122.826z M1196.782,246.207c-0.404,5.973-1.121,13.631-2.143,22.973l-0.305,1.275
			l-0.613,0.867c-0.205,1.277-0.51,2.145-0.916,2.758c-0.615,2.297-1.326,4.137-2.145,5.514c-2.453,4.545-5.414,6.789-8.885,6.789
			c-4.49,0-8.475-3.469-11.943-10.414c-1.432-2.502-2.656-5.258-3.68-8.27c-0.813-2.453-1.426-4.646-1.834-6.432
			c-0.205-5.105-0.309-10.309-0.309-15.674c0-2.398,0.203-5.359,0.613-8.834c0.611-4.336,1.43-8.166,2.451-11.637
			c2.857-9.594,6.736-14.445,11.641-14.445c4.084,0,8.061,1.482,11.945,4.287c2.652,2.094,5.717,5.055,9.188,8.934
			C1198.417,231.246,1197.396,238.705,1196.782,246.207z M1648.56,235.179c0,9.039-1.531,18.939-4.592,29.762
			c-4.188-4.289-7.199-10.414-8.984-18.381c-1.789-6.326-2.656-13.271-2.656-20.822c0-4.492,0.768-8.066,2.398-10.773
			c1.176-2.396,2.813-3.623,4.801-3.623c2.398,0,4.391,1.939,6.021,5.768c1.994,4.336,3.012,10.061,3.012,17.203V235.179z
			 M1754.229,246.207c-0.408,5.973-1.121,13.631-2.143,22.973l-0.305,1.275l-0.613,0.867c-0.205,1.277-0.514,2.145-0.918,2.758
			c-0.613,2.297-1.33,4.137-2.148,5.514c-2.447,4.545-5.408,6.789-8.879,6.789c-4.49,0-8.475-3.469-11.943-10.414
			c-1.43-2.502-2.658-5.258-3.68-8.27c-0.818-2.453-1.426-4.646-1.834-6.432c-0.205-5.105-0.311-10.309-0.311-15.674
			c0-2.398,0.205-5.359,0.615-8.834c0.613-4.336,1.43-8.166,2.453-11.637c2.855-9.594,6.734-14.445,11.635-14.445
			c4.088,0,8.066,1.482,11.943,4.287c2.658,2.094,5.719,5.055,9.193,8.934C1755.866,231.246,1754.843,238.705,1754.229,246.207z"/>
	</g>
</g>
</svg>
