<?xml version="1.0" encoding="utf-8"?>
<!-- Generator: Adobe Illustrator 16.0.0, SVG Export Plug-In . SVG Version: 6.00 Build 0)  -->
<!DOCTYPE svg PUBLIC "-//W3C//DTD SVG 1.1//EN" "http://www.w3.org/Graphics/SVG/1.1/DTD/svg11.dtd">
<svg version="1.1" id="Layer_1" xmlns="http://www.w3.org/2000/svg" xmlns:xlink="http://www.w3.org/1999/xlink" x="0px" y="0px"
	 width="841.89px" height="595.276px" viewBox="0 0 841.89 595.276" enable-background="new 0 0 841.89 595.276"
	 xml:space="preserve">
<polygon fill="#FFF85F" points="463.135,469.63 422.585,488.7 421.965,488.7 414.745,469.63 "/>
<polygon fill="#FFF85F" points="426.165,69.8 414.205,82.43 422.315,62.52 "/>
<polygon fill="#FADD53" points="422.315,62.52 414.206,82.43 414.375,59.92 "/>
<polygon fill="#FF7C2E" points="454.875,75.86 454.875,83.3 449.865,70.89 "/>
<polygon fill="#FD9534" points="449.865,70.891 437.925,75.931 426.165,69.8 "/>
<polygon fill="#FF7C2E" points="454.875,83.3 444.925,89.38 437.925,75.93 "/>
<polygon fill="#FADD53" points="444.925,89.38 426.025,89.4 437.925,75.93 "/>
<polygon fill="#FD9534" points="414.375,59.92 414.205,82.43 407.405,64.78 "/>
<polygon fill="#F4A934" points="414.205,82.431 405.565,104.471 406.025,94.59 407.405,64.781 "/>
<polygon fill="#F4A934" points="426.025,89.4 404.745,122.34 405.154,113.42 405.565,104.48 "/>
<polygon fill="#FFF85F" points="426.445,109.94 404.745,122.34 426.025,89.4 "/>
<polygon fill="#FFF85F" points="236.425,278.67 223.125,295.87 217.245,263.28 216.805,260.83 "/>
<polygon fill="#F7CB46" points="233.555,240.71 216.795,260.81 213.505,242.58 "/>
<polygon fill="#FCEB55" points="619.805,469.901 589.805,488.39 604.925,446.201 "/>
<polygon fill="#FD9534" points="604.985,445.96 604.805,446.06 561.095,437.6 594.395,411.081 "/>
<polygon fill="#FD9534" points="655.615,479.411 645.435,469.84 653.975,474.25 "/>
<polygon fill="#F6BF3E" points="655.615,479.411 650.185,488.161 645.435,469.84 "/>
<polygon fill="#FFF85F" points="650.185,488.161 619.914,469.809 645.435,469.84 "/>
<polygon fill="#FADD53" points="589.915,488.3 551.745,488.39 569.255,466.43 "/>
<polygon fill="#FCEB55" points="561.095,437.6 551.745,488.39 539.555,469.629 "/>
<polygon fill="#FADD53" points="585.095,302.6 562.305,317.26 553.425,298.6 "/>
<polygon fill="#FADD53" points="600.245,305.941 596.255,332.81 585.095,302.6 "/>
<polygon fill="#FFF85F" points="607.425,266.931 600.245,305.941 585.095,302.599 "/>
<polygon fill="#FD9534" points="615.055,241.44 610.955,254.82 607.425,266.93 599.095,261.43 "/>
<polygon fill="#F7CB46" points="615.055,228.71 615.055,241.44 599.095,261.43 "/>
<polygon fill="#FCEB55" points="615.055,228.71 592.505,240.71 609.535,222.57 "/>
<polygon fill="#FD9534" points="581.705,220 509.555,221.28 536.915,210.57 561.434,215.73 561.445,215.73 561.455,215.74 
	570.215,217.58 "/>
<polygon fill="#FFF85F" points="266.585,267.8 236.425,278.67 245.345,261.84 "/>
<polygon fill="#FFF85F" points="216.655,222.57 213.505,242.58 207.925,233.93 "/>
<polygon fill="#FFF85F" points="278.895,212.32 278.195,234.28 260.695,217.88 "/>
<polygon fill="#F4A934" points="508.405,433.89 477.715,442.43 498.965,433.21 "/>
<polygon fill="#FB561C" points="505.305,397.75 503.545,397.05 503.525,397.041 498.965,395.241 499.365,371.241 "/>
<polygon fill="#F4A934" points="539.555,469.63 492.495,488.3 494.235,457.89 "/>
<polygon fill="#FFF85F" points="494.235,457.89 492.495,488.3 492.485,488.531 463.135,469.63 "/>
<polygon fill="#F4A934" points="539.555,469.63 508.405,433.89 514.365,427.481 "/>
<polygon fill="#F6BF3E" points="561.095,437.6 514.365,427.481 525.755,411.26 "/>
<polygon fill="#FCEB55" points="514.365,427.481 514.365,421.661 508.075,402.22 505.745,398.459 525.755,411.26 "/>
<polygon fill="#FD9534" points="557.755,402.22 525.755,411.26 518.755,379.7 "/>
<polygon fill="#FFF85F" points="561.095,437.6 525.755,411.26 557.755,402.22 "/>
<polygon fill="#FCEB55" points="594.125,379.701 594.125,409.191 557.755,402.22 "/>
<polygon fill="#FADD53" points="596.255,332.81 594.125,347.191 561.095,356.01 "/>
<polygon fill="#F6BF3E" points="594.125,347.191 594.125,379.701 578.675,377.6 "/>
<polygon fill="#FF7C2E" points="578.675,377.6 557.755,402.22 546.065,373.93 "/>
<polygon fill="#FD9534" points="546.065,373.93 518.754,379.701 518.754,358.93 "/>
<polygon fill="#FD9534" points="434.925,345.06 431.065,376.06 425.865,351.47 422.055,327.571 "/>
<polygon fill="#FD9534" points="457.355,352.93 455.175,380.571 431.065,376.071 "/>
<polygon fill="#FF7C2E" points="540.425,313.93 518.755,317.26 516.755,289.77 "/>
<polygon fill="#F4A934" points="444.925,305.941 422.055,327.571 417.755,300.541 "/>
<polygon fill="#F6BF3E" points="561.095,356.01 518.755,358.93 534.755,342.26 "/>
<polygon fill="#F4A934" points="534.755,342.26 494.234,338.151 518.755,317.26 "/>
<polygon fill="#FFF85F" points="609.535,222.57 552.865,235.12 581.705,220 604.075,221.47 "/>
<polygon fill="#FCEB55" points="536.915,210.57 509.555,221.28 501.515,195.48 521.975,204.2 521.985,204.2 "/>
<polygon fill="#F7CB46" points="501.515,195.48 477.715,204.43 456.895,189.521 "/>
<polygon fill="#FFF85F" points="501.515,195.48 456.895,189.521 471.365,175.771 491.204,188.74 491.215,188.74 "/>
<polygon fill="#F7CB46" points="471.365,175.77 433.235,167.91 443.245,149.76 459.385,164.69 459.395,164.69 "/>
<polygon fill="#F4A934" points="443.245,149.76 413.195,144.78 426.825,128.3 "/>
<polygon fill="#F4A934" points="426.825,128.3 404.745,122.34 426.445,109.94 "/>
<polygon fill="#F7CB46" points="413.195,144.78 398.075,162.8 404.745,122.34 "/>
<polygon fill="#FD9534" points="404.745,122.34 398.075,162.8 374.805,158.62 381.345,150.69 "/>
<polygon fill="#FD9534" points="374.805,158.621 365.255,193.09 344.955,183.13 360.075,170.72 "/>
<polygon fill="#F4A934" points="344.955,183.13 344.955,205.23 327.905,192.68 "/>
<polygon fill="#FADD53" points="344.955,205.23 309.585,202.95 327.905,192.68 "/>
<polygon fill="#FADD53" points="320.485,219.871 278.905,212.32 283.065,211.05 309.585,202.95 "/>
<polygon fill="#F6BF3E" points="551.745,488.39 540.365,488.42 510.445,488.491 510.425,488.491 492.485,488.531 539.555,469.63 "/>
<polygon fill="#F7CB46" points="492.485,488.531 468.775,488.59 468.756,488.59 422.585,488.701 463.135,469.63 "/>
<polygon fill="#F6BF3E" points="357.675,488.861 324.095,488.941 321.525,488.951 343.675,473.929 "/>
<polygon fill="#F7CB46" points="358.425,346.93 338.345,348.22 336.815,340.51 "/>
<polygon fill="#F7CB46" points="340.925,416.93 326.965,410.09 326.965,400.67 "/>
<polygon fill="#F6BF3E" points="361.925,420.93 340.925,440.18 340.925,416.93 "/>
<polygon fill="#FFF85F" points="321.515,488.951 277.415,489.05 309.645,474.179 "/>
<polygon fill="#F6BF3E" points="276.725,489.05 271.295,489.06 271.065,489.06 270.825,489.071 270.275,489.071 239.245,489.14 
	266.585,477.93 "/>
<polygon fill="#FFF85F" points="321.515,458.18 309.645,474.18 289.215,462.68 "/>
<polygon fill="#FCEB55" points="258.095,383.93 227.495,395.111 227.615,385.441 227.765,373.75 "/>
<polygon fill="#FCEB55" points="242.445,419.18 223.285,423.12 223.525,421.51 227.495,395.111 "/>
<polygon fill="#F6BF3E" points="235.175,437.93 217.395,442.361 223.285,423.12 "/>
<polygon fill="#FFF85F" points="240.175,455.18 206.815,461.01 217.395,442.361 "/>
<polygon fill="#FF7C2E" points="260.425,452.18 224.175,475.35 240.175,455.18 "/>
<polygon fill="#F4A934" points="238.785,489.14 209.235,489.21 224.175,475.35 "/>
<polygon fill="#F6BF3E" points="224.175,475.35 197.145,469.669 206.815,461.01 "/>
<polygon fill="#F6BF3E" points="209.135,489.21 184.935,489.27 197.146,469.67 "/>
<polygon fill="#F6BF3E" points="184.935,470.25 184.935,489.27 177.735,484.93 184.675,470.39 "/>
<polygon fill="#F4A934" points="389.865,411.281 388.935,414.991 379.565,437.929 379.555,437.929 361.925,420.929 "/>
<polygon fill="#F6BF3E" points="258.095,356.14 227.775,372.89 227.945,359.68 228.055,350.611 "/>
<polygon fill="#FD9534" points="258.095,356.14 228.055,350.611 226.805,336.76 "/>
<polygon fill="#F7CB46" points="248.195,317.59 226.805,336.76 226.115,329.1 225.695,324.43 224.955,316.25 "/>
<polygon fill="#F4A934" points="291.425,291.76 271.425,318.93 258.095,299.26 "/>
<polygon fill="#F7CB46" points="258.095,299.26 224.955,316.25 224.425,310.31 224.385,309.81 224.325,309.14 223.125,295.87 "/>
<polygon fill="#FADD53" points="377.145,488.81 357.675,488.861 365.265,469.629 "/>
<polygon fill="#FF7C2E" points="421.335,488.701 398.365,488.76 397.455,488.76 377.145,488.809 365.265,469.63 "/>
<polygon fill="#F7CB46" points="416.035,289.77 410.375,319.28 387.705,302.6 "/>
<polygon fill="#F7CB46" points="426.025,89.4 405.565,104.48 405.565,104.47 414.206,82.43 "/>
<polygon fill="#F4A934" points="426.165,69.8 426.025,89.4 414.205,82.43 "/>
<polygon fill="#FFF85F" points="454.875,83.3 437.925,75.93 449.865,70.89 "/>
<polygon fill="#FF7C2E" points="437.925,75.931 426.025,89.4 426.165,69.8 "/>
<polygon fill="#F6BF3E" points="260.695,217.88 233.555,240.71 216.655,222.57 241.755,219.9 "/>
<polygon fill="#FADD53" points="233.555,240.71 213.505,242.58 216.655,222.57 "/>
<polygon fill="#F7CB46" points="516.755,289.77 489.265,270.62 504.405,264.97 "/>
<polygon fill="#FFF85F" points="531.095,280.931 504.405,264.971 514.805,255.55 520.045,251.141 "/>
<polygon fill="#FADD53" points="557.625,270.621 531.095,280.93 542.025,259.28 "/>
<polygon fill="#F4A934" points="387.705,302.6 361.925,286.431 378.925,278.67 "/>
<polygon fill="#F6BF3E" points="396.925,278.67 387.705,302.6 378.925,278.67 "/>
<polygon fill="#FFF85F" points="353.985,267.76 340.925,298.6 338.455,268.11 "/>
<polygon fill="#FFF85F" points="378.925,278.67 353.985,267.76 364.205,261.12 "/>
<polygon fill="#FCEB55" points="383.925,262.64 378.925,278.67 364.205,261.121 "/>
<polygon fill="#F6BF3E" points="383.925,262.64 364.205,261.121 372.515,252.48 "/>
<polygon fill="#FD9534" points="383.925,262.64 372.515,252.48 379.705,248.94 "/>
<polygon fill="#FCEB55" points="387.705,252.78 383.925,262.64 379.705,248.94 "/>
<polygon fill="#F6BF3E" points="396.845,261.831 383.925,262.641 387.705,252.78 "/>
<polygon fill="#FFF85F" points="414.195,267.581 396.925,278.67 396.845,261.831 "/>
<polygon fill="#F7CB46" points="416.035,289.77 396.925,278.67 414.195,267.58 "/>
<polygon fill="#FFF85F" points="431.065,280.931 414.194,267.581 430.265,261.57 "/>
<polygon fill="#FADD53" points="599.095,261.431 587.365,251.28 592.505,240.71 "/>
<polygon fill="#F6BF3E" points="542.025,259.28 520.045,251.14 521.475,249.93 533.055,250.25 "/>
<polygon fill="#FCEB55" points="324.325,289.77 296.925,309.1 291.425,291.76 "/>
<polygon fill="#FADD53" points="340.925,298.601 324.325,289.771 338.455,268.11 "/>
<polygon fill="#F4A934" points="338.455,268.11 324.325,289.77 291.425,291.76 "/>
<polygon fill="#FFF85F" points="338.455,268.11 306.925,274.59 324.325,258.43 "/>
<polygon fill="#F6BF3E" points="291.425,291.76 266.585,267.8 281.495,265.13 "/>
<polygon fill="#F7CB46" points="292.245,255.42 291.425,291.76 281.495,265.13 "/>
<polygon fill="#FFF85F" points="306.925,274.59 292.245,255.42 301.215,250.04 "/>
<polygon fill="#FADD53" points="315.575,250.69 306.925,274.59 301.215,250.04 "/>
<polygon fill="#F6BF3E" points="324.325,258.431 306.925,274.59 315.575,250.69 "/>
<polygon fill="#FCEB55" points="278.195,234.28 233.555,240.71 260.695,217.88 "/>
<polygon fill="#F6BF3E" points="320.485,219.871 278.195,234.28 278.895,212.32 278.905,212.32 "/>
<polygon fill="#FFF85F" points="344.955,205.23 320.485,219.87 309.585,202.95 "/>
<polygon fill="#FFF85F" points="365.255,193.09 344.955,205.23 344.955,183.13 "/>
<polygon fill="#F6BF3E" points="398.075,162.8 396.245,164.99 380.405,179.35 374.805,158.62 "/>
<polygon fill="#FCEB55" points="426.825,128.3 413.195,144.78 404.745,122.34 "/>
<polygon fill="#FADD53" points="380.405,179.351 365.255,193.09 374.805,158.621 "/>
<polygon fill="#FCEB55" points="581.705,220 552.865,235.12 509.555,221.28 "/>
<polygon fill="#F7CB46" points="609.535,222.57 592.505,240.71 552.865,235.12 "/>
<polygon fill="#F4A934" points="615.055,228.71 599.095,261.43 592.505,240.71 "/>
<polygon fill="#FCEB55" points="443.245,149.76 433.235,167.91 413.195,144.78 "/>
<polygon fill="#F4A934" points="471.365,175.77 456.895,189.52 433.235,167.91 "/>
<polygon fill="#FD9534" points="509.555,221.28 477.715,204.43 501.515,195.48 "/>
<polygon fill="#FFF85F" points="599.095,261.431 573.755,280.931 573.175,265.88 "/>
<polygon fill="#F4A934" points="531.095,280.931 516.755,289.771 504.405,264.971 "/>
<polygon fill="#F7CB46" points="599.095,261.431 573.175,265.88 587.365,251.28 "/>
<polygon fill="#FD9534" points="542.025,259.28 531.095,280.93 520.045,251.14 "/>
<polygon fill="#FFF85F" points="516.755,289.77 492.495,298.6 489.265,270.62 "/>
<polygon fill="#FB561C" points="557.625,270.621 553.425,298.601 531.095,280.93 "/>
<polygon fill="#FADD53" points="553.425,298.601 540.425,313.93 531.095,280.93 "/>
<polygon fill="#F4A934" points="585.095,302.6 553.425,298.6 573.755,280.931 "/>
<polygon fill="#FD9534" points="573.755,280.931 557.625,270.621 573.175,265.88 "/>
<polygon fill="#FFF85F" points="573.755,280.931 553.425,298.601 557.625,270.621 "/>
<polygon fill="#FD9534" points="607.425,266.931 573.755,280.931 599.095,261.431 "/>
<polygon fill="#F6BF3E" points="607.425,266.931 585.095,302.599 573.755,280.931 "/>
<polygon fill="#FADD53" points="562.305,317.26 561.095,356.01 540.425,313.93 "/>
<polygon fill="#F4A934" points="561.095,356.01 534.755,342.26 540.425,313.93 "/>
<polygon fill="#F7CB46" points="540.425,313.93 516.755,289.77 531.095,280.93 "/>
<polygon fill="#FFF85F" points="562.305,317.26 540.425,313.93 553.425,298.6 "/>
<polygon fill="#FD9534" points="596.255,332.81 562.305,317.26 585.095,302.6 "/>
<polygon fill="#F6BF3E" points="596.255,332.81 561.095,356.01 562.305,317.26 "/>
<polygon fill="#FFF85F" points="540.425,313.93 534.755,342.26 518.755,317.26 "/>
<polygon fill="#FCEB55" points="534.755,342.26 518.755,358.93 506.845,348.831 506.825,348.821 494.234,338.151 "/>
<polygon fill="#FFF85F" points="506.845,348.831 500.715,364.25 498.005,345.059 506.824,348.821 "/>
<polygon fill="#FFF85F" points="518.755,358.93 518.755,379.701 500.715,364.25 "/>
<polygon fill="#F7CB46" points="557.755,402.22 518.755,379.7 546.065,373.93 "/>
<polygon fill="#F7CB46" points="518.755,358.93 500.715,364.25 506.845,348.83 "/>
<polygon fill="#F6BF3E" points="506.825,348.821 498.005,345.06 494.235,338.151 "/>
<polygon fill="#F7CB46" points="561.095,356.01 546.065,373.93 518.755,358.93 "/>
<polygon fill="#FFF85F" points="594.125,347.191 578.675,377.6 561.095,356.009 "/>
<polygon fill="#F6BF3E" points="578.675,377.6 546.065,373.93 561.095,356.01 "/>
<polygon fill="#FD9534" points="594.125,379.701 557.755,402.22 578.675,377.599 "/>
<polygon fill="#F6BF3E" points="594.395,411.081 561.095,437.6 557.755,402.22 594.124,409.19 594.124,410.18 "/>
<polygon fill="#F6BF3E" points="492.495,376.071 474.005,395.241 482.345,372.161 "/>
<polygon fill="#F7CB46" points="482.345,372.161 457.355,352.93 477.715,348.571 "/>
<polygon fill="#FB561C" points="486.915,335.951 479.025,341.691 465.425,324.429 "/>
<polygon fill="#F4A934" points="479.025,341.691 477.715,348.571 465.425,324.43 "/>
<polygon fill="#F4A934" points="494.235,338.151 486.915,335.951 492.495,298.601 "/>
<polygon fill="#F4A934" points="518.755,379.701 499.365,371.241 500.715,364.25 "/>
<polygon fill="#F7CB46" points="525.755,411.26 499.365,371.24 518.755,379.7 "/>
<polygon fill="#FD9534" points="525.755,411.26 505.745,398.46 505.305,397.75 499.365,371.24 "/>
<polygon fill="#F6BF3E" points="482.345,372.161 474.005,395.241 455.175,380.571 "/>
<polygon fill="#FFF85F" points="492.495,376.071 489.265,400.571 488.455,406.491 474.005,395.241 "/>
<polygon fill="#F7CB46" points="561.095,437.6 539.555,469.629 514.365,427.481 "/>
<polygon fill="#FF7C2E" points="539.555,469.63 494.235,457.89 508.405,433.89 "/>
<polygon fill="#F4A934" points="569.255,466.43 551.745,488.39 561.095,437.6 "/>
<polygon fill="#F7CB46" points="650.185,488.161 627.435,488.21 627.425,488.21 589.945,488.3 589.914,488.3 619.914,469.809 "/>
<polygon fill="#F7CB46" points="604.805,446.06 569.255,466.43 561.095,437.6 "/>
<polygon fill="#FF7C2E" points="605.035,446.111 589.915,488.299 569.255,466.429 604.805,446.06 "/>
<polygon fill="#F7CB46" points="508.405,433.89 494.235,457.89 477.715,442.43 "/>
<polygon fill="#FADD53" points="518.755,317.26 492.495,298.6 516.755,289.77 "/>
<polygon fill="#F7CB46" points="518.755,317.26 494.234,338.151 492.495,298.6 "/>
<polygon fill="#F4A934" points="482.345,372.161 455.175,380.571 457.355,352.93 "/>
<polygon fill="#FFF85F" points="455.175,380.571 439.095,408.389 435.095,395.111 431.065,376.071 "/>
<polygon fill="#FD9534" points="488.455,406.491 465.425,402.219 455.175,380.571 474.005,395.241 "/>
<polygon fill="#F4A934" points="465.425,324.43 457.355,352.93 434.925,345.06 "/>
<polygon fill="#FFF85F" points="477.715,348.571 457.355,352.929 465.425,324.429 "/>
<polygon fill="#F7CB46" points="457.355,352.93 431.065,376.071 431.065,376.06 434.925,345.06 "/>
<polygon fill="#FFF85F" points="492.495,298.601 486.915,335.951 465.425,324.43 "/>
<polygon fill="#FADD53" points="460.425,283.431 444.925,305.941 417.755,300.541 "/>
<polygon fill="#FFF85F" points="444.925,305.941 434.925,345.06 422.055,327.571 "/>
<polygon fill="#F4A934" points="460.425,283.431 417.755,300.541 417.745,300.541 417.745,300.531 431.065,280.931 "/>
<polygon fill="#FADD53" points="465.425,324.43 434.925,345.06 444.925,305.941 "/>
<polygon fill="#FD9534" points="492.495,298.601 465.425,324.43 444.925,305.94 "/>
<polygon fill="#FCEB55" points="492.495,298.601 444.925,305.94 460.425,283.43 "/>
<polygon fill="#F7CB46" points="492.495,298.601 460.425,283.43 489.265,270.621 "/>
<polygon fill="#FB561C" points="489.265,270.621 460.425,283.43 446.925,270.621 "/>
<polygon fill="#F7CB46" points="489.265,270.621 446.925,270.621 477.865,264.99 "/>
<polygon fill="#FFF85F" points="477.865,264.991 446.925,270.621 466.505,254.61 "/>
<polygon fill="#FADD53" points="460.425,283.431 431.065,280.931 446.925,270.621 "/>
<polygon fill="#FADD53" points="466.505,254.61 446.925,270.62 456.615,249.71 "/>
<polygon fill="#F6BF3E" points="456.615,249.71 446.925,270.62 441.835,252.3 "/>
<polygon fill="#F4A934" points="446.925,270.621 430.265,261.57 441.835,252.3 "/>
<polygon fill="#FF7C2E" points="446.925,270.621 431.065,280.93 430.265,261.57 "/>
<polygon fill="#FCEB55" points="431.065,280.931 416.035,289.771 414.194,267.581 "/>
<polygon fill="#F7CB46" points="245.345,261.84 236.425,278.67 235.635,251.41 "/>
<polygon fill="#FFF85F" points="235.635,251.411 216.805,260.82 216.795,260.82 216.795,260.811 233.555,240.71 "/>
<polygon fill="#FD9534" points="236.425,278.67 216.805,260.83 216.805,260.82 235.635,251.41 "/>
<polygon fill="#FADD53" points="266.585,267.8 223.125,295.87 236.425,278.67 "/>
<polygon fill="#FFF85F" points="291.425,291.76 258.095,299.26 266.585,267.8 "/>
<polygon fill="#FF7C2E" points="266.585,267.8 258.095,299.26 223.125,295.87 "/>
<polygon fill="#FCEB55" points="338.455,268.11 291.425,291.76 306.925,274.59 "/>
<polygon fill="#FCEB55" points="271.425,318.93 248.195,317.59 224.955,316.25 258.095,299.26 "/>
<polygon fill="#F4A934" points="306.925,274.59 291.425,291.76 292.245,255.42 "/>
<polygon fill="#FFF85F" points="296.925,309.1 271.425,318.93 291.425,291.76 "/>
<polygon fill="#F6BF3E" points="361.925,286.431 354.425,313 340.925,298.601 "/>
<polygon fill="#FF7C2E" points="378.925,278.67 361.925,286.43 353.985,267.76 "/>
<polygon fill="#FADD53" points="291.425,330.93 269.425,335.97 271.425,318.93 "/>
<polygon fill="#F7CB46" points="269.425,335.97 258.095,356.14 226.805,336.76 "/>
<polygon fill="#FADD53" points="348.145,333.071 336.815,340.509 329.545,335.969 "/>
<polygon fill="#F6BF3E" points="329.545,335.97 321.905,338.08 320.165,318.93 "/>
<polygon fill="#FFF85F" points="321.905,338.081 291.425,330.93 320.165,318.93 "/>
<polygon fill="#F6BF3E" points="324.325,289.77 320.165,318.93 296.925,309.1 "/>
<polygon fill="#FF7C2E" points="296.925,309.1 291.425,330.93 271.425,318.93 "/>
<polygon fill="#FADD53" points="320.165,318.93 291.425,330.93 296.925,309.1 "/>
<polygon fill="#FFF85F" points="340.925,298.601 320.165,318.93 324.325,289.771 "/>
<polygon fill="#FCEB55" points="354.425,313 320.165,318.93 340.925,298.6 "/>
<polygon fill="#FADD53" points="361.925,286.431 340.925,298.601 353.985,267.76 "/>
<polygon fill="#FADD53" points="396.845,261.831 378.925,278.67 383.925,262.641 "/>
<polygon fill="#FD9534" points="396.925,278.67 378.925,278.67 396.845,261.83 "/>
<polygon fill="#FF7C2E" points="416.035,289.77 387.705,302.6 396.925,278.67 "/>
<polygon fill="#F7CB46" points="387.705,302.6 354.425,313 361.925,286.431 "/>
<polygon fill="#FADD53" points="410.375,319.281 387.925,330.929 387.705,302.599 "/>
<polygon fill="#FCEB55" points="387.705,302.6 361.925,330.93 354.425,313 "/>
<polygon fill="#FFF85F" points="387.925,330.93 361.925,330.93 387.705,302.6 "/>
<polygon fill="#FADD53" points="301.495,370.93 299.425,391.25 279.005,381.93 "/>
<polygon fill="#FADD53" points="301.495,422.76 276.925,405.43 299.425,391.25 "/>
<polygon fill="#FCEB55" points="301.495,422.76 284.175,425.68 276.925,405.43 "/>
<polygon fill="#FFF85F" points="302.115,427.321 284.175,425.679 301.495,422.759 "/>
<polygon fill="#F7CB46" points="307.675,433.89 284.175,425.68 302.115,427.321 "/>
<polygon fill="#F4A934" points="307.675,433.89 286.175,444.93 284.175,425.68 "/>
<polygon fill="#FFF85F" points="258.095,356.14 258.095,383.93 227.765,373.75 227.775,372.89 "/>
<polygon fill="#FFF85F" points="258.095,383.93 258.095,403.43 227.495,395.111 "/>
<polygon fill="#FADD53" points="279.005,381.93 258.095,383.93 266.585,370.16 "/>
<polygon fill="#F6BF3E" points="266.585,370.161 258.095,383.93 258.095,356.139 "/>
<polygon fill="#FFF85F" points="291.425,354.6 279.005,381.93 266.585,370.161 "/>
<polygon fill="#F7CB46" points="309.645,399.491 301.495,422.76 299.425,391.25 "/>
<polygon fill="#F4A934" points="301.495,370.93 279.005,381.93 291.425,354.6 "/>
<polygon fill="#FF7C2E" points="258.095,403.43 242.445,419.18 227.495,395.111 "/>
<polygon fill="#F7CB46" points="253.925,437.93 235.175,437.93 242.445,419.18 "/>
<polygon fill="#F4A934" points="240.175,455.18 217.395,442.361 235.175,437.93 "/>
<polygon fill="#F4A934" points="242.445,419.18 235.175,437.93 223.285,423.12 "/>
<polygon fill="#FCEB55" points="269.425,425.68 253.925,437.93 242.445,419.18 "/>
<polygon fill="#F7CB46" points="286.175,444.93 253.925,437.93 269.425,425.68 "/>
<polygon fill="#FADD53" points="269.425,425.68 242.445,419.18 258.095,403.43 "/>
<polygon fill="#FADD53" points="286.175,444.93 269.425,425.68 284.175,425.68 "/>
<polygon fill="#FFF85F" points="284.175,425.68 269.425,425.68 276.925,405.43 "/>
<polygon fill="#F6BF3E" points="276.925,405.43 269.425,425.68 258.095,403.43 "/>
<polygon fill="#FFF85F" points="299.425,391.25 276.925,405.43 279.005,381.93 "/>
<polygon fill="#FADD53" points="279.005,381.93 276.925,405.43 258.095,403.43 "/>
<polygon fill="#FCEB55" points="279.005,381.93 258.095,403.43 258.095,383.93 "/>
<polygon fill="#FFF85F" points="253.925,437.93 240.175,455.18 235.175,437.93 "/>
<polygon fill="#F7CB46" points="260.425,452.18 240.175,455.18 253.925,437.93 "/>
<polygon fill="#FF7C2E" points="286.175,444.93 260.425,452.18 253.925,437.93 "/>
<polygon fill="#FF7C2E" points="184.675,470.39 177.735,484.93 177.735,474.17 "/>
<polygon fill="#FCEB55" points="197.145,469.67 184.935,489.27 184.935,470.25 185.665,469.85 "/>
<polygon fill="#FADD53" points="224.175,475.35 209.235,489.209 209.135,489.209 197.145,469.669 "/>
<polygon fill="#FD9534" points="240.175,455.18 224.175,475.35 206.815,461.01 "/>
<polygon fill="#FADD53" points="249.545,470.68 238.995,489.14 238.785,489.14 224.175,475.35 "/>
<polygon fill="#FCEB55" points="266.585,477.93 239.245,489.14 238.995,489.14 249.545,470.68 "/>
<polygon fill="#F6BF3E" points="266.585,477.93 249.545,470.68 260.425,452.18 "/>
<polygon fill="#F6BF3E" points="309.645,474.18 277.415,489.05 277.025,489.05 289.215,462.68 "/>
<polygon fill="#F7CB46" points="289.215,462.68 260.425,452.18 286.175,444.93 "/>
<polygon fill="#F7CB46" points="260.425,452.18 249.545,470.68 224.175,475.35 "/>
<polygon fill="#FADD53" points="289.215,462.68 277.025,489.05 276.725,489.05 266.585,477.93 "/>
<polygon fill="#FD9534" points="289.215,462.68 266.585,477.93 260.425,452.18 "/>
<polygon fill="#F7CB46" points="335.315,450.93 321.515,458.18 314.235,434.741 "/>
<polygon fill="#FFF85F" points="307.675,433.89 289.215,462.68 286.175,444.93 "/>
<polygon fill="#FFF85F" points="321.515,458.18 307.675,433.89 314.235,434.741 "/>
<polygon fill="#FD9534" points="321.515,458.18 289.215,462.68 307.675,433.89 "/>
<polygon fill="#FF7C2E" points="321.515,458.18 321.515,488.951 309.645,474.18 "/>
<polygon fill="#F7CB46" points="346.425,381.93 321.515,395.83 328.075,376.321 "/>
<polygon fill="#F6BF3E" points="318.575,373.35 301.495,370.93 315.585,364.959 "/>
<polygon fill="#FFF85F" points="318.575,373.35 299.425,391.25 301.495,370.93 "/>
<polygon fill="#FFF85F" points="315.865,395.241 309.645,399.491 299.425,391.25 "/>
<polygon fill="#FADD53" points="318.575,373.35 315.865,395.241 299.425,391.25 "/>
<polygon fill="#F7CB46" points="321.515,395.831 315.865,395.241 318.575,373.35 "/>
<polygon fill="#F4A934" points="328.075,376.321 321.515,395.831 318.575,373.349 "/>
<polygon fill="#F4A934" points="346.425,381.93 328.075,376.321 335.835,367.441 "/>
<polygon fill="#FD9534" points="360.125,368.26 335.835,367.441 338.345,348.22 "/>
<polygon fill="#F4A934" points="358.425,346.93 336.815,340.51 348.145,333.071 348.155,333.071 "/>
<polygon fill="#F4A934" points="361.925,420.93 340.925,416.93 343.675,396.43 "/>
<polygon fill="#FFF85F" points="346.425,381.93 343.675,396.43 321.515,395.83 "/>
<polygon fill="#F6BF3E" points="271.425,318.93 269.425,335.97 248.195,317.59 "/>
<polygon fill="#FFF85F" points="269.425,335.97 226.805,336.76 248.195,317.59 "/>
<polygon fill="#F4A934" points="321.905,338.081 318.205,344.73 291.425,330.93 "/>
<polygon fill="#F7CB46" points="318.205,344.731 291.425,354.6 291.425,330.93 "/>
<polygon fill="#F7CB46" points="354.425,313 329.545,335.97 320.165,318.93 "/>
<polygon fill="#FF7C2E" points="361.925,330.93 348.155,333.071 348.145,333.071 329.545,335.97 354.425,313 "/>
<polygon fill="#FADD53" points="291.425,354.6 266.585,370.161 258.095,356.14 "/>
<polygon fill="#FCEB55" points="291.425,330.93 291.425,354.6 269.425,335.97 "/>
<polygon fill="#FFF85F" points="291.425,354.6 258.095,356.14 269.425,335.97 "/>
<polygon fill="#FF7C2E" points="318.205,344.731 315.585,364.959 291.425,354.6 "/>
<polygon fill="#F6BF3E" points="315.585,364.96 301.495,370.93 291.425,354.6 "/>
<polygon fill="#F6BF3E" points="343.675,396.43 326.965,400.67 321.515,395.83 "/>
<polygon fill="#FCEB55" points="343.675,396.43 340.925,416.93 326.965,400.67 "/>
<polygon fill="#FCEB55" points="379.555,437.93 340.925,440.18 361.925,420.93 "/>
<polygon fill="#FADD53" points="340.925,416.93 340.925,440.18 326.965,410.09 "/>
<polygon fill="#FADD53" points="343.675,473.93 321.525,488.951 321.515,488.951 321.515,458.18 "/>
<polygon fill="#FB561C" points="340.925,440.18 329.545,428.55 326.965,410.09 "/>
<polygon fill="#F4A934" points="343.675,473.93 321.515,458.18 335.315,450.93 "/>
<polygon fill="#FFF85F" points="360.675,452.18 343.675,473.93 335.315,450.93 "/>
<polygon fill="#FF7C2E" points="361.085,451.871 360.675,452.18 335.315,450.93 340.925,440.18 "/>
<line fill="none" stroke="#000000" stroke-miterlimit="10" x1="361.615" y1="452.18" x2="361.085" y2="451.87"/>
<polygon fill="#FFF85F" points="335.315,450.93 314.235,434.741 320.745,428.861 "/>
<polygon fill="#F4A934" points="369.655,461.071 365.265,469.63 357.675,488.861 343.675,473.929 "/>
<polygon fill="#F6BF3E" points="340.925,440.18 335.315,450.93 320.745,428.861 "/>
<polygon fill="#FD9534" points="340.925,440.18 320.745,428.861 329.545,428.55 "/>
<polygon fill="#F7CB46" points="329.545,428.55 320.745,428.861 326.965,410.09 "/>
<polygon fill="#F4A934" points="379.555,437.93 379.555,437.941 361.085,451.87 340.925,440.18 "/>
<polygon fill="#FADD53" points="369.655,461.06 369.655,461.071 343.675,473.93 360.675,452.18 "/>
<polygon fill="#F7CB46" points="379.555,437.941 371.875,456.741 369.665,461.06 369.655,461.06 360.675,452.18 361.085,451.871 "/>
<polygon fill="#F6BF3E" points="494.235,457.89 463.135,469.63 477.715,442.43 "/>
<polygon fill="#F7CB46" points="499.365,371.241 489.265,400.571 492.495,376.071 "/>
<polygon fill="#FCEB55" points="499.365,371.241 498.965,395.241 489.265,400.571 "/>
<polygon fill="#FCEB55" points="460.425,428.691 445.215,428.75 439.095,408.39 "/>
<polygon fill="#FD9534" points="463.135,469.63 454.225,451.411 445.215,428.75 460.425,428.691 "/>
<polygon fill="#F7CB46" points="477.715,442.43 463.135,469.63 460.425,428.691 "/>
<polygon fill="#FD9534" points="431.065,280.931 417.746,300.531 416.035,289.771 "/>
<polygon fill="#F6BF3E" points="383.425,352.93 358.715,347 361.925,330.93 "/>
<polygon fill="#FCEB55" points="387.925,330.93 383.425,352.93 361.925,330.93 "/>
<polygon fill="#F7CB46" points="404.555,347.02 404.085,347.669 383.425,352.93 387.925,330.93 "/>
<polygon fill="#F4A934" points="410.375,319.281 404.985,347.441 404.555,347.02 387.925,330.929 "/>
<polygon fill="#FCEB55" points="404.085,347.67 383.425,376.07 383.425,352.93 "/>
<polygon fill="#FADD53" points="404.985,347.441 402.205,361.919 395.585,388.411 383.425,376.071 404.085,347.669 "/>
<polygon fill="#FFF85F" points="383.425,352.93 360.125,368.26 358.425,348.43 358.715,347 "/>
<polygon fill="#F7CB46" points="383.425,352.93 383.425,376.071 360.125,368.26 "/>
<polygon fill="#F6BF3E" points="383.425,376.071 367.265,395.241 346.425,381.929 "/>
<polygon fill="#FD9534" points="383.425,376.071 346.425,381.929 360.125,368.259 "/>
<polygon fill="#F7CB46" points="395.585,388.411 367.265,395.241 383.425,376.071 "/>
<polygon fill="#FFF85F" points="395.585,388.411 389.865,411.281 367.265,395.241 "/>
<polygon fill="#FF7C2E" points="389.865,411.281 361.925,420.929 367.265,395.241 "/>
<polygon fill="#F7CB46" points="367.265,395.241 361.925,420.929 343.675,396.429 "/>
<polygon fill="#F4A934" points="367.265,395.241 343.675,396.429 346.425,381.929 "/>
<polygon fill="#FFF85F" points="360.125,368.26 346.425,381.93 335.835,367.441 "/>
<polygon fill="#FADD53" points="360.125,368.26 338.345,348.22 358.425,346.93 358.715,347 358.425,348.43 "/>
<polygon fill="#F6BF3E" points="361.925,330.93 358.715,347 358.425,346.93 348.155,333.071 "/>
<polygon fill="#F7CB46" points="421.825,488.781 421.195,488.781 365.125,469.71 414.605,469.71 "/>
<polygon fill="#FADD53" points="465.425,402.22 439.095,408.39 455.175,380.571 "/>
<polygon fill="#F4A934" points="492.085,419.231 465.425,402.22 488.455,406.491 "/>
<polygon fill="#FD9534" points="498.965,433.21 477.715,442.43 492.085,419.231 "/>
<polygon fill="#F6BF3E" points="492.085,419.231 477.715,442.43 460.425,428.691 "/>
<polygon fill="#FADD53" points="492.085,419.231 460.425,428.691 465.425,402.22 "/>
<polygon fill="#F7CB46" points="465.425,402.22 460.425,428.691 439.095,408.39 "/>
</svg>
