<?xml version="1.0" encoding="utf-8"?>
<!-- Generator: Adobe Illustrator 16.0.0, SVG Export Plug-In . SVG Version: 6.00 Build 0)  -->
<!DOCTYPE svg PUBLIC "-//W3C//DTD SVG 1.1//EN" "http://www.w3.org/Graphics/SVG/1.1/DTD/svg11.dtd">
<svg version="1.1" id="Layer_1" xmlns="http://www.w3.org/2000/svg" xmlns:xlink="http://www.w3.org/1999/xlink" x="0px" y="0px"
	 width="841.89px" height="595.276px" viewBox="0 0 841.89 595.276" enable-background="new 0 0 841.89 595.276"
	 xml:space="preserve">
<g>
	<polygon fill="#238B45" points="225.876,149.98 198.805,146.542 216.195,139.817 	"/>
	<polygon fill="#005A32" points="225.876,149.98 189.568,170.249 198.805,146.542 	"/>
	<polygon fill="#238B45" points="225.876,149.98 221.45,177.284 189.568,170.249 	"/>
	<polygon fill="#41AB5D" points="221.45,177.284 179.598,209.495 189.568,170.249 	"/>
	<polygon fill="#005A32" points="221.45,177.284 203.577,219.89 179.598,209.495 	"/>
	<polygon fill="#41AB5D" points="203.577,219.89 198.127,235.87 179.598,209.495 	"/>
	<polygon fill="#74C476" points="179.598,209.495 175.56,226.594 155.097,212.953 	"/>
	<polygon fill="#238B45" points="155.097,212.953 152.391,236.508 131.176,232.836 	"/>
	<polygon fill="#74C476" points="140.16,258.902 121.921,264.002 131.176,232.836 	"/>
	<polygon fill="#A1D99B" points="145.823,282.688 129.38,294.396 121.921,264.002 	"/>
	<polygon fill="#74C476" points="145.823,282.688 144.934,308.696 129.38,294.396 	"/>
	<polygon fill="#A1D99B" points="162.306,291.943 159.309,310.763 144.934,308.696 	"/>
	<polygon fill="#41AB5D" points="166.768,400.574 157.881,402.951 154.769,370.915 	"/>
	<polygon fill="#74C476" points="171.02,360.421 154.769,370.915 156.992,341.602 	"/>
	<polygon fill="#238B45" points="171.02,360.421 166.768,400.574 154.769,370.915 	"/>
	<polygon fill="#74C476" points="181.009,303.228 177.163,325.237 159.309,310.763 	"/>
	<polygon fill="#238B45" points="177.163,325.237 156.992,341.602 159.309,310.763 	"/>
	<polygon fill="#238B45" points="187.078,272.893 162.306,291.943 171.465,246.826 	"/>
	<polygon fill="#238B45" points="204.351,281.257 181.009,303.228 187.078,272.893 	"/>
	<polygon fill="#41AB5D" points="224.813,261.993 204.351,281.257 213.82,249.241 	"/>
	<polygon fill="#41AB5D" points="225.798,239.425 213.82,249.241 203.577,219.89 	"/>
	<polygon fill="#74C476" points="213.82,249.241 198.127,235.87 203.577,219.89 	"/>
	<polygon fill="#41AB5D" points="256,272.119 224.813,261.993 237.102,250.979 	"/>
	<polygon fill="#74C476" points="264.095,309.256 224.813,261.993 256,272.119 	"/>
	<polygon fill="#238B45" points="291.128,309.256 264.095,309.256 256,272.119 270.356,288.175 	"/>
	<polygon fill="#41AB5D" points="309.02,350.317 264.095,309.256 291.128,309.256 	"/>
	<polygon fill="#74C476" points="333.812,343.225 309.02,350.317 291.128,309.256 	"/>
	<polygon fill="#41AB5D" points="353.56,370.875 309.02,350.317 333.812,343.225 	"/>
	<polygon fill="#238B45" points="405.537,371.531 353.56,370.875 364.726,349.332 	"/>
	<polygon fill="#74C476" points="405.537,371.531 364.726,349.332 395.313,345.447 	"/>
	<polygon fill="#41AB5D" points="431.796,354.877 405.537,371.531 395.313,345.447 	"/>
	<polygon fill="#238B45" points="431.796,354.877 395.313,345.447 426.482,344.751 	"/>
	<polygon fill="#41AB5D" points="259.593,233.01 237.102,250.979 225.798,239.425 	"/>
	<polygon fill="#74C476" points="269.468,207.813 259.593,233.01 225.798,239.425 	"/>
	<polygon fill="#238B45" points="305.483,206.382 259.593,233.01 269.468,207.813 	"/>
	<polygon fill="#005A32" points="324.342,179.061 305.483,206.382 269.468,207.813 	"/>
	<polygon fill="#238B45" points="353.287,187.175 305.483,206.382 324.342,179.061 	"/>
	<polygon fill="#41AB5D" points="368.455,163.988 353.287,187.175 324.342,179.061 	"/>
	<polygon fill="#74C476" points="412.821,173.382 353.287,187.175 368.455,163.988 	"/>
	<polygon fill="#238B45" points="437.32,152.203 412.821,173.382 368.455,163.988 	"/>
	<polygon fill="#74C476" points="474.188,171.159 412.821,173.382 437.32,152.203 	"/>
	<polygon fill="#005A32" points="491.617,153.187 474.188,171.159 437.32,152.203 	"/>
	<polygon fill="#238B45" points="528.389,184.839 474.188,171.159 491.617,153.187 	"/>
	<polygon fill="#74C476" points="535.229,161.767 528.389,184.839 491.617,153.187 	"/>
	<polygon fill="#41AB5D" points="554.396,196.064 528.389,184.839 535.229,161.767 	"/>
	<polygon fill="#74C476" points="598.063,186.424 554.396,196.064 535.229,161.767 579.708,178.849 	"/>
	<polygon fill="#A1D99B" points="598.063,186.424 583.496,208.645 554.396,196.064 	"/>
	<polygon fill="#005A32" points="596.112,230.42 596.112,230.459 583.571,225.881 583.496,208.645 	"/>
	<polygon fill="#A1D99B" points="583.571,225.881 568.54,235.521 557.313,214.77 	"/>
	<polygon fill="#238B45" points="557.313,214.77 551.268,235.153 537.395,218.729 	"/>
	<polygon fill="#238B45" points="539.284,248.004 523.208,234.072 537.395,218.729 	"/>
	<polygon fill="#41AB5D" points="539.284,248.004 518.532,260.506 523.208,234.072 	"/>
	<polygon fill="#41AB5D" points="537.488,264.446 526.979,287.229 518.532,260.506 	"/>
	<polygon fill="#A1D99B" points="542.686,277.201 526.979,287.229 537.488,264.446 	"/>
	<polygon fill="#238B45" points="552,286.512 547.693,304.85 526.979,287.229 	"/>
	<polygon fill="#41AB5D" points="572.442,308.714 547.693,304.85 552,286.512 	"/>
	<polygon fill="#238B45" points="572.442,308.714 552,286.512 566.491,289.45 	"/>
	<polygon fill="#41AB5D" points="592.73,293.489 589.388,322.609 572.442,308.714 	"/>
	<polygon fill="#74C476" points="589.388,322.609 562.996,337.872 572.442,308.714 	"/>
	<polygon fill="#41AB5D" points="589.388,322.609 578.703,374.547 562.996,337.872 	"/>
	<polygon fill="#74C476" points="578.703,374.547 555.305,361.56 562.996,337.872 	"/>
	<polygon fill="#238B45" points="578.703,374.547 565.411,385.639 564.83,385.231 555.305,361.56 	"/>
	<polygon fill="#41AB5D" points="564.83,385.231 553.218,377.253 555.305,361.56 	"/>
	<polygon fill="#41AB5D" points="594.588,277.201 592.73,293.489 578.318,285.276 	"/>
	<polygon fill="#41AB5D" points="597.426,252.409 594.588,277.201 580.462,267.598 	"/>
	<polygon fill="#238B45" points="597.426,252.409 580.462,267.598 583.032,246.38 	"/>
	<polygon fill="#238B45" points="618.723,194.944 595.165,214.421 598.063,186.424 	"/>
	<polygon fill="#005A32" points="618.723,194.944 617.775,225.145 595.165,214.421 	"/>
	<polygon fill="#41AB5D" points="627.746,229.725 616.635,247.095 617.775,225.145 	"/>
	<polygon fill="#238B45" points="631.126,274.649 616.635,247.095 627.746,229.725 	"/>
	<polygon fill="#41AB5D" points="631.126,274.649 614.566,286.552 616.635,247.095 	"/>
	<polygon fill="#74C476" points="631.126,274.649 626.817,320.676 614.566,286.552 	"/>
	<polygon fill="#41AB5D" points="626.817,320.676 602.102,344.442 614.566,286.552 	"/>
	<polygon fill="#238B45" points="626.817,320.676 619.145,363.165 602.102,344.442 	"/>
	<polygon fill="#74C476" points="619.145,363.165 591.67,376.498 602.102,344.442 	"/>
	<polygon fill="#238B45" points="619.145,363.165 614.488,389.001 591.67,376.517 591.67,376.498 	"/>
	<polygon fill="#74C476" points="614.488,389.001 603.573,406.138 586.142,393.463 	"/>
	<polygon fill="#238B45" points="603.573,406.138 590.142,404.788 586.142,393.463 	"/>
	<polygon fill="#74C476" points="646.177,207.098 627.746,229.725 618.723,194.944 621.715,196.18 	"/>
	<polygon fill="#238B45" points="662.813,244.448 627.746,229.725 646.177,207.098 	"/>
	<polygon fill="#41AB5D" points="665.866,213.377 662.813,244.448 646.177,207.098 	"/>
	<polygon fill="#74C476" points="681.112,244.448 662.813,244.448 665.866,213.377 	"/>
	<polygon fill="#74C476" points="694.117,220.084 665.866,213.377 681.422,211.966 	"/>
	<polygon fill="#005A32" points="694.117,220.084 694.117,235.481 681.112,244.448 	"/>
	<polygon fill="#74C476" points="598.075,152.58 593.977,138.918 605.302,140.851 	"/>
	<polygon fill="#A1D99B" points="598.075,152.58 605.302,140.851 611.31,151.595 	"/>
	<polygon fill="#005A32" points="607.525,161.988 598.075,152.58 611.31,151.595 	"/>
	<polygon fill="#238B45" points="596.701,166.26 598.075,152.58 607.525,161.988 	"/>
	<polygon fill="#41AB5D" points="596.701,166.26 585.496,159.38 598.075,152.58 	"/>
	<polygon fill="#A1D99B" points="585.496,159.38 584.84,146.704 598.075,152.58 	"/>
	<polygon fill="#41AB5D" points="598.075,152.58 584.84,146.704 593.977,138.918 	"/>
	<polygon fill="#238B45" points="297.002,268.988 273.64,286.958 272.096,273.798 	"/>
	<polygon fill="#74C476" points="297.002,268.988 296.77,269.413 283.999,292.464 273.64,286.958 	"/>
	<polygon fill="#238B45" points="298.857,288.967 283.999,292.464 296.77,269.413 297.042,269.471 	"/>
	<polygon fill="#74C476" points="318.7,273.549 298.857,288.967 297.042,269.471 	"/>
	<polygon fill="#282828" points="296.77,269.413 297.002,268.988 297.042,269.471 	"/>
	<polygon fill="#41AB5D" points="344.884,239.695 343.317,253.992 337.638,272.987 329.501,242.902 	"/>
	<polygon fill="#74C476" points="344.884,239.695 329.501,242.902 342.584,232.932 341.249,237.203 	"/>
	<polygon fill="#238B45" points="342.584,232.932 329.501,242.902 339.163,224.953 	"/>
	<polygon fill="#41AB5D" points="339.163,224.953 329.501,242.902 326.448,221.59 	"/>
	<polygon fill="#238B45" points="329.501,242.902 302.586,232.951 326.448,221.59 	"/>
	<polygon fill="#41AB5D" points="329.501,242.902 317.696,244.97 302.586,232.951 	"/>
	<polygon fill="#238B45" points="302.586,232.951 302.449,257.782 278.761,257.782 	"/>
	<polygon fill="#41AB5D" points="339.607,284.137 321.985,290.766 318.7,273.549 	"/>
	<polygon fill="#238B45" points="339.607,284.137 335.049,299.944 321.985,290.766 	"/>
	<polygon fill="#41AB5D" points="350.024,300.31 335.049,299.944 339.607,284.137 	"/>
	<polygon fill="#74C476" points="350.024,300.31 339.607,284.137 349.733,284.87 	"/>
	<polygon fill="#238B45" points="364.726,291.015 350.024,300.31 349.733,284.87 	"/>
	<polygon fill="#41AB5D" points="364.726,291.015 349.733,284.87 357.208,280.041 	"/>
	<polygon fill="#41AB5D" points="382.947,268.988 357.208,280.041 368.187,253.221 368.398,253.026 	"/>
	<polygon fill="#238B45" points="382.947,268.988 380.92,290.841 364.726,291.015 	"/>
	<polygon fill="#41AB5D" points="404.956,273.509 404.665,273.723 380.92,290.841 382.947,268.988 	"/>
	<polygon fill="#238B45" points="388.396,257.782 368.398,253.026 387.739,233.743 	"/>
	<polygon fill="#74C476" points="411.663,221.707 403.643,244.97 387.739,233.743 	"/>
	<polygon fill="#41AB5D" points="424.973,224.586 415.447,242.902 411.663,221.707 	"/>
	<polygon fill="#238B45" points="428.935,232.604 415.447,242.902 424.973,224.586 	"/>
	<polygon fill="#74C476" points="431.06,239.676 415.447,242.902 428.935,232.604 427.562,237.203 	"/>
	<polygon fill="#41AB5D" points="431.06,239.676 430.46,251.887 415.447,242.902 	"/>
	<polygon fill="#74C476" points="424.396,269.626 424.414,269.896 424.377,269.896 424.335,269.779 415.447,242.902 430.46,251.887 
			"/>
	<polygon fill="#41AB5D" points="424.897,282.688 404.993,273.878 404.975,273.664 424.396,269.974 424.377,269.896 
		424.414,269.896 	"/>
	<line fill="#282828" x1="424.396" y1="269.974" x2="424.331" y2="269.786"/>
	<polygon fill="#41AB5D" points="424.396,269.974 403.314,255.655 415.447,242.902 	"/>
	<polygon fill="#74C476" points="424.396,269.974 404.975,273.664 404.956,273.509 403.314,255.655 	"/>
	<polygon fill="#238B45" points="424.897,282.688 406.696,287.478 404.993,273.878 	"/>
	<polygon fill="#74C476" points="424.897,282.688 417.169,298.589 406.696,287.478 	"/>
	<polygon fill="#74C476" points="433.012,285.528 433.012,301.103 417.169,298.589 	"/>
	<polygon fill="#41AB5D" points="446.382,294.898 433.012,301.103 442.925,280.427 	"/>
	<polygon fill="#74C476" points="460.7,296.851 446.382,294.898 442.925,280.427 	"/>
	<polygon fill="#238B45" points="470.422,276.775 442.925,280.427 448.412,258.379 	"/>
	<polygon fill="#74C476" points="478.517,260.099 470.422,276.775 448.412,258.379 	"/>
	<polygon fill="#41AB5D" points="478.517,260.099 448.412,258.379 451.466,246.09 	"/>
	<polygon fill="#74C476" points="472.796,240.082 451.466,246.09 455.757,219.33 	"/>
	<polygon fill="#41AB5D" points="471.347,215.426 455.757,219.33 459.968,215.831 	"/>
	<polygon fill="#74C476" points="475.328,221.184 472.876,239.522 472.758,239.58 471.347,215.426 	"/>
	<polygon fill="#282828" points="472.876,239.522 472.837,239.829 472.837,239.85 472.796,240.082 472.777,239.656 472.758,239.58 	
		"/>
	<polygon fill="#41AB5D" points="496.005,229.145 478.517,260.099 472.876,239.984 473.434,239.271 	"/>
	<polygon fill="#74C476" points="496.005,229.145 473.434,239.271 486.631,222.478 	"/>
	<polygon fill="#41AB5D" points="504.195,214.517 496.005,229.145 486.631,222.478 	"/>
	<polygon fill="#74C476" points="516.66,219.909 496.005,229.145 504.195,214.517 	"/>
	<polygon fill="#238B45" points="516.66,219.909 505.704,242.708 496.005,229.145 	"/>
	<polygon fill="#74C476" points="519.85,231.812 505.704,242.708 516.66,219.909 	"/>
	<polygon fill="#41AB5D" points="519.85,231.812 515.596,242.15 505.704,242.708 	"/>
	<polygon fill="#238B45" points="559.461,444.918 534.764,456.358 532.254,448.628 	"/>
	<polygon fill="#74C476" points="584.425,421.983 559.461,444.918 532.254,448.628 	"/>
	<polygon fill="#41AB5D" points="600.015,426.158 559.461,444.918 584.425,421.983 	"/>
	<polygon fill="#74C476" points="609.39,411.916 600.015,426.158 584.425,421.983 	"/>
	<polygon fill="#238B45" points="632.361,415.511 600.015,426.158 609.39,411.916 609.39,411.898 609.408,411.898 	"/>
	<polygon fill="#41AB5D" points="647.569,396.496 632.361,415.511 609.408,411.898 	"/>
	<polygon fill="#74C476" points="662.544,410.313 632.361,415.511 647.569,396.496 	"/>
	<polygon fill="#238B45" points="685.713,388.593 662.544,410.313 647.569,396.496 	"/>
	<polygon fill="#41AB5D" points="708.84,417.173 688.03,414.12 662.544,410.313 685.713,388.593 	"/>
	<polygon fill="#A1D99B" points="717.033,394.625 708.84,417.173 685.713,388.593 	"/>
	<polygon fill="#005A32" points="719.969,409.867 708.84,417.173 717.033,394.625 	"/>
	<polygon fill="#238B45" points="198.127,235.87 175.56,226.594 179.598,209.495 	"/>
	<polygon fill="#005A32" points="175.56,226.594 152.391,236.508 155.097,212.953 	"/>
	<polygon fill="#41AB5D" points="152.391,236.508 140.16,258.902 131.176,232.836 	"/>
	<polygon fill="#238B45" points="145.823,282.688 121.921,264.002 140.16,258.902 	"/>
	<polygon fill="#41AB5D" points="162.306,291.943 144.934,308.696 145.823,282.688 	"/>
	<polygon fill="#41AB5D" points="181.009,303.228 159.309,310.763 162.306,291.943 	"/>
	<polygon fill="#74C476" points="187.078,272.893 181.009,303.228 162.306,291.943 	"/>
	<polygon fill="#41AB5D" points="177.163,325.237 171.02,360.421 156.992,341.602 	"/>
	<polygon fill="#41AB5D" points="198.127,235.87 171.465,246.826 175.56,226.594 	"/>
	<polygon fill="#A1D99B" points="198.127,235.87 187.078,272.893 171.465,246.826 	"/>
	<polygon fill="#74C476" points="213.82,249.241 204.351,281.257 187.078,272.893 	"/>
	<polygon fill="#238B45" points="225.798,239.425 224.813,261.993 213.82,249.241 	"/>
	<polygon fill="#41AB5D" points="598.063,186.424 595.165,214.421 583.496,208.645 	"/>
	<polygon fill="#238B45" points="627.746,229.725 617.775,225.145 618.723,194.944 	"/>
	<polygon fill="#74C476" points="237.102,250.979 224.813,261.993 225.798,239.425 	"/>
	<polygon fill="#41AB5D" points="614.488,389.001 586.142,393.463 591.652,376.517 591.67,376.517 	"/>
	<polygon fill="#41AB5D" points="694.117,220.084 681.112,244.448 665.866,213.377 	"/>
	<polygon fill="#74C476" points="596.112,230.42 583.496,208.645 595.165,214.421 	"/>
	<polyline fill="#282828" points="596.112,230.42 596.132,230.459 596.112,230.459 	"/>
	<polygon fill="#238B45" points="583.571,225.881 583.032,246.38 568.54,235.521 	"/>
	<polygon fill="#41AB5D" points="568.54,235.521 551.268,235.153 557.313,214.77 	"/>
	<polygon fill="#74C476" points="551.268,235.153 539.284,248.004 537.395,218.729 	"/>
	<polygon fill="#238B45" points="539.284,248.004 537.488,264.446 518.532,260.506 	"/>
	<polygon fill="#41AB5D" points="552,286.512 526.979,287.229 542.686,277.201 542.882,277.702 	"/>
	<polygon fill="#74C476" points="578.318,285.276 572.442,308.714 566.491,289.45 	"/>
	<polygon fill="#238B45" points="592.73,293.489 572.442,308.714 578.318,285.276 	"/>
	<polygon fill="#74C476" points="597.426,252.409 583.032,246.38 596.112,230.477 	"/>
	<polygon fill="#41AB5D" points="596.112,230.459 596.112,230.477 583.032,246.38 583.571,225.881 	"/>
	<line fill="#282828" x1="596.132" y1="230.459" x2="596.112" y2="230.477"/>
	<polygon fill="#74C476" points="594.588,277.201 578.318,285.276 580.462,267.598 	"/>
	<polygon fill="#74C476" points="364.726,349.332 353.56,370.875 333.812,343.225 	"/>
	<polygon fill="#74C476" points="317.696,244.97 302.449,257.782 302.586,232.951 	"/>
	<polygon fill="#74C476" points="302.449,257.782 272.096,273.798 278.761,257.782 	"/>
	<polygon fill="#41AB5D" points="302.449,257.782 297.002,268.988 272.096,273.798 	"/>
	<polygon fill="#74C476" points="337.638,272.987 317.078,255.946 329.501,242.902 	"/>
	<polygon fill="#238B45" points="318.7,273.549 297.042,269.471 297.002,268.988 317.078,255.946 	"/>
	<polygon fill="#41AB5D" points="337.638,272.987 318.7,273.549 317.078,255.946 	"/>
	<polygon fill="#74C476" points="339.607,284.137 318.7,273.549 337.638,272.987 	"/>
	<polygon fill="#74C476" points="382.947,268.988 364.726,291.015 357.208,280.041 	"/>
	<polygon fill="#74C476" points="388.396,257.782 382.947,268.988 368.398,253.026 	"/>
	<polygon fill="#41AB5D" points="403.643,244.97 388.396,257.782 387.739,233.743 	"/>
	<polygon fill="#238B45" points="415.447,242.902 403.643,244.97 411.663,221.707 	"/>
	<polygon fill="#238B45" points="404.956,273.509 382.947,268.988 403.023,255.946 403.314,255.655 	"/>
	<polyline fill="#282828" points="404.975,273.664 404.665,273.723 404.993,273.878 	"/>
	<polygon fill="#41AB5D" points="433.012,285.528 417.169,298.589 424.897,282.688 	"/>
	<polygon fill="#238B45" points="442.925,280.427 433.012,301.103 433.012,285.528 	"/>
	<polygon fill="#41AB5D" points="470.422,276.775 460.7,296.851 442.925,280.427 	"/>
	<polygon fill="#238B45" points="478.517,260.099 451.466,246.09 472.796,240.082 472.876,239.984 	"/>
	<polygon fill="#238B45" points="472.796,240.082 455.757,219.33 471.347,215.426 472.758,239.58 472.777,239.656 	"/>
	<polyline fill="#282828" points="472.876,239.984 472.837,239.85 472.837,239.829 472.777,239.656 	"/>
	<line fill="#282828" x1="473.434" y1="239.271" x2="472.876" y2="239.522"/>
</g>
</svg>
