<?xml version="1.0" encoding="utf-8"?>
<!-- Generator: Adobe Illustrator 16.0.0, SVG Export Plug-In . SVG Version: 6.00 Build 0)  -->
<!DOCTYPE svg PUBLIC "-//W3C//DTD SVG 1.1//EN" "http://www.w3.org/Graphics/SVG/1.1/DTD/svg11.dtd">
<svg version="1.1" id="Layer_1" xmlns="http://www.w3.org/2000/svg" xmlns:xlink="http://www.w3.org/1999/xlink" x="0px" y="0px"
	 width="3403px" height="446.825px" viewBox="0 0 3403 446.825" enable-background="new 0 0 3403 446.825" xml:space="preserve">
<g>
	<g>
		<path fill="#010101" d="M1295.576,146.207c-2.453-4.492-6.436-7.249-11.949-8.27c-1.221-0.205-2.553-0.307-3.979-0.307
			c-4.088,0-7.861,1.226-11.336,3.676c-4.133,2.859-6.686,6.635-7.658,11.333c-0.607,1.837-0.916,3.572-0.916,5.208
			c0,3.469,1.021,6.431,3.061,8.88c2.658,3.676,6.436,5.923,11.336,6.738c1.426,0.205,2.758,0.307,3.979,0.307
			c3.475,0,6.74-0.917,9.807-2.756c4.438-2.451,7.551-6.533,9.188-12.251c0.408-1.428,0.613-2.961,0.613-4.594
			C1297.721,151.516,1296.953,148.862,1295.576,146.207z"/>
		<path fill="#010101" d="M1570.877,241.771c-2.91-5.155-4.9-10.21-6.021-15.11c-0.563,3.365-1.227,6.535-1.889,9.597
			c-1.84,9.801-4.088,18.479-6.74,26.033c-8.369,14.297-17.662,21.44-27.871,21.44c-9.801,0-16.592-2.961-20.217-8.829
			c-3.674-4.496-6.227-9.955-7.656-16.44c-1.227-5.305-2.045-10.768-2.453-16.485c11.133-0.818,20.066-3.321,26.701-7.608
			c8.115-5.459,12.148-13.477,12.148-24.043c0-8.524-3.369-15.825-10.055-21.95c-6.74-6.279-14.553-9.395-23.281-9.395
			c-10.619,0-19.193,4.237-25.777,12.814c-5.105,6.329-8.422,14.497-10.006,24.605l-0.049,0.052
			c-0.818,4.746-1.229,9.903-1.229,15.519v0.458c0,18.326,5.006,33.59,15.111,45.789c8.064,10.21,22.104,15.828,42.113,16.846
			c16.541-0.658,28.895-6.99,37.115-18.989c5.051-7.961,8.934-17.762,11.635-29.403c0.105-0.514,0.26-1.021,0.359-1.58
			C1572.105,243.914,1571.441,242.842,1570.877,241.771z M1500.434,202.257c2.242-6.737,5.865-10.106,10.922-10.106
			c3.623,0,6.943,2.143,9.955,6.433c2.855,4.083,4.287,7.961,4.287,11.638c0,7.146-3.061,12.353-9.137,15.621
			c-4.648,2.654-10.875,4.288-18.734,4.901C1497.727,217.674,1498.592,208.18,1500.434,202.257z"/>
		<path fill="#010101" d="M1457.859,222.779c-0.973,0.204-2.045,0.307-3.066,0.307c-2.039,0-4.393-0.307-6.994-0.919
			c-1.686-0.205-3.625-0.611-5.818-1.224c-1.275-0.614-2.961-1.227-5.209-1.837c-0.813-18.174-1.221-36.45-1.221-54.827v-16.845
			l0.254-2.757v-3.37c0-2.45,0.154-4.9,0.305-7.35c0.408-6.738,0.922-12.762,1.584-18.072c1.58-14.905,4.133-23.892,7.658-26.953
			c0.967-0.613,1.988-0.919,3.01-0.919c0.615,0,1.277-0.103,1.84-0.307c2.857,1.633,4.287,5.411,4.287,11.334
			c0,2.245-0.258,4.696-0.922,7.351c-0.408,1.02-0.559,2.246-0.559,3.674c0,1.022,0.15,2.041,0.559,3.064
			c0.664,2.45,1.586,4.185,2.813,5.207c0.762,0.614,1.58,0.919,2.398,0.919c0.816,0,1.529-0.306,2.143-0.919
			c1.48-1.021,2.447-2.654,3.115-4.9c1.223-4.697,1.785-9.494,1.785-14.395c0-7.964-1.635-15.01-4.9-21.135
			c-3.469-6.126-7.658-9.19-12.559-9.19c-4.236,0-8.115,1.431-11.59,4.29c-6.988,5.514-12.502,16.437-16.535,32.772
			c-1.635,6.328-2.963,13.477-4.033,21.441c-0.818,6.124-1.637,12.964-2.404,20.521c-2.037,21.438-3.215,43.49-3.363,66.158h-0.359
			c-8.525,0.61-15.879,4.083-22.055,10.414c-1.227,1.224-1.785,2.553-1.785,3.981c0.154,1.633,0.818,3.063,1.785,4.285
			c1.227,1.027,2.553,1.535,3.984,1.535c1.684,0,3.113-0.613,4.336-1.84c4.033-4.082,8.729-6.431,14.094-7.043l0.148,8.165
			c-5,24.966-10.26,46.711-15.822,65.347c-0.818,3.878-1.635,7.757-2.398,11.635c-1.227,5.514-2.451,10.518-3.68,15.01
			c-3.469,12.249-6.684,18.38-9.49,18.38c-3.68,0-6.641-8.784-8.885-26.342c-0.818-6.131-1.529-13.17-2.143-21.137
			c-0.205-3.061-0.311-6.331-0.311-9.801c-0.254-2.452-0.408-4.9-0.607-7.348c-0.613-5.923-0.973-12.763-0.973-20.524
			c0-9.188,0.41-19.806,1.277-31.852c0.816-11.436,2.553-30.121,5.205-56.051c1.84-0.205,3.678-0.307,5.514-0.307h1.176
			c5.768,0.407,10.871,2.859,15.314,7.351c1.072,1.224,2.143,1.837,3.42,1.837c1.021,0,2.143-0.614,3.369-1.837
			c1.227-1.021,1.836-2.144,1.836-3.37c0-1.021-0.609-2.144-1.836-3.369c-6.535-6.738-14.447-10.108-23.584-10.108
			c-1.48,0-2.758,0.103-4.033,0.307c0.408-4.492,1.734-12.762,4.033-24.809v-1.226c0-1.224-0.564-2.247-1.531-3.062
			c-0.408-0.409-1.021-0.919-1.838-1.533c-0.664-0.204-1.227-0.511-1.84-0.917c-2.449-1.021-4.797-1.84-7.045-2.45
			c-1.426-0.204-2.756-0.307-3.979-0.307c-2.453,0-4.596,0.508-6.436,1.531c-2.652,1.431-4.387,3.778-5.205,7.043v0.307
			c-0.408,1.431-0.768,2.654-0.918,3.677c-0.408,1.633-0.768,3.166-0.92,4.594c-0.615,3.472-1.229,6.737-1.836,9.801
			c-0.613,2.247-1.635,7.351-3.115,15.314c-2.857,0.613-5.465,0.92-7.912,0.92c-1.021,0-2.143-0.102-3.369-0.307
			c-4.492-0.818-8.475-3.677-11.945-8.577c-1.021-1.633-2.248-2.45-3.678-2.45c-0.813,0-1.736,0.306-2.754,0.919
			c-1.635,1.224-2.451,2.552-2.451,3.98c0,0.818,0.303,1.737,0.918,2.757c6.076,8.782,13.988,13.171,23.533,13.171
			c2.096,0,4.133-0.205,6.178-0.614c-1.988,13.019-3.525,25.577-4.596,37.623c0,0.205,0,0.458-0.051,0.663
			c-3.061,23.996-7.045,41.963-11.895,53.907c-1.631,4.088-6.127,6.641-13.475,7.658c-3.674-0.205-6.281-1.481-7.658-3.829
			c-1.43-2.348-2.453-5.514-3.064-9.492c-0.609-3.988-0.918-6.181-0.918-6.59l-0.916-9.801l-1.229-9.801
			c-0.816-7.348-1.84-13.781-3.061-19.295c-0.613-2.654-1.381-5.002-2.145-7.043c-0.816-2.656-1.789-5.106-2.756-7.352
			c-2.656-5.309-6.127-8.577-10.414-9.801c-1.021-0.409-2.297-0.613-3.678-0.613c-1.836,0-3.879,0.613-6.123,1.837
			c-1.84,1.227-3.523,2.655-4.9,4.29c-3.678,4.083-5.514,8.779-5.514,14.088v2.757c0,0.612,0.15,1.326,0.613,2.143
			c0.199,0.356,0.354,0.766,0.559,1.174c-3.52,25.272-7.707,45.178-12.508,59.779c-3.674,11.436-7.553,17.149-11.635,17.149
			c-3.475,0-6.438-4.597-8.885-13.778c-3.469-12.05-6.227-27.568-8.27-46.562c-1.432-15.517-0.713-34.301,2.145-56.355v-3.98
			c3.059-4.695,5.92-9.903,8.572-15.621c8.58-16.541,14.398-33.284,17.459-50.23c0.818-3.268,1.381-6.434,1.84-9.497
			c0.203-2.859,0.309-5.616,0.309-8.268v-2.453c-0.203-8.574-2.453-14.394-6.74-17.458c-1.84-1.428-3.982-2.144-6.43-2.144
			c-15.928,0-28.078,19.806-36.453,59.42c-2.855,14.498-5.104,30.527-6.734,48.088c-0.816,6.942-1.432,13.784-1.84,20.521
			c-0.203,5.718-0.408,10.107-0.613,13.17v23.281c0.205,3.878,0.41,7.348,0.613,10.409c0.205,4.286,0.51,8.375,0.918,12.253
			c1.227,10.21,2.91,18.988,5.209,26.342c6.127,20.828,16.641,31.237,31.547,31.237c7.148,0,13.475-3.47,18.988-10.409
			c4.293-5.314,7.967-12.458,11.027-21.442c2.807-8.678,5.414-18.988,7.811-30.933c0.051,0.509,0.102,1.017,0.156,1.525l0.303,3.066
			l0.311,2.757c1.016,5.514,2.143,10.005,3.365,13.48c1.633,4.487,4.49,9.034,8.578,13.63c4.084,4.591,13.58,6.99,28.486,7.198
			c11.381-0.817,20.061-6.231,25.877-16.237c1.021-1.789,1.994-3.574,2.861-5.408c3.217,68.147,14.752,102.195,34.662,102.195
			c6.432,0,12.305-5.613,17.713-16.795c2.807,1.79,5.973,2.708,9.496,2.708c6.178,0,11.691-1.431,16.537-4.288
			c6.738-4.288,11.949-11.336,15.672-21.137c2.807-7.199,4.852-15.923,6.078-26.342c1.221-10.619,1.885-22.663,1.885-36.143
			c0-8.575-0.305-20.52-0.969-35.834l-0.611-7.348c6.943,2.243,12.762,3.369,17.457,3.369c1.84,0,3.574-0.104,5.209-0.309
			c2.293-0.408,4.438-1.126,6.48-2.144c0-5.616,0.41-10.773,1.229-15.519C1464.799,219.972,1461.533,222.064,1457.859,222.779z
			 M1225.738,113.435c0-1.022,0.105-1.94,0.311-2.756c0.205-1.225,0.508-2.451,0.916-3.678c0.613-2.652,1.123-5.204,1.531-7.656
			c2.248-5.921,4.596-9.494,7.043-10.719h0.309c0.205,0.815,0.305,2.144,0.305,3.981c0,2.246-0.1,4.798-0.305,7.657
			c-0.203,2.042-0.512,4.186-0.92,6.434c-0.406,1.632-0.715,3.06-0.918,4.287c-2.652,11.638-6.637,23.482-11.945,35.53
			C1222.678,133.649,1223.904,122.622,1225.738,113.435z M1410.994,281.891c0,12.458-0.305,23.281-0.918,32.469v3.37
			c-0.205,1.63-0.311,3.165-0.311,4.591c-0.402,4.088-0.967,7.762-1.783,11.027c-1.84,9.602-4.393,15.011-7.658,16.232
			c-0.459,0.209-0.916,0.309-1.58,0.309c-0.563,0-1.227,0.205-1.84,0.614c-0.971-0.409-1.785-0.818-2.451-1.222
			c-0.305-0.259-0.609-0.568-0.813-0.817c3.623-10.314,6.988-23.535,10.055-39.617c2.502-9.905,4.9-20.214,7.299-30.833V281.891z"/>
		<path fill="#010101" d="M2209.848,220.635l-0.357,0.307c-0.615,0.612-0.918,1.224-0.918,1.836c-1.023,1.432-2.658,3.677-4.9,6.737
			c-2.045,2.862-4.646,6.282-7.813,10.26c-3.166,3.984-7.094,8.221-11.791,12.713c-4.49,4.905-9.596,9.955-15.313,15.165
			c-5.719,5.205-12.459,10.359-20.166,15.464c-3.729,2.651-7.607,5.258-11.691,7.812c-4.08,2.552-8.27,5.05-12.557,7.502
			c-4.49,2.453-9.137,4.801-13.938,7.05c-4.797,2.243-9.746,4.386-14.852,6.431c-5.105,2.039-10.314,3.979-15.623,5.818
			c-5.311,1.84-10.824,3.674-16.541,5.514c-5.713,1.431-11.486,2.906-17.303,4.441c-5.818,1.531-11.895,2.806-18.227,3.829
			c-6.123,1.227-12.354,2.348-18.68,3.371c-6.33,1.016-12.762,1.834-19.248,2.447c-12.916,1.432-26.088,2.349-39.563,2.757
			c-27.363,0.818-55.031,0.205-82.953-1.834c-14.342-1.226-28.484-2.762-42.473-4.596c-13.984-1.84-28.127-3.878-42.42-6.126
			c-14.293-2.249-28.385-4.801-42.27-7.658c-1.631-0.409-3.266-0.712-4.9-0.922c-8.166,38.187-18.17,57.28-30.016,57.28
			c-20.418,0-32.059-35.833-34.916-107.51c-0.051-0.608-0.154-1.222-0.205-1.834c-5.209,15.518-11.895,32.872-20.164,52.064
			c-18.275,42.474-36.807,62.076-55.59,58.811c-1.635-0.614-3.115-1.68-4.393-3.215c-1.375-1.531-1.889-4.796-1.58-9.801
			c0.305-5.005,2.193-9.85,5.719-14.547c0.762-1.226,1.68-2.657,2.701-4.287l3.371-4.287c5.514-7.967,8.369-17.972,8.572-30.021
			c0.205-12.044-2.037-21.541-6.732-28.485c-1.637-2.652-3.984-5.818-6.996-9.492l-8.574-9.801
			c-5.922-7.198-10.469-13.48-13.734-18.734c-0.711-1.177-1.375-2.248-1.939-3.32c-2.91-5.155-4.9-10.21-6.021-15.11
			c-0.668-3.116-1.021-6.127-1.021-9.088c0-12.66,5.514-21.745,16.541-27.259c7.756-3.88,17.662-5.82,29.707-5.82h2.756
			c3.115,0,4.598,1.533,4.598,4.595v0.307c-0.156,3.063-1.736,4.593-4.598,4.593h-1.834c-14.094,0-21.139,4.085-21.139,12.253
			c0,5.105,2.35,11.332,7.045,18.683c1.635,2.859,3.982,6.329,7.1,10.417l3.928,5.514l4.287,5.817
			c14.756,20.215,22.055,36.546,22.055,49.009c0.205,8.365-0.305,17.867-1.529,28.48c18.684-32.209,31.086-62.584,37.264-91.069
			c0,0,0,0,0-0.049c0.816-16.95,2.707-34.97,5.613-54.063c-2.039,0.409-4.084,0.614-6.123,0.614c-9.6,0-17.463-4.39-23.584-13.171
			c-0.563-1.02-0.922-1.938-0.922-2.757c0-1.428,0.816-2.757,2.453-3.98c1.021-0.613,1.988-0.919,2.756-0.919
			c1.48,0,2.707,0.817,3.674,2.45c3.469,4.9,7.504,7.759,11.945,8.577c1.225,0.205,2.402,0.307,3.369,0.307
			c2.502,0,5.105-0.307,7.967-0.92c1.426-7.963,2.447-13.068,3.061-15.314c0.613-3.063,1.277-6.329,1.84-9.801
			c0.205-1.428,0.508-2.96,0.916-4.594c0.205-1.022,0.51-2.246,0.918-3.677v-0.307c0.818-3.265,2.553-5.613,5.26-7.043
			c1.785-1.022,3.928-1.531,6.381-1.531c1.277,0,2.553,0.103,3.982,0.307c2.244,0.61,4.592,1.429,7.094,2.45
			c0.564,0.406,1.178,0.713,1.785,0.917c0.818,0.614,1.432,1.124,1.84,1.533c1.023,0.814,1.531,1.837,1.531,3.062v1.226
			c-2.244,12.047-3.574,20.317-3.979,24.809c1.221-0.205,2.553-0.307,3.979-0.307c9.188,0,17.049,3.371,23.584,10.108
			c1.227,1.226,1.889,2.348,1.889,3.369c0,1.227-0.662,2.349-1.889,3.37c-1.227,1.224-2.348,1.837-3.369,1.837
			c-1.223,0-2.35-0.614-3.371-1.837c-4.49-4.492-9.596-6.944-15.314-7.351h-1.172c-1.889,0-3.729,0.102-5.514,0.307
			c-2.705,25.93-4.441,44.615-5.258,56.051c-0.818,12.046-1.223,22.665-1.223,31.852c0,7.762,0.305,14.602,0.918,20.524l0.613,7.348
			c0,3.471,0.1,6.741,0.305,9.801c0.613,7.966,1.326,15.005,2.143,21.137c2.248,17.558,5.209,26.342,8.883,26.342
			c2.857,0,6.023-6.131,9.498-18.38c1.221-4.492,2.447-9.496,3.674-15.01l1.275-6.122c5.055,1.017,10.055,2.144,14.957,3.37
			c13.889,2.857,27.871,5.513,41.965,7.961c28.381,4.696,56.357,8.066,83.92,10.105c13.885,1.021,27.619,1.584,41.248,1.685
			c13.529,0.104,26.955-0.149,40.225-0.768c13.275-0.608,26.139-1.735,38.596-3.365c6.326-0.818,12.607-1.741,18.68-2.757
			c6.127-1.022,12.154-2.244,18.07-3.679c5.719-1.222,11.387-2.603,17-4.133c5.619-1.53,11.078-3.116,16.387-4.746
			c5.514-1.84,10.723-3.725,15.672-5.668c4.852-1.939,9.752-3.928,14.652-5.972c4.697-2.044,9.238-4.288,13.631-6.74
			c4.391-2.448,8.627-4.796,12.711-7.039c7.756-4.905,15.006-9.906,21.744-15.011c6.537-5.104,12.354-10.209,17.459-15.314
			c2.861-2.448,5.359-4.9,7.504-7.354c2.143-2.452,4.188-4.695,5.973-6.739c2.043-2.448,3.881-4.697,5.512-6.735
			c1.637-2.039,3.066-3.983,4.293-5.82c1.426-1.837,2.652-3.522,3.725-5.052c0.971-1.533,1.889-3.014,2.705-4.442
			c0.818-1.635,1.582-2.859,2.299-3.676c0.713-0.815,1.277-1.735,1.68-2.757c0.205-0.409,0.514-0.815,0.973-1.224v-0.613
			l0.254-0.307c0.205-0.408,0.311-0.715,0.311-0.919c2.039-2.857,4.695-4.594,7.961-5.205c3.266-0.614,6.33,0.1,9.188,2.144
			c2.861,2.041,4.596,4.696,5.26,7.963C2212.555,214.713,2211.838,217.776,2209.848,220.635z"/>
	</g>
</g>
</svg>
