<?xml version="1.0" encoding="utf-8"?>
<!-- Generator: Adobe Illustrator 16.0.0, SVG Export Plug-In . SVG Version: 6.00 Build 0)  -->
<!DOCTYPE svg PUBLIC "-//W3C//DTD SVG 1.1//EN" "http://www.w3.org/Graphics/SVG/1.1/DTD/svg11.dtd">
<svg version="1.1" id="Layer_1" xmlns="http://www.w3.org/2000/svg" xmlns:xlink="http://www.w3.org/1999/xlink" x="0px" y="0px"
	 width="612px" height="792px" viewBox="0 0 612 792" enable-background="new 0 0 612 792" xml:space="preserve">
<g>
	<polygon class="gon" fill-rule="evenodd" clip-rule="evenodd" fill="#41B6C4" points="450.397,438.752 341.321,490.775 336.055,402.83 
		335.322,390.833 356.143,399.503 424.965,428.146 	"/>
	<polygon class="gon" fill-rule="evenodd" clip-rule="evenodd" fill="#3A7ABA" points="417.224,630.045 215.79,629.816 283.259,568.193 	"/>
	<polygon class="gon" fill-rule="evenodd" clip-rule="evenodd" fill="#80CDBB" points="215.443,629.816 192.605,629.777 194.733,577.443 	"/>
	<polygon class="gon" fill-rule="evenodd" clip-rule="evenodd" fill="#1F91C0" points="362.26,134.238 310.971,13.276 325.027,13.276 	"/>
	<polygon class="gon" fill-rule="evenodd" clip-rule="evenodd" fill="#41B6C4" points="399.963,237.396 311.05,159.747 311.05,158.393 
		362.26,134.238 	"/>
	<polygon class="gon" fill-rule="evenodd" clip-rule="evenodd" fill="#41B6C4" points="416.609,286.09 311.127,270.528 311.127,269.755 
		399.963,237.396 	"/>
	<polygon class="gon" fill-rule="evenodd" clip-rule="evenodd" fill="#41B6C4" points="475.173,379.764 392.258,379.49 416.609,286.09 	"/>
	<polygon class="gon" fill="#3A7ABA" points="416.609,286.09 311.164,341.558 311.127,270.528 	"/>
	<polygon class="gon" fill-rule="evenodd" clip-rule="evenodd" fill="#3A7ABA" points="362.26,134.238 311.05,158.393 310.971,13.276 	"/>
	<polygon class="gon" fill-rule="evenodd" clip-rule="evenodd" fill="#1F91C0" points="399.963,237.396 311.127,269.755 311.05,159.747 	"/>
	<polygon class="gon" fill-rule="evenodd" clip-rule="evenodd" fill="#1F91C0" points="278.383,392.459 172.322,467.127 137.563,379.84 	"/>
	<polygon class="gon" fill-rule="evenodd" clip-rule="evenodd" fill="#1F91C0" points="299.594,28.376 275.52,151.115 286.897,12.58 
		299.479,12.699 	"/>
	<polygon class="gon" fill-rule="evenodd" clip-rule="evenodd" fill="#3A7ABA" points="301.878,341.521 254.229,279.818 300.831,198.224 
		300.831,200.354 	"/>
	<polygon class="gon" fill-rule="evenodd" clip-rule="evenodd" fill="#41B6C4" points="254.229,279.818 137.563,379.84 192.18,285.856 	"/>
	<polygon class="gon" fill-rule="evenodd" clip-rule="evenodd" fill="#1F91C0" points="300.831,198.224 254.229,279.818 192.18,285.856 
		299.709,199.112 300.792,198.224 	"/>
	<polygon class="gon" fill-rule="evenodd" clip-rule="evenodd" fill="#41B6C4" points="300.792,198.224 299.709,199.112 192.18,285.856 
		235.688,176.779 255.39,183.67 293.825,196.21 	"/>
	<polygon class="gon" fill-rule="evenodd" clip-rule="evenodd" fill="#1F91C0" points="300.792,198.224 293.825,196.21 255.39,183.67 
		235.688,176.779 235.879,176.277 239.598,164.354 275.52,151.115 	"/>
	<polygon class="gon" fill-rule="evenodd" clip-rule="evenodd" fill="#3A7ABA" points="286.897,12.58 275.52,151.115 239.598,164.354 	"/>
	<polygon class="gon" fill-rule="evenodd" clip-rule="evenodd" fill="#41B6C4" points="300.831,195.206 300.831,198.224 300.792,198.224 
		275.52,151.115 299.594,28.376 	"/>
	<polygon class="gon" fill-rule="evenodd" clip-rule="evenodd" fill="#41B6C4" points="301.878,341.521 300.177,342.72 278.383,357.121 
		254.229,279.818 	"/>
	<polygon class="gon" fill-rule="evenodd" clip-rule="evenodd" fill="#282828" points="301.878,341.521 300.33,342.911 300.177,342.72 	"/>
	<polygon class="gon" fill-rule="evenodd" clip-rule="evenodd" fill="#41B6C4" points="306.367,407.748 194.733,577.443 172.322,467.127 	"/>
	<polygon class="gon" fill-rule="evenodd" clip-rule="evenodd" fill="#41B6C4" points="278.383,357.121 278.383,392.459 137.563,379.84 	"/>
	<polygon class="gon" fill-rule="evenodd" clip-rule="evenodd" fill="#80CDBB" points="278.383,357.121 137.563,379.84 254.229,279.818 	"/>
	<polygon class="gon" fill-rule="evenodd" clip-rule="evenodd" fill="#80CDBB" points="306.367,407.748 172.322,467.127 278.383,392.459 	"/>
	<polygon class="gon" fill-rule="evenodd" clip-rule="evenodd" fill="#1F91C0" points="416.609,286.09 335.322,390.833 335.289,357.121 	"/>
	<polygon class="gon" fill-rule="evenodd" clip-rule="evenodd" fill="#41B6C4" points="416.609,286.09 335.289,357.121 311.164,341.558 	"/>
	<polygon class="gon" fill-rule="evenodd" clip-rule="evenodd" fill="#80CDBB" points="416.609,286.09 392.258,379.49 335.322,390.833 	"/>
	<polygon class="gon" fill-rule="evenodd" clip-rule="evenodd" fill="#3A7ABA" points="450.397,438.752 424.965,428.146 356.143,399.503 
		335.322,390.833 392.258,379.49 404.107,391.532 432.707,420.715 	"/>
	<polygon class="gon" fill-rule="evenodd" clip-rule="evenodd" fill="#3A7ABA" points="341.321,490.775 306.367,407.748 335.322,390.833 
		336.055,402.83 	"/>
	<polygon class="gon" fill-rule="evenodd" clip-rule="evenodd" fill="#1F91C0" points="341.321,490.775 194.733,577.443 306.367,407.748 	"/>
	<polygon class="gon" fill-rule="evenodd" clip-rule="evenodd" fill="#41B6C4" points="421.293,547.096 283.259,568.193 341.321,490.775 	"/>
	<polygon class="gon" fill-rule="evenodd" clip-rule="evenodd" fill="#3A7ABA" points="341.321,490.775 283.259,568.193 194.733,577.443 	"/>
	<polygon class="gon" fill-rule="evenodd" clip-rule="evenodd" fill="#1F91C0" points="283.259,568.193 215.79,629.816 215.443,629.816 
		194.733,577.443 	"/>
	<polygon class="gon" fill-rule="evenodd" clip-rule="evenodd" fill="#282828" points="215.79,629.816 215.52,630.045 215.443,629.816 	"/>
	<polygon class="gon" fill-rule="evenodd" clip-rule="evenodd" fill="#1F91C0" points="421.293,547.096 417.224,630.045 283.259,568.193 	"/>
	<polygon class="gon" fill-rule="evenodd" clip-rule="evenodd" fill="#1F91C0" points="450.397,438.752 421.293,547.096 341.321,490.775 	"/>
	<polygon class="gon" fill-rule="evenodd" clip-rule="evenodd" fill="#1F91C0" points="475.173,379.764 450.397,438.752 432.707,420.715 
		404.107,391.532 392.258,379.49 	"/>
	<polygon class="gon" fill-rule="evenodd" clip-rule="evenodd" fill="#1F91C0" points="210.178,713.813 136.827,779.42 175.535,643.051 	"/>
	<polygon class="gon" fill-rule="evenodd" clip-rule="evenodd" fill="#41B6C4" points="322.544,779.42 136.827,779.42 236.81,743.848 	"/>
	<polygon class="gon" fill-rule="evenodd" clip-rule="evenodd" fill="#41B6C4" points="244.552,677.039 236.81,743.848 210.178,713.813 	"/>
	<polygon class="gon" fill-rule="evenodd" clip-rule="evenodd" fill="#3A7ABA" points="370.817,721.555 236.81,743.848 244.552,677.039 	"/>
	<polygon class="gon" fill-rule="evenodd" clip-rule="evenodd" fill="#1F91C0" points="313.762,643.051 244.552,677.039 175.535,643.051 	"/>
	<polygon class="gon" fill-rule="evenodd" clip-rule="evenodd" fill="#80CDBB" points="434.878,643.051 370.817,721.555 313.762,643.051 	"/>
	<polygon class="gon" fill-rule="evenodd" clip-rule="evenodd" fill="#1F91C0" points="473.587,779.42 421.293,716.25 434.878,643.051 	"/>
	<polygon class="gon" fill-rule="evenodd" clip-rule="evenodd" fill="#41B6C4" points="473.587,779.42 405.188,779.42 413.781,745.746 	"/>
	<polygon class="gon" fill-rule="evenodd" clip-rule="evenodd" fill="#1F91C0" points="405.188,779.42 322.544,779.42 370.817,721.555 	"/>
	<polygon class="gon" fill-rule="evenodd" clip-rule="evenodd" fill="#41B6C4" points="421.293,716.25 413.781,745.746 370.817,721.555 	"/>
	<polygon class="gon" fill-rule="evenodd" clip-rule="evenodd" fill="#80CDBB" points="236.81,743.848 136.827,779.42 210.178,713.813 	"/>
	<polygon class="gon" fill-rule="evenodd" clip-rule="evenodd" fill="#80CDBB" points="244.552,677.039 210.178,713.813 175.535,643.051 	"/>
	<polygon class="gon" fill-rule="evenodd" clip-rule="evenodd" fill="#41B6C4" points="370.817,721.555 322.544,779.42 236.81,743.848 	"/>
	<polygon class="gon" fill-rule="evenodd" clip-rule="evenodd" fill="#41B6C4" points="370.817,721.555 244.552,677.039 313.762,643.051 	"/>
	<polygon class="gon" fill-rule="evenodd" clip-rule="evenodd" fill="#1F91C0" points="434.878,643.051 421.293,716.25 370.817,721.555 	"/>
	<polygon class="gon" fill-rule="evenodd" clip-rule="evenodd" fill="#80CDBB" points="413.781,745.746 405.188,779.42 370.817,721.555 	"/>
	<polygon class="gon" fill-rule="evenodd" clip-rule="evenodd" fill="#3A7ABA" points="473.587,779.42 413.781,745.746 421.293,716.25 	"/>
</g>
</svg>
