<?xml version="1.0" encoding="utf-8"?>
<!-- Generator: Adobe Illustrator 16.0.0, SVG Export Plug-In . SVG Version: 6.00 Build 0)  -->
<!DOCTYPE svg PUBLIC "-//W3C//DTD SVG 1.1//EN" "http://www.w3.org/Graphics/SVG/1.1/DTD/svg11.dtd">
<svg version="1.1" xmlns="http://www.w3.org/2000/svg" xmlns:xlink="http://www.w3.org/1999/xlink" x="0px" y="0px"
	 width="251.333px" height="93.333px" viewBox="0 0 251.333 93.333" enable-background="new 0 0 251.333 93.333"
	 xml:space="preserve">
<g id="Layer_3" display="none">
</g>
<g id="bg">
</g>
<g id="Layer_2">
</g>
<g id="team_page">
</g>
<g id="footer">
</g>
<g id="pronites">
</g>
<g id="main_attractions">
	<g>
		<g>
			<path fill="#FFFFFF" d="M46.149,31.543c-0.48-0.879-1.262-1.42-2.342-1.62c-0.238-0.04-0.5-0.06-0.779-0.06
				c-0.801,0-1.539,0.24-2.221,0.72c-0.809,0.56-1.309,1.3-1.5,2.221c-0.119,0.36-0.18,0.699-0.18,1.02c0,0.68,0.201,1.26,0.6,1.74
				c0.521,0.72,1.262,1.16,2.221,1.32c0.279,0.04,0.541,0.06,0.779,0.06c0.682,0,1.32-0.18,1.922-0.54
				c0.869-0.48,1.479-1.28,1.799-2.4c0.08-0.28,0.121-0.58,0.121-0.9C46.569,32.583,46.419,32.063,46.149,31.543z"/>
			<path fill="#FFFFFF" d="M225.669,44.322c-0.131-0.64-0.471-1.16-1.031-1.56c-0.559-0.4-1.158-0.54-1.799-0.42
				c-0.641,0.12-1.16,0.46-1.561,1.02c0,0.04-0.02,0.1-0.061,0.18l-0.049,0.06v0.12c-0.09,0.08-0.15,0.16-0.189,0.24
				c-0.08,0.2-0.191,0.38-0.33,0.54c-0.141,0.16-0.291,0.4-0.451,0.72c-0.16,0.28-0.34,0.57-0.529,0.87
				c-0.211,0.3-0.451,0.63-0.73,0.99c-0.24,0.36-0.52,0.74-0.84,1.14c-0.32,0.4-0.68,0.84-1.08,1.32c-0.35,0.4-0.75,0.84-1.17,1.32
				s-0.91,0.96-1.471,1.44c-1,1-2.139,2-3.42,3c-1.32,1-2.74,1.98-4.26,2.94c-0.799,0.44-1.629,0.9-2.49,1.38
				c-0.859,0.48-1.75,0.92-2.67,1.32c-0.959,0.4-1.92,0.79-2.869,1.17c-0.971,0.38-1.99,0.75-3.07,1.11
				c-1.039,0.32-2.109,0.63-3.211,0.93c-1.1,0.3-2.209,0.57-3.328,0.81c-1.16,0.28-2.342,0.52-3.541,0.72
				c-1.189,0.2-2.42,0.38-3.66,0.54c-2.439,0.32-4.959,0.54-7.561,0.66c-2.6,0.12-5.229,0.17-7.879,0.15
				c-2.67-0.02-5.359-0.13-8.08-0.33c-5.4-0.4-10.881-1.06-16.439-1.98c-2.762-0.48-5.5-1-8.221-1.56
				c-0.961-0.24-1.939-0.46-2.93-0.66l-0.25,1.2c-0.24,1.08-0.48,2.06-0.721,2.94c-0.68,2.4-1.299,3.6-1.859,3.6
				c-0.721,0-1.301-1.72-1.74-5.16c-0.16-1.2-0.301-2.58-0.42-4.14c-0.041-0.6-0.061-1.24-0.061-1.92l-0.119-1.44
				c-0.121-1.16-0.18-2.5-0.18-4.02c0-1.8,0.08-3.88,0.238-6.24c0.16-2.24,0.5-5.9,1.031-10.98c0.35-0.04,0.709-0.06,1.08-0.06h0.23
				c1.119,0.08,2.119,0.56,3,1.44c0.199,0.24,0.42,0.36,0.658,0.36c0.201,0,0.422-0.12,0.66-0.36c0.24-0.2,0.371-0.42,0.371-0.66
				c0-0.2-0.131-0.42-0.371-0.66c-1.279-1.32-2.818-1.98-4.619-1.98c-0.279,0-0.541,0.02-0.779,0.06c0.08-0.88,0.34-2.5,0.779-4.86
				v-0.24c0-0.24-0.1-0.44-0.301-0.6c-0.08-0.08-0.199-0.18-0.359-0.3c-0.119-0.04-0.24-0.1-0.35-0.18
				c-0.49-0.2-0.951-0.36-1.391-0.48c-0.279-0.04-0.529-0.06-0.779-0.06c-0.48,0-0.9,0.1-1.25,0.3
				c-0.531,0.28-0.871,0.74-1.031,1.38v0.06c-0.08,0.28-0.139,0.52-0.18,0.72c-0.08,0.32-0.139,0.62-0.18,0.9
				c-0.109,0.68-0.24,1.32-0.359,1.92c-0.121,0.44-0.32,1.44-0.6,3c-0.561,0.12-1.07,0.18-1.561,0.18c-0.189,0-0.42-0.02-0.66-0.06
				c-0.869-0.16-1.66-0.72-2.34-1.68c-0.189-0.32-0.43-0.48-0.721-0.48c-0.15,0-0.34,0.06-0.539,0.18c-0.32,0.24-0.48,0.5-0.48,0.78
				c0,0.16,0.07,0.34,0.18,0.54c1.201,1.72,2.74,2.58,4.621,2.58c0.398,0,0.799-0.04,1.199-0.12c-0.57,3.74-0.939,7.27-1.1,10.59
				c0,0.01,0,0.01,0,0.01c-1.211,5.58-3.641,11.53-7.301,17.84c0.24-2.08,0.34-3.94,0.301-5.58c0-2.44-1.43-5.64-4.32-9.6
				l-0.84-1.14l-0.77-1.08c-0.611-0.8-1.07-1.48-1.391-2.04c-0.92-1.44-1.381-2.66-1.381-3.66c0-1.6,1.381-2.4,4.141-2.4h0.359
				c0.561,0,0.871-0.3,0.9-0.9v-0.06c0-0.6-0.289-0.9-0.9-0.9h-0.539c-2.359,0-4.301,0.38-5.82,1.14c-2.16,1.08-3.24,2.86-3.24,5.34
				c0,0.58,0.07,1.17,0.201,1.78c-0.111,0.66-0.24,1.28-0.371,1.88c-0.359,1.92-0.799,3.62-1.32,5.1c-1.639,2.8-3.459,4.2-5.459,4.2
				c-1.92,0-3.25-0.58-3.961-1.73c-0.719-0.88-1.219-1.95-1.5-3.22c-0.24-1.04-0.4-2.11-0.479-3.23c2.18-0.16,3.93-0.65,5.229-1.49
				c1.59-1.07,2.381-2.64,2.381-4.71c0-1.67-0.66-3.1-1.971-4.3c-1.32-1.23-2.85-1.84-4.561-1.84c-2.078,0-3.76,0.83-5.049,2.51
				c-1,1.24-1.65,2.84-1.961,4.82l-0.01,0.01c-0.57,0.69-1.209,1.1-1.93,1.24c-0.189,0.04-0.4,0.06-0.6,0.06
				c-0.4,0-0.859-0.06-1.371-0.18c-0.33-0.04-0.709-0.12-1.139-0.24c-0.25-0.12-0.58-0.24-1.02-0.36
				c-0.16-3.56-0.24-7.14-0.24-10.74v-3.3l0.049-0.54v-0.66c0-0.48,0.031-0.96,0.061-1.44c0.08-1.32,0.18-2.5,0.311-3.54
				c0.309-2.92,0.809-4.68,1.5-5.28c0.189-0.12,0.389-0.18,0.59-0.18c0.119,0,0.25-0.02,0.359-0.06c0.561,0.32,0.84,1.06,0.84,2.22
				c0,0.44-0.049,0.92-0.18,1.44c-0.08,0.2-0.109,0.44-0.109,0.72c0,0.2,0.029,0.4,0.109,0.6c0.131,0.48,0.311,0.82,0.551,1.02
				c0.148,0.12,0.309,0.18,0.469,0.18s0.301-0.06,0.42-0.18c0.291-0.2,0.48-0.52,0.611-0.96c0.238-0.92,0.35-1.86,0.35-2.82
				c0-1.56-0.32-2.94-0.961-4.14c-0.68-1.2-1.5-1.8-2.459-1.8c-0.83,0-1.59,0.28-2.27,0.84c-1.371,1.08-2.451,3.22-3.24,6.42
				c-0.32,1.24-0.58,2.64-0.791,4.2c-0.16,1.2-0.32,2.54-0.469,4.02c-0.4,4.2-0.631,8.52-0.66,12.96h-0.07
				c-1.67,0.12-3.111,0.8-4.32,2.04c-0.24,0.24-0.35,0.5-0.35,0.78c0.029,0.32,0.16,0.6,0.35,0.84c0.24,0.2,0.5,0.3,0.779,0.3
				c0.33,0,0.611-0.12,0.85-0.36c0.791-0.8,1.711-1.26,2.762-1.38l0.029,1.6c-0.98,4.89-2.01,9.15-3.1,12.8
				c-0.16,0.76-0.32,1.52-0.471,2.28c-0.24,1.08-0.48,2.06-0.721,2.94c-0.68,2.4-1.309,3.6-1.859,3.6c-0.719,0-1.299-1.72-1.74-5.16
				c-0.16-1.2-0.299-2.58-0.42-4.14c-0.039-0.6-0.059-1.24-0.059-1.92c-0.051-0.48-0.08-0.96-0.121-1.44
				c-0.119-1.16-0.189-2.5-0.189-4.02c0-1.8,0.08-3.88,0.25-6.24c0.16-2.24,0.5-5.9,1.02-10.98c0.359-0.04,0.721-0.06,1.08-0.06
				h0.23c1.129,0.08,2.129,0.56,3,1.44c0.209,0.24,0.42,0.36,0.67,0.36c0.199,0,0.42-0.12,0.66-0.36c0.24-0.2,0.359-0.42,0.359-0.66
				c0-0.2-0.119-0.42-0.359-0.66c-1.281-1.32-2.83-1.98-4.621-1.98c-0.289,0-0.539,0.02-0.789,0.06c0.08-0.88,0.34-2.5,0.789-4.86
				v-0.24c0-0.24-0.109-0.44-0.299-0.6c-0.08-0.08-0.201-0.18-0.361-0.3c-0.129-0.04-0.24-0.1-0.359-0.18
				c-0.48-0.2-0.939-0.36-1.381-0.48c-0.279-0.04-0.539-0.06-0.779-0.06c-0.48,0-0.9,0.1-1.26,0.3c-0.52,0.28-0.859,0.74-1.02,1.38
				v0.06c-0.08,0.28-0.15,0.52-0.18,0.72c-0.08,0.32-0.15,0.62-0.182,0.9c-0.119,0.68-0.238,1.32-0.359,1.92
				c-0.119,0.44-0.32,1.44-0.609,3c-0.561,0.12-1.07,0.18-1.551,0.18c-0.199,0-0.42-0.02-0.66-0.06c-0.879-0.16-1.66-0.72-2.34-1.68
				c-0.199-0.32-0.439-0.48-0.719-0.48c-0.16,0-0.342,0.06-0.541,0.18c-0.32,0.24-0.48,0.5-0.48,0.78c0,0.16,0.061,0.34,0.18,0.54
				c1.191,1.72,2.74,2.58,4.611,2.58c0.41,0,0.811-0.04,1.209-0.12c-0.389,2.55-0.689,5.01-0.898,7.37c0,0.04,0,0.09-0.012,0.13
				c-0.6,4.7-1.379,8.22-2.33,10.56c-0.318,0.8-1.199,1.3-2.639,1.5c-0.721-0.04-1.23-0.29-1.5-0.75c-0.281-0.46-0.48-1.08-0.6-1.86
				c-0.121-0.78-0.182-1.21-0.182-1.29l-0.18-1.92l-0.24-1.92c-0.16-1.44-0.359-2.7-0.6-3.78c-0.119-0.52-0.27-0.98-0.42-1.38
				c-0.16-0.52-0.35-1-0.539-1.44c-0.521-1.04-1.201-1.68-2.041-1.92c-0.199-0.08-0.449-0.12-0.719-0.12
				c-0.361,0-0.762,0.12-1.201,0.36c-0.359,0.24-0.689,0.52-0.959,0.84c-0.721,0.8-1.08,1.72-1.08,2.76v0.54
				c0,0.12,0.029,0.26,0.119,0.42c0.041,0.07,0.07,0.15,0.109,0.23c-0.689,4.95-1.51,8.85-2.449,11.71
				c-0.721,2.24-1.48,3.36-2.279,3.36c-0.682,0-1.26-0.9-1.74-2.7c-0.68-2.36-1.221-5.4-1.621-9.12
				c-0.279-3.04-0.139-6.72,0.42-11.04v-0.78c0.602-0.92,1.16-1.94,1.682-3.06c1.68-3.24,2.818-6.52,3.42-9.84
				c0.158-0.64,0.27-1.26,0.359-1.86c0.039-0.56,0.061-1.1,0.061-1.62v-0.48c-0.041-1.68-0.48-2.82-1.32-3.42
				c-0.361-0.28-0.781-0.42-1.26-0.42c-3.121,0-5.5,3.88-7.141,11.64c-0.561,2.84-1,5.98-1.32,9.42c-0.16,1.36-0.279,2.7-0.359,4.02
				c-0.041,1.12-0.08,1.98-0.121,2.58v4.56c0.041,0.76,0.08,1.44,0.121,2.04c0.039,0.84,0.1,1.64,0.18,2.4
				c0.24,2,0.57,3.72,1.02,5.16c1.201,4.08,3.26,6.12,6.18,6.12c1.4,0,2.641-0.68,3.721-2.04c0.84-1.04,1.561-2.44,2.16-4.2
				c0.551-1.7,1.061-3.72,1.529-6.06c0.01,0.1,0.021,0.2,0.031,0.3l0.059,0.6l0.061,0.54c0.199,1.08,0.42,1.96,0.66,2.64
				c0.32,0.88,0.881,1.77,1.68,2.67c0.801,0.9,2.66,1.37,5.58,1.41c2.23-0.16,3.93-1.22,5.07-3.18c0.199-0.35,0.391-0.7,0.561-1.06
				c0.629,13.35,2.889,20.02,6.789,20.02c1.26,0,2.41-1.1,3.471-3.29c0.549,0.35,1.17,0.53,1.859,0.53c1.211,0,2.291-0.28,3.24-0.84
				c1.32-0.84,2.34-2.22,3.07-4.14c0.549-1.41,0.949-3.12,1.189-5.16c0.24-2.08,0.371-4.44,0.371-7.08c0-1.68-0.061-4.02-0.191-7.02
				l-0.119-1.44c1.359,0.44,2.5,0.66,3.42,0.66c0.359,0,0.699-0.02,1.02-0.06c0.451-0.08,0.871-0.22,1.27-0.42v0.09
				c0,3.59,0.98,6.58,2.961,8.97c1.58,2,4.33,3.1,8.25,3.3c3.24-0.13,5.66-1.37,7.27-3.72c0.99-1.56,1.75-3.48,2.279-5.76
				c0.021-0.1,0.051-0.2,0.07-0.31c0.641,1.03,1.531,2.26,2.691,3.67l1.68,1.92c0.59,0.72,1.049,1.34,1.369,1.86
				c0.92,1.36,1.361,3.22,1.32,5.58c-0.039,2.36-0.6,4.32-1.68,5.88l-0.66,0.84c-0.199,0.32-0.381,0.6-0.529,0.84
				c-0.691,0.92-1.061,1.87-1.121,2.85s0.041,1.62,0.311,1.92c0.25,0.3,0.539,0.51,0.859,0.63c3.68,0.64,7.311-3.2,10.891-11.52
				c1.619-3.76,2.93-7.16,3.949-10.2c0.01,0.12,0.031,0.24,0.041,0.36c0.559,14.04,2.84,21.06,6.84,21.06
				c2.32,0,4.279-3.74,5.879-11.22c0.32,0.04,0.641,0.1,0.961,0.18c2.721,0.56,5.48,1.06,8.279,1.5c2.801,0.44,5.57,0.84,8.311,1.2
				c2.74,0.36,5.51,0.66,8.32,0.9c5.469,0.4,10.891,0.52,16.25,0.36c2.641-0.08,5.219-0.26,7.75-0.54
				c1.27-0.12,2.529-0.28,3.77-0.48s2.461-0.42,3.66-0.66c1.24-0.2,2.43-0.45,3.57-0.75c1.141-0.3,2.27-0.59,3.391-0.87
				c1.119-0.36,2.199-0.72,3.238-1.08c1.041-0.36,2.061-0.74,3.061-1.14s1.971-0.82,2.91-1.26c0.939-0.44,1.85-0.9,2.73-1.38
				c0.84-0.48,1.66-0.97,2.459-1.47c0.801-0.5,1.561-1.01,2.291-1.53c1.51-1,2.83-2.01,3.949-3.03c1.121-1.02,2.121-2.01,3-2.97
				c0.92-0.88,1.689-1.71,2.311-2.49c0.619-0.78,1.129-1.45,1.529-2.01c0.441-0.6,0.76-1.04,0.961-1.32c0-0.12,0.061-0.24,0.18-0.36
				l0.07-0.06C225.638,45.563,225.778,44.962,225.669,44.322z M32.468,25.123c0-0.2,0.021-0.38,0.061-0.54
				c0.041-0.24,0.1-0.48,0.18-0.72c0.121-0.52,0.221-1.02,0.301-1.5c0.439-1.16,0.9-1.86,1.379-2.1h0.061
				c0.041,0.16,0.061,0.42,0.061,0.78c0,0.44-0.02,0.94-0.061,1.5c-0.039,0.4-0.1,0.82-0.18,1.26c-0.08,0.32-0.141,0.6-0.18,0.84
				c-0.52,2.28-1.301,4.6-2.34,6.96C31.868,29.083,32.108,26.922,32.468,25.123z M68.759,58.123c0,2.44-0.061,4.56-0.18,6.36v0.66
				c-0.041,0.32-0.061,0.62-0.061,0.9c-0.08,0.8-0.189,1.52-0.35,2.16c-0.359,1.88-0.859,2.94-1.5,3.18
				c-0.09,0.04-0.18,0.06-0.311,0.06c-0.109,0-0.24,0.04-0.359,0.12c-0.189-0.08-0.35-0.16-0.48-0.24
				c-0.061-0.05-0.119-0.11-0.16-0.16c0.711-2.02,1.371-4.61,1.971-7.76c0.49-1.94,0.959-3.96,1.43-6.04V58.123z M86.278,42.522
				c0.439-1.32,1.15-1.98,2.141-1.98c0.709,0,1.359,0.42,1.949,1.26c0.561,0.8,0.84,1.56,0.84,2.28c0,1.4-0.6,2.42-1.789,3.06
				c-0.91,0.52-2.131,0.84-3.67,0.96C85.749,45.542,85.919,43.683,86.278,42.522z"/>
		</g>
	</g>
</g>
<g id="about_us">
</g>
<g id="landing">
</g>
</svg>
