<?xml version="1.0" encoding="utf-8"?>
<!-- Generator: Adobe Illustrator 16.0.0, SVG Export Plug-In . SVG Version: 6.00 Build 0)  -->
<!DOCTYPE svg PUBLIC "-//W3C//DTD SVG 1.1//EN" "http://www.w3.org/Graphics/SVG/1.1/DTD/svg11.dtd">
<svg version="1.1" xmlns="http://www.w3.org/2000/svg" xmlns:xlink="http://www.w3.org/1999/xlink" x="0px" y="0px"
	 width="609.333px" height="212.171px" viewBox="0 0 609.333 212.171" enable-background="new 0 0 609.333 212.171"
	 xml:space="preserve">
<g id="Layer_3" display="none">
</g>
<g id="bg">
</g>
<g id="Layer_2">
</g>
<g id="team_page">
</g>
<g id="footer">
</g>
<g id="pronites">
</g>
<g id="main_attractions">
	<path fill="#FFFFFF" d="M147.142,114.696c0.2,0.4,0.2,0.8,0,1.2c-0.4,0.933-0.867,1.666-1.4,2.2c-0.666,0.666-1.434,1-2.299,1
		c-2.268,0-4.234-1.2-5.9-3.6c-1.467-2.134-2.801-5.333-4-9.6c-2.2-7.8-3.301-17.2-3.301-28.2c0-2.6,0.166-5.283,0.5-8.05
		c0.334-2.766,0.566-5.65,0.701-8.65v-0.2c-0.535,3.4-1.268,6.917-2.201,10.55c-0.934,3.634-1.867,7.717-2.799,12.25
		c-0.535,2.067-0.984,3.85-1.351,5.35c-0.367,1.5-0.75,2.917-1.149,4.25c-0.4,1.334-0.885,2.7-1.451,4.1s-1.316,3-2.25,4.8
		c-0.533,1.134-1.117,2.1-1.75,2.9c-0.634,0.8-1.25,1.467-1.85,2c-1.4,1.268-2.734,1.9-4,1.9c-1.6,0-3.135-0.633-4.6-1.9
		c-1.268-1.065-2.467-2.732-3.6-5c-1.068-2.133-1.9-4.7-2.5-7.7c-0.601-3-1.135-6.7-1.601-11.1v-0.1c-0.935-7.4-1.935-15-3-22.8
		c-0.067,0.067-0.101,0.134-0.101,0.2c0,0.067-0.017,0.135-0.049,0.2c-0.035,0.067-0.051,0.134-0.051,0.2
		c-0.534,1.4-1.117,3.067-1.75,5c-0.635,1.934-1.316,4.167-2.05,6.7c-0.734,2.067-1.417,4.05-2.05,5.95
		c-0.635,1.9-1.25,3.717-1.85,5.45c-0.468,1.334-0.885,2.617-1.25,3.85c-0.367,1.234-0.718,2.45-1.051,3.65
		c-0.4,1.667-0.816,3.234-1.25,4.7c-0.434,1.467-0.55,2.967-0.35,4.5c0.199,1.467,0.5,2.685,0.9,3.65
		c0.399,0.967,0.832,1.85,1.299,2.65c0.266,0.535,0.467,1.1,0.601,1.7c0.133,0.6,0.116,1.1-0.05,1.5
		c-0.168,0.4-0.551,0.65-1.15,0.75s-1.5-0.15-2.699-0.75c-0.668-0.333-1.268-0.8-1.801-1.4c-0.534-0.6-1-1.25-1.4-1.95
		c-0.399-0.7-0.717-1.383-0.949-2.05c-0.234-0.666-0.418-1.266-0.551-1.8c-0.533-1.933-0.634-4.05-0.299-6.35
		c0.332-2.3,0.865-4.783,1.6-7.45c0.133-0.533,0.4-1.366,0.8-2.5c0.399-1.133,0.8-2.315,1.2-3.55c0.4-1.233,0.8-2.366,1.199-3.4
		c0.4-1.033,0.666-1.75,0.801-2.15c0.666-1.733,1.3-3.516,1.9-5.35c0.6-1.833,1.165-3.715,1.699-5.65
		c1.865-6.2,3.25-11.833,4.15-16.9c0.9-5.065,1.35-9.565,1.35-13.5c0-2,0.365-3.565,1.1-4.7c0.934-1.266,2.201-1.9,3.801-1.9
		c1.933,0,4.565,1.267,7.9,3.8c0.532,0.334,0.665,0.867,0.399,1.6c-0.134,0.334-0.267,0.834-0.399,1.5
		c-0.135,0.667-0.25,1.617-0.351,2.85c-0.101,1.234-0.185,2.785-0.25,4.65c-0.067,1.867-0.101,4.135-0.101,6.8
		c0,6.067,0.201,11.817,0.601,17.25c0.399,5.434,0.933,10.55,1.601,15.35c0.399,2.867,0.732,5.3,1,7.3
		c0.266,2,0.665,3.935,1.199,5.8c0.266,0.867,0.7,1.685,1.301,2.45c0.6,0.767,1.165,1.185,1.699,1.25
		c0.333-0.266,0.65-0.583,0.95-0.95c0.3-0.365,0.665-0.9,1.101-1.6c0.432-0.7,0.915-1.616,1.449-2.75
		c0.865-1.866,1.615-4.1,2.25-6.7c0.633-2.6,1.416-5.733,2.35-9.4c1.666-6.666,3-12.766,4-18.3c1-5.533,1.967-10.633,2.9-15.3
		c0.066-0.933,0.115-1.716,0.15-2.35c0.033-0.633,0.05-1.2,0.05-1.7s0-0.983,0-1.45c0-0.466,0-1.033,0-1.7c0-0.8,0.05-1.5,0.149-2.1
		c0.101-0.6,0.217-1.166,0.351-1.7c0.133-0.4,0.399-0.916,0.8-1.55c0.4-0.633,0.934-0.95,1.6-0.95c2.066,0,3.766,0.134,5.101,0.4
		c0.933,0.134,1.716,0.285,2.351,0.45c0.633,0.167,1.215,0.384,1.75,0.65c0.799,0.4,1.35,0.867,1.649,1.4
		c0.3,0.535,0.483,0.967,0.55,1.3c0,0.4-0.034,0.667-0.1,0.8c-0.135,0.2-0.301,0.717-0.5,1.55c-0.2,0.834-0.467,2.285-0.801,4.35
		c-0.267,1.667-0.533,3.617-0.799,5.85c-0.268,2.234-0.568,4.75-0.9,7.55c-1.2,11.334-1.801,20.4-1.801,27.2
		c0,10.534,0.701,18.2,2.101,23c1.333,4.4,3.3,6.966,5.899,7.7C146.708,114.029,147.007,114.296,147.142,114.696z M223.883,75.651
		c-0.63-0.3-1.08-0.45-1.35-0.45c-0.931,0-1.61,0.45-2.05,1.35c-0.431,0.9-0.78,1.91-1.051,3.05c-0.46,2-1,4.1-1.6,6.3
		s-1.26,4.46-2,6.8c-0.73,2.2-1.4,3.96-2,5.3c-0.6,1.33-1.1,2.36-1.5,3.1c-0.4,0.73-0.71,1.21-0.95,1.45
		c-0.229,0.23-0.38,0.38-0.45,0.45c-0.06,0-0.18-0.12-0.35-0.35c-0.16-0.24-0.35-0.7-0.55-1.4c-0.2-0.7-0.36-1.72-0.5-3.05
		c-0.13-1.34-0.2-3.1-0.2-5.3c0-1.74,0.1-3.62,0.3-5.65c0.2-2.04,0.47-4.25,0.8-6.65c0.471-2.74,0.771-4.57,0.9-5.5
		c0.14-0.94,0.24-1.47,0.3-1.6v-0.3c0-1-0.43-2.02-1.3-3.05c-0.86-1.04-2.7-1.65-5.5-1.85c-0.33,0-0.63,0.1-0.9,0.3
		c-1.199,0.73-1.899,2.86-2.1,6.4c-0.4,4.66-1.6,10.1-3.6,16.3c-0.33,0.86-0.66,1.96-1,3.3c-0.33,1.33-0.761,2.96-1.301,4.9v0.1
		c-0.199-0.87-0.3-2.44-0.3-4.7c0-0.4,0.021-1.04,0.05-1.9c0.04-0.87,0.051-1.97,0.051-3.3c0.069-1.34,0.1-2.54,0.1-3.6v-2.7
		c0-0.54,0.07-1.07,0.2-1.6c0.14-0.54,0.3-1.14,0.5-1.8c0.34-1.2,0.54-1.95,0.6-2.25c0.07-0.3,0.101-0.52,0.101-0.65
		c0-1-0.301-1.8-0.9-2.4c-0.6-0.6-1.46-0.9-2.6-0.9c-2.061,0-3.4,0.86-4,2.6c-0.131,0.26-0.25,0.68-0.351,1.25
		c-0.08,0.43-0.16,1.12-0.25,2.08c-0.52,1.82-1.02,3.41-1.5,4.77c-0.53,1.53-0.96,2.83-1.3,3.9c-1,3.2-1.89,5.7-2.7,7.5
		c-0.8,1.8-1.26,2.9-1.39,3.3c-0.67,1.73-1.2,2.88-1.61,3.45c-0.39,0.56-0.66,0.88-0.8,0.95c-0.39-0.07-0.71-0.34-0.95-0.8
		c-0.229-0.47-0.39-1.02-0.5-1.65c-0.09-0.64-0.16-1.25-0.189-1.85c-0.04-0.6-0.061-1.07-0.061-1.4c0-2,0.09-3.89,0.25-5.65
		c0.17-1.77,0.45-3.72,0.86-5.85c0.33-1.54,0.609-3,0.84-4.4c0.24-1.4,0.42-2.37,0.55-2.9c0-0.14,0.061-0.4,0.16-0.8
		c0.09-0.4,0.21-0.84,0.34-1.3c0.141-0.47,0.25-0.9,0.36-1.3c0.09-0.4,0.14-0.7,0.14-0.9c0-0.4-0.25-0.87-0.75-1.4
		c-0.5-0.54-1.68-0.97-3.55-1.3c-1-0.2-1.75-0.34-2.25-0.4c-0.5-0.07-0.84-0.04-1.04,0.1c-0.21,0.13-0.3,0.36-0.3,0.7v1.5
		c0,0.66-0.07,1.98-0.2,3.95c-0.06,0.82-0.13,1.75-0.229,2.79l-1.271,3.56c-0.4,1.2-0.92,2.91-1.55,5.15
		c-0.641,2.23-1.62,4.71-2.95,7.45c-0.67,1.33-1.22,2.41-1.65,3.25c-0.439,0.83-0.79,1.46-1.05,1.9c-0.27,0.43-0.47,0.73-0.6,0.9
		c-0.141,0.16-0.24,0.25-0.3,0.25c-0.07-0.07-0.19-0.22-0.351-0.45c-0.17-0.24-0.39-0.72-0.649-1.45c-0.54-1.8-0.74-3.6-0.601-5.4
		c0.13-1,0.25-2.04,0.351-3.1c0.1-1.07,0.21-2.07,0.35-3c0.13-0.67,0.28-1.34,0.45-2c0.16-0.67,0.35-1.3,0.55-1.9
		c0.13-0.27,0.11-0.5-0.05-0.7c-0.17-0.2-0.351-0.37-0.55-0.5c-0.271-0.14-0.54-0.24-0.801-0.3c-0.199-0.14-0.39-0.25-0.55-0.35
		c-0.17-0.1-0.39-0.19-0.649-0.25c-0.271-0.07-0.5-0.19-0.7-0.35c-0.2-0.17-0.44-0.25-0.7-0.25c-0.14,0-0.3-0.02-0.5-0.05
		c-0.2-0.04-0.37-0.05-0.5-0.05h-0.55c-0.24,0-0.45,0.13-0.65,0.4c-0.2,0.26-0.25,0.5-0.149,0.7c0.1,0.2,0.109,0.56,0.05,1.1
		c-0.07,0.53-0.141,1.03-0.2,1.5c-0.07,0.46-0.17,0.96-0.3,1.5c-0.34,1.73-0.601,3.43-0.8,5.1c-0.2,1.66-0.67,3.46-1.4,5.4
		c-0.74,2.13-1.4,3.76-2,4.9c-0.6,1.13-1.04,1.7-1.3,1.7c-0.141,0-0.37-0.09-0.7-0.25c-0.34-0.17-0.57-0.39-0.7-0.65
		c-0.47-0.94-0.7-1.94-0.7-3c0-3.4,0.2-6.7,0.601-9.9c0.53-2.67,1.229-5.54,2.1-8.6c0.86-3.07,1.53-5.24,2-6.5
		c0.46-1.27,0.8-2.07,1-2.4c0.86,0.13,1.53,0.78,2,1.95c0.46,1.16,0.8,2.55,1,4.15c0.061,0.46,0.21,0.75,0.45,0.85
		c0.23,0.1,0.5,0.1,0.8,0s0.561-0.25,0.8-0.45c0.23-0.2,0.41-0.37,0.551-0.5c0.26-0.4,0.529-1.04,0.8-1.9
		c0.26-0.87,0.229-2.37-0.101-4.5c-0.14-0.94-0.489-1.84-1.05-2.7c-0.569-0.87-1.24-1.62-2-2.25c-0.77-0.64-1.59-1.14-2.45-1.5
		c-0.869-0.37-1.67-0.55-2.399-0.55c-1,0-1.851,0.45-2.55,1.35c-0.7,0.9-1.29,1.78-1.75,2.65c-0.341,0.66-0.7,1.53-1.101,2.6
		c-0.399,1.06-0.819,2.23-1.25,3.5c-0.439,1.26-0.84,2.53-1.2,3.8c-0.369,1.26-0.689,2.43-0.949,3.5c-0.4,1.93-0.74,3.75-1,5.45
		c-0.271,1.7-0.44,3.18-0.5,4.45c-0.2,7.86,0.899,13.03,3.3,15.5c1.26,1.13,2.66,1.7,4.2,1.7c3.13,0,5.56-2.4,7.3-7.2
		c0.26,0.53,0.51,0.98,0.75,1.35c0.229,0.36,0.45,0.71,0.649,1.05c1.2,1.73,2.86,2.6,5,2.6c1.131,0,2.08-0.47,2.851-1.4
		c0.76-0.94,1.41-1.87,1.95-2.8c0.659-1.2,1.43-2.7,2.3-4.5c0.1-0.2,0.189-0.4,0.28-0.61c0.079,0.95,0.22,1.84,0.42,2.66
		c0.33,1.36,0.8,2.61,1.39,3.75c0.94,1.53,1.92,2.53,2.96,3c1.03,0.46,1.98,0.7,2.84,0.7c2.54,0,4.67-1.87,6.41-5.6
		c0.33-0.67,0.78-1.85,1.34-3.55c0.57-1.7,1.32-4.05,2.25-7.05c0-0.01,0.01-0.02,0.01-0.03c0.021,0.61,0.051,1.22,0.091,1.83
		c0.069,1.33,0.14,2.68,0.199,4.05c0.07,1.36,0.141,2.71,0.2,4.05v0.1c0.2,1.26,0.521,2.26,0.95,3c0.44,0.73,0.92,1.3,1.45,1.7
		c0.54,0.4,1.09,0.66,1.649,0.8c0.57,0.13,1.051,0.2,1.45,0.2c0.8,0,1.49-0.24,2.05-0.7c0.57-0.47,1.021-1.02,1.351-1.65
		c0.34-0.64,0.6-1.27,0.8-1.9c0.2-0.64,0.37-1.12,0.5-1.45c0.67-2.47,1.27-4.72,1.8-6.75c0.54-2.04,1-3.89,1.4-5.55
		c0.14,2.33,0.29,4.3,0.45,5.9c0.17,1.6,0.35,2.86,0.55,3.8c1,5.86,3.27,8.8,6.8,8.8c1.67,0,3.3-1.54,4.9-4.6
		c1.47-2.87,3.04-6.87,4.699-12c2.601-7.8,3.9-12.8,3.9-15C224.833,76.801,224.523,75.951,223.883,75.651z M182.633,58.301
		c-0.859-0.94-2.09-1.4-3.689-1.4c-0.94,0-2,0.53-3.2,1.6c-1.07,1.06-1.61,2.16-1.61,3.3c0,1.33,0.54,2.63,1.61,3.9
		c1,1.33,2.359,2,4.09,2c0.27,0,0.64-0.05,1.11-0.15c0.46-0.1,0.93-0.34,1.39-0.7c0.47-0.37,0.86-0.92,1.16-1.65
		c0.3-0.74,0.45-1.7,0.45-2.9C183.943,60.561,183.503,59.231,182.633,58.301z M301.436,111.196c0,0.133-0.034,0.35-0.1,0.65
		c-0.067,0.3-0.218,0.6-0.45,0.9c-0.234,0.3-0.584,0.566-1.05,0.8c-0.468,0.233-1.101,0.35-1.9,0.35c-0.667,0-1.35-0.067-2.05-0.2
		c-0.7-0.134-1.518-0.334-2.45-0.6c-0.334-0.134-0.567-0.3-0.7-0.5c-0.467-0.534-0.899-1.2-1.3-2c-0.399-0.8-0.834-1.733-1.3-2.8
		c-2.067-4.933-4.135-11.8-6.2-20.6c-2.2,0.334-4.517,0.534-6.95,0.6c-2.434,0.067-5.017,0.167-7.75,0.3
		c-2.734,0.134-4.984,0.267-6.75,0.4c-1.767,0.135-3.084,0.234-3.949,0.3c-1.535,2.534-2.95,5.1-4.25,7.7
		c-1.301,2.6-2.75,5.2-4.351,7.8c0,0.067-0.034,0.1-0.1,0.1c-2.534,3.8-5.135,6.732-7.8,8.8c-1.335,1-2.885,1.716-4.65,2.15
		c-1.768,0.433-3.484-0.017-5.15-1.35c-1.199-0.934-1.717-1.7-1.55-2.3c0.166-0.6,0.733-1.2,1.7-1.8c0.966-0.6,2.15-1.316,3.55-2.15
		c1.4-0.833,2.766-1.982,4.101-3.45c1.399-1.6,2.949-3.75,4.649-6.45c1.7-2.7,3.383-5.416,5.05-8.15h-2c-1.199,0-2.134-0.2-2.8-0.6
		c-0.935-0.533-1.399-1.333-1.399-2.4c0-0.133,0.05-0.35,0.149-0.65c0.101-0.3,0.351-0.583,0.75-0.85c0.2-0.065,0.5-0.166,0.9-0.3
		c0.665-0.2,1.5-0.4,2.5-0.6c0.466-0.066,0.85-0.15,1.149-0.25c0.301-0.1,0.601-0.2,0.9-0.3c0.3-0.1,0.7-0.2,1.2-0.3
		s1.25-0.216,2.25-0.35c1.933-3.266,4.016-7.25,6.25-11.95c2.232-4.7,4.516-10.083,6.85-16.15c1.133-2.865,2.183-5.433,3.15-7.7
		c0.966-2.266,1.716-4.266,2.25-6c0.732-2.133,1.2-3.65,1.399-4.55c0.2-0.9,0.301-1.516,0.301-1.85c0-0.066-0.018-0.116-0.051-0.15
		c-0.034-0.033-0.05-0.083-0.05-0.15c-0.267-0.465-0.399-0.933-0.399-1.4c0-1.2,0.6-2,1.8-2.4c0.6-0.333,1.665-0.5,3.2-0.5
		c1.266,0,3.065,0.767,5.399,2.3c1.333,0.935,2.283,1.7,2.851,2.3c0.565,0.6,0.85,1.2,0.85,1.8c0,1.467-0.1,2.7-0.3,3.7
		c-0.067,0.334-0.117,0.6-0.15,0.8c-0.034,0.2-0.05,0.367-0.05,0.5v0.4c0,5.267,0.4,11.134,1.2,17.6
		c0.8,6.467,2.032,13.534,3.7,21.2c1.266,6.134,2.482,11.434,3.649,15.9c1.166,4.467,2.283,8.1,3.351,10.9
		c0.199,0.534,0.5,0.967,0.899,1.3c0.866,0.6,1.433,1.067,1.7,1.4C301.336,110.596,301.436,110.862,301.436,111.196z
		 M282.735,81.696c-0.134-0.666-0.3-1.65-0.5-2.95c-0.199-1.3-0.467-3.016-0.8-5.15c-2.2-13.133-3.5-21.866-3.899-26.2v-0.1
		c0-0.466-0.018-0.916-0.051-1.35c-0.034-0.433-0.084-0.883-0.149-1.35c-0.734,1.734-1.667,4.035-2.8,6.9
		c-1.135,2.867-2.468,6.334-4,10.4c-1.668,4.534-3.218,8.467-4.65,11.8c-1.435,3.334-2.75,6.167-3.95,8.5L282.735,81.696z
		 M504.523,94.051c-0.4-2.04-1.07-4.52-2-7.45c-0.87-2.8-1.521-5.2-1.95-7.2c-0.431-2-0.65-3.67-0.65-5c0-0.67,0.17-1.67,0.5-3
		c0.271-1,0.43-1.67,0.5-2c0.07-0.34,0.101-0.57,0.101-0.7c0-0.27-0.051-0.59-0.15-0.95c-0.1-0.37-0.3-0.74-0.6-1.1
		c-0.301-0.37-0.771-0.69-1.4-0.95c-0.63-0.27-1.45-0.4-2.45-0.4c-1.33,0-2.37,0.38-3.1,1.15c-0.73,0.76-1.101,1.81-1.101,3.15
		c0,2.26-0.1,4.41-0.3,6.45c-0.2,2.03-0.57,3.95-1.1,5.75c-0.46,1.8-0.931,3.63-1.4,5.5c-0.02,0.09-0.04,0.17-0.06,0.26
		c-0.021,0.04-0.03,0.09-0.04,0.13c-0.471,1.63-0.971,3.3-1.5,5.01c-0.73,2.2-1.4,3.96-2,5.3c-0.601,1.33-1.101,2.36-1.5,3.1
		c-0.4,0.73-0.721,1.21-0.95,1.45c-0.23,0.23-0.38,0.38-0.45,0.45c-0.07,0-0.18-0.12-0.35-0.35c-0.17-0.24-0.351-0.7-0.55-1.4
		c-0.2-0.7-0.37-1.72-0.5-3.05c-0.131-1.34-0.2-3.1-0.2-5.3c0-1.74,0.1-3.62,0.3-5.65c0.2-2.04,0.47-4.25,0.8-6.65
		c0.47-2.74,0.771-4.57,0.9-5.5c0.13-0.94,0.229-1.47,0.3-1.6v-0.3c0-1-0.43-2.02-1.3-3.05c-0.87-1.04-2.7-1.65-5.5-1.85
		c-0.33,0-0.63,0.1-0.9,0.3c-1.2,0.73-1.899,2.86-2.1,6.4c-0.4,4.66-1.601,10.1-3.601,16.3c-0.33,0.86-0.67,1.96-1,3.3
		c-0.33,1.33-0.77,2.96-1.3,4.9v0.1c-0.2-0.87-0.3-2.44-0.3-4.7c0-0.4,0.02-1.04,0.05-1.9c0.03-0.87,0.05-1.97,0.05-3.3
		c0.07-1.34,0.101-2.54,0.101-3.6v-2.7c0-0.54,0.069-1.07,0.2-1.6c0.13-0.54,0.3-1.14,0.5-1.8c0.329-1.2,0.529-1.95,0.6-2.25
		c0.07-0.3,0.1-0.52,0.1-0.65c0-1-0.3-1.8-0.899-2.4c-0.601-0.6-1.471-0.9-2.601-0.9c-2.069,0-3.399,0.86-4,2.6
		c-0.13,0.26-0.25,0.68-0.35,1.25c-0.1,0.56-0.22,1.58-0.35,3.05c0,0.18,0.06,0.38,0.159,0.62c-0.229,0.92-0.43,1.67-0.609,2.23
		c-0.36,1.16-0.61,1.95-0.75,2.35c-0.73,1.53-1.48,2.46-2.25,2.8c-0.76,0.33-1.45,0.5-2.05,0.5c-0.46,0-0.86-0.14-1.2-0.4
		c0-2.87-0.03-5.24-0.101-7.1c-0.06-1.87-0.13-3.35-0.189-4.45c-0.07-1.1-0.16-1.92-0.25-2.45c-0.101-0.54-0.19-0.94-0.25-1.2
		c-0.73-2.07-2.26-3.94-4.58-5.6c-2.32-1.74-4.51-2.6-6.57-2.6c-0.399,0-0.83,0.05-1.29,0.15c-0.47,0.1-0.93,0.31-1.39,0.65
		c-0.47,0.33-0.91,0.8-1.351,1.4c-0.43,0.6-0.739,1.4-0.939,2.4c-0.33,1.33-0.57,2.3-0.7,2.9s-0.229,1.03-0.3,1.3
		c-0.4,0.4-0.66,1.1-0.79,2.1v0.07c-0.07,0.1-0.14,0.21-0.19,0.33c-0.21,0.4-0.369,0.81-0.5,1.25c-0.14,0.43-0.239,0.78-0.31,1.05
		c-0.59,2.13-1.16,3.96-1.69,5.5c-0.54,1.53-0.97,2.83-1.31,3.9c-1,3.2-1.9,5.7-2.69,7.5c-0.81,1.8-1.27,2.9-1.399,3.3
		c-0.67,1.73-1.2,2.88-1.601,3.45c-0.399,0.56-0.67,0.88-0.81,0.95c-0.4-0.07-0.71-0.34-0.94-0.8c-0.239-0.47-0.399-1.02-0.5-1.65
		c-0.1-0.64-0.17-1.25-0.21-1.85c-0.029-0.6-0.04-1.07-0.04-1.4c0-2,0.08-3.89,0.25-5.65c0.16-1.77,0.44-3.72,0.851-5.85
		c0.33-1.54,0.609-3,0.84-4.4c0.24-1.4,0.42-2.37,0.56-2.9c0-0.14,0.04-0.4,0.15-0.8c0.1-0.4,0.21-0.84,0.35-1.3
		c0.131-0.47,0.25-0.9,0.351-1.3c0.09-0.4,0.149-0.7,0.149-0.9c0-0.4-0.25-0.87-0.75-1.4c-0.5-0.54-1.689-0.97-3.56-1.3
		c-1-0.2-1.75-0.34-2.25-0.4c-0.5-0.07-0.84-0.04-1.04,0.1c-0.21,0.13-0.3,0.36-0.3,0.7v1.5c0,0.53-0.05,1.49-0.13,2.88
		c0,0,0,0,0,0.01c-0.13,0.44-0.28,0.95-0.471,1.51c-0.199,0.6-0.399,1.33-0.6,2.2c-0.87,3.66-1.72,6.88-2.55,9.65
		c-0.84,2.76-1.62,5.05-2.351,6.85c-0.54,1.13-0.989,2-1.35,2.6c-0.37,0.6-0.69,1.06-0.95,1.4c-0.27,0.33-0.54,0.56-0.8,0.7
		c-0.14,0-0.39-0.34-0.75-1c-0.37-0.67-0.65-2.07-0.85-4.2c-0.07-0.74-0.12-2.09-0.15-4.05c-0.04-1.97-0.05-4.55-0.05-7.75
		c0-0.14,0.01-0.4,0.05-0.8c0.03-0.4,0.1-1.07,0.2-2c0.1-0.94,0.21-2.2,0.35-3.8c0.13-1.6,0.33-3.67,0.601-6.2
		c0.33-3,0.58-5.52,0.75-7.55c0.159-2.04,0.31-3.52,0.449-4.45l3.101-0.2c0.729,0,1.6-0.04,2.6-0.1c1-0.07,2.26-0.27,3.8-0.6
		c0.221-0.04,0.44-0.08,0.65-0.12c-0.77,0.91-1.15,1.85-1.15,2.82c0,1.33,0.53,2.63,1.601,3.9c1,1.33,2.359,2,4.09,2
		c0.27,0,0.64-0.05,1.1-0.15c0.471-0.1,0.94-0.34,1.4-0.7c0.47-0.37,0.85-0.92,1.16-1.65c0.3-0.74,0.439-1.7,0.439-2.9
		c0-1.74-0.43-3.07-1.29-4c-0.55-0.59-1.229-0.99-2.069-1.2c0.109-0.21,0.17-0.45,0.17-0.7v-0.7c0-0.87-0.47-1.37-1.4-1.5
		c-1.6-0.07-2.84-0.12-3.7-0.15c-0.869-0.04-1.59-0.07-2.149-0.1c-0.57-0.04-1.101-0.07-1.601-0.1c-0.5-0.04-1.189-0.05-2.05-0.05
		c-0.939,0-1.54-0.02-1.8-0.05c-0.27-0.04-0.44-0.07-0.5-0.1c-0.07-0.04-0.15-0.05-0.25-0.05h-0.85c0.199-0.94,0.38-1.79,0.55-2.55
		c0.16-0.77,0.31-1.52,0.45-2.25v-2.6c0-0.47-0.2-0.87-0.601-1.2c-2.2-1.4-3.899-2.1-5.1-2.1c-1.141,0-1.97,0.53-2.5,1.6
		c-0.07,0.2-0.101,0.5-0.101,0.9l0.5,1.7c-0.069,1.4-0.14,2.63-0.199,3.7c-0.07,1.06-0.141,1.96-0.2,2.7
		c-0.601,0.06-1.09,0.11-1.45,0.15c-0.37,0.03-0.69,0.06-0.95,0.1c-0.27,0.03-0.54,0.06-0.8,0.1c-0.27,0.03-0.6,0.08-1,0.15
		c-1.34,0.26-2.12,0.65-2.35,1.15c-0.24,0.5-0.351,0.85-0.351,1.05c0,0.33,0.11,0.75,0.351,1.25c0.229,0.5,0.81,0.91,1.75,1.25
		c0.529,0.2,0.899,0.4,1.1,0.6c0.2,0.2,0.36,0.33,0.5,0.4c0.2,0.13,0.56,0.28,1.1,0.45c0.53,0.16,1.101,0.18,1.7,0.05
		c-0.93,8.36-1.6,14.9-2.03,19.62c0,0.01-0.01,0.02-0.01,0.02c-0.16,0.58-0.35,1.37-0.56,2.36c-1.141,4.93-2.3,8.83-3.5,11.7
		c-1.2,2.86-2.351,5.05-3.45,6.55s-2.07,2.46-2.9,2.9c-0.84,0.43-1.449,0.65-1.85,0.65c-0.34,0-0.65-0.17-0.95-0.5
		c-0.3-0.34-0.55-0.7-0.75-1.1c-0.67-1.34-1-3.07-1-5.2c0-9.27,1.101-15.67,3.3-19.2c0.46,0.53,1.16,0.8,2.101,0.8
		c0.33,0,0.85-0.3,1.55-0.9s1.25-1.64,1.65-3.1c0.199-0.67,0.21-1.45,0.05-2.35c-0.17-0.9-0.62-1.82-1.351-2.75
		c-0.739-0.94-1.369-1.5-1.899-1.7c-0.54-0.2-1.17-0.3-1.9-0.3c-2.8,0-5.24,3.06-7.3,9.2c-0.34,1-0.64,1.99-0.92,2.98
		c0,0,0,0.01-0.01,0.02l-1.57,4.4c-0.4,1.2-0.92,2.91-1.55,5.15c-0.641,2.23-1.62,4.71-2.95,7.45c-0.67,1.33-1.22,2.41-1.65,3.25
		c-0.439,0.83-0.79,1.46-1.05,1.9c-0.27,0.43-0.47,0.73-0.6,0.9c-0.141,0.16-0.24,0.25-0.3,0.25c-0.07-0.07-0.19-0.22-0.351-0.45
		c-0.17-0.24-0.39-0.72-0.649-1.45c-0.54-1.8-0.74-3.6-0.601-5.4c0.13-1,0.25-2.04,0.351-3.1c0.1-1.07,0.21-2.07,0.35-3
		c0.13-0.67,0.28-1.34,0.45-2c0.16-0.67,0.35-1.3,0.55-1.9c0.13-0.27,0.11-0.5-0.05-0.7c-0.17-0.2-0.351-0.37-0.55-0.5
		c-0.271-0.14-0.54-0.24-0.801-0.3c-0.199-0.14-0.39-0.25-0.55-0.35c-0.17-0.1-0.39-0.19-0.649-0.25c-0.271-0.07-0.5-0.19-0.7-0.35
		c-0.2-0.17-0.44-0.25-0.7-0.25c-0.14,0-0.3-0.02-0.5-0.05c-0.2-0.04-0.37-0.05-0.5-0.05h-0.55c-0.24,0-0.45,0.13-0.65,0.4
		c-0.2,0.26-0.25,0.5-0.149,0.7c0.1,0.2,0.109,0.56,0.05,1.1c-0.07,0.53-0.141,1.03-0.2,1.5c-0.07,0.46-0.17,0.96-0.3,1.5
		c-0.34,1.73-0.601,3.43-0.8,5.1c-0.2,1.66-0.67,3.46-1.4,5.4c-0.74,2.13-1.4,3.76-2,4.9c-0.6,1.13-1.04,1.7-1.3,1.7
		c-0.141,0-0.37-0.09-0.7-0.25c-0.34-0.17-0.57-0.39-0.7-0.65c-0.47-0.94-0.7-1.94-0.7-3c0-3.4,0.2-6.7,0.601-9.9
		c0.53-2.67,1.229-5.54,2.1-8.6c0.86-3.07,1.53-5.24,2-6.5c0.46-1.27,0.8-2.07,1-2.4c0.86,0.13,1.53,0.78,2,1.95
		c0.46,1.16,0.8,2.55,1,4.15c0.061,0.46,0.21,0.75,0.45,0.85c0.23,0.1,0.5,0.1,0.8,0s0.561-0.25,0.8-0.45
		c0.23-0.2,0.41-0.37,0.551-0.5c0.26-0.4,0.529-1.04,0.8-1.9c0.26-0.87,0.229-2.37-0.101-4.5c-0.14-0.94-0.489-1.84-1.05-2.7
		c-0.569-0.87-1.24-1.62-2-2.25c-0.77-0.64-1.59-1.14-2.45-1.5c-0.869-0.37-1.67-0.55-2.399-0.55c-1,0-1.851,0.45-2.55,1.35
		c-0.7,0.9-1.29,1.78-1.75,2.65c-0.341,0.66-0.7,1.53-1.101,2.6c-0.359,0.94-0.729,1.97-1.109,3.08
		c-0.04,0.14-0.091,0.28-0.141,0.42c-0.03,0.07-0.05,0.15-0.069,0.22c-0.421,1.19-0.79,2.38-1.131,3.58
		c-0.369,1.26-0.689,2.43-0.949,3.5c-0.36,1.75-0.681,3.42-0.92,4.98c-0.011,0.01-0.011,0.02-0.011,0.03
		c-0.439,1.38-0.93,2.84-1.47,4.39c-0.73,2.06-1.35,3.75-1.85,5.05c-0.5,1.3-0.931,2.33-1.301,3.1c-0.369,0.76-0.67,1.3-0.899,1.6
		c-0.23,0.3-0.38,0.48-0.45,0.55c-0.33,0-0.67-0.2-1-0.6c-0.33-0.4-0.5-1.4-0.5-3c0-0.4,0.02-0.8,0.05-1.2s0.08-0.9,0.15-1.5
		c0.069-0.6,0.149-1.37,0.25-2.3c0.1-0.94,0.22-2.1,0.35-3.5c0.2-2,0.37-3.64,0.5-4.9c0.13-1.27,0.22-2.27,0.25-3
		c0.03-0.74,0.07-1.29,0.101-1.65c0.029-0.37,0.05-0.62,0.05-0.75c0-2.74-1.8-4.97-5.4-6.7c-1.47-0.74-2.43-1.27-2.899-1.6
		c-0.471-0.34-0.73-0.57-0.801-0.7v-1.1c0-0.47,0.07-1.17,0.2-2.1c0.2-1.67,0.271-2.84,0.2-3.5c-0.07-1-0.25-1.82-0.55-2.45
		c-0.3-0.64-0.63-1.12-1-1.45c-0.37-0.34-0.75-0.55-1.15-0.65c-0.399-0.1-0.729-0.15-1-0.15c-0.47,0-0.95,0.1-1.45,0.3
		c-0.5,0.2-0.949,0.55-1.35,1.05s-0.73,1.18-1,2.05c-0.27,0.86-0.4,2-0.4,3.4c0,1.26,0.33,2.7,1,4.3c0.33,0.93,0.53,1.65,0.601,2.15
		c0.069,0.5,0.1,0.81,0.1,0.95c0,1.07-0.12,2.31-0.37,3.74c-0.14,0.48-0.29,1.04-0.43,1.66c-0.87,3.66-1.72,6.88-2.55,9.65
		c-0.83,2.76-1.62,5.05-2.351,6.85c-0.529,1.13-0.979,2-1.35,2.6c-0.37,0.6-0.68,1.06-0.95,1.4c-0.27,0.33-0.53,0.56-0.8,0.7
		c-0.13,0-0.38-0.34-0.75-1c-0.37-0.67-0.65-2.07-0.85-4.2c-0.07-0.74-0.12-2.09-0.15-4.05c-0.03-1.97-0.05-4.55-0.05-7.75
		c0-0.14,0.02-0.4,0.05-0.8s0.1-1.07,0.2-2c0.1-0.94,0.22-2.2,0.35-3.8c0.13-1.6,0.33-3.67,0.601-6.2c0.33-3,0.58-5.52,0.75-7.55
		c0.17-2.04,0.319-3.52,0.449-4.45l3.101-0.2c0.729,0,1.6-0.04,2.6-0.1c1-0.07,2.271-0.27,3.8-0.6c2.33-0.4,3.83-0.74,4.5-1
		c0.67-0.27,1.101-0.54,1.301-0.8c0.199-0.27,0.3-0.57,0.3-0.9v-0.7c0-0.87-0.47-1.37-1.4-1.5c-1.6-0.07-2.83-0.12-3.7-0.15
		c-0.869-0.04-1.58-0.07-2.149-0.1c-0.57-0.04-1.101-0.07-1.601-0.1c-0.5-0.04-1.18-0.05-2.05-0.05c-0.93,0-1.53-0.02-1.8-0.05
		c-0.27-0.04-0.43-0.07-0.5-0.1c-0.07-0.04-0.15-0.05-0.25-0.05h-0.85c0.199-0.94,0.38-1.79,0.55-2.55
		c0.17-0.77,0.319-1.52,0.45-2.25v-2.6c0-0.47-0.2-0.87-0.601-1.2c-2.2-1.4-3.899-2.1-5.1-2.1c-1.13,0-1.97,0.53-2.5,1.6
		c-0.07,0.2-0.101,0.5-0.101,0.9l0.5,1.7c-0.069,1.4-0.13,2.63-0.199,3.7c-0.07,1.06-0.131,1.96-0.2,2.7
		c-0.601,0.06-1.08,0.11-1.45,0.15c-0.37,0.03-0.68,0.06-0.95,0.1c-0.229,0.03-0.45,0.05-0.67,0.08c-0.46-0.02-1.03-0.03-1.729-0.03
		c-0.931,0-1.53-0.02-1.801-0.05c-0.26-0.04-0.43-0.07-0.5-0.1c-0.06-0.04-0.149-0.05-0.25-0.05h-0.85c0.2-0.94,0.38-1.79,0.55-2.55
		c0.17-0.77,0.32-1.52,0.45-2.25v-2.6c0-0.47-0.2-0.87-0.6-1.2c-2.2-1.4-3.9-2.1-5.101-2.1c-1.13,0-1.96,0.53-2.5,1.6
		c-0.06,0.2-0.1,0.5-0.1,0.9l0.5,1.7c-0.07,1.4-0.13,2.63-0.2,3.7c-0.06,1.06-0.13,1.96-0.2,2.7c-0.6,0.06-1.08,0.11-1.45,0.15
		c-0.359,0.03-0.68,0.06-0.949,0.1c-0.271,0.03-0.53,0.06-0.801,0.1c-0.26,0.03-0.6,0.08-1,0.15c-1.33,0.26-2.109,0.65-2.35,1.15
		c-0.23,0.5-0.35,0.85-0.35,1.05c0,0.33,0.119,0.75,0.35,1.25c0.24,0.5,0.82,0.91,1.75,1.25c0.54,0.2,0.9,0.4,1.1,0.6
		c0.2,0.2,0.37,0.33,0.5,0.4c0.2,0.13,0.57,0.28,1.101,0.45c0.54,0.16,1.1,0.18,1.7,0.05c-0.931,8.46-1.61,15.06-2.051,19.8
		c-0.43,4.73-0.649,7.93-0.649,9.6c0,5.13,0.67,9.43,2,12.9c1.54,3.86,3.569,5.8,6.1,5.8c1.8,0,3.521-1.22,5.15-3.65
		c1-1.48,2.01-3.47,3.04-5.95c0.29,1.36,0.66,2.63,1.109,3.8c1.53,3.86,3.57,5.8,6.101,5.8c1.8,0,3.52-1.22,5.149-3.65
		c1.631-2.44,3.32-6.22,5.051-11.35c1.33-4,2.3-7.29,2.899-9.85c0.28-1.2,0.49-2.26,0.65-3.17c0.14-0.62,0.26-1.18,0.35-1.68
		c1.2,0.8,1.931,1.45,2.2,1.95s0.4,0.81,0.4,0.95v16.3c0.13,2.46,0.319,4.2,0.55,5.2c0.229,1,0.479,1.66,0.75,2
		c1.729,3.06,3.97,4.6,6.7,4.6c0.47,0,0.979-0.17,1.55-0.5c0.569-0.34,1.2-1.04,1.899-2.1c0.53-0.81,1.11-1.88,1.73-3.23
		c0.54,2.58,1.42,4.49,2.62,5.73c1.26,1.13,2.66,1.7,4.2,1.7c3.13,0,5.56-2.4,7.3-7.2c0.26,0.53,0.51,0.98,0.75,1.35
		c0.229,0.36,0.45,0.71,0.649,1.05c1.2,1.73,2.86,2.6,5,2.6c1.131,0,2.08-0.47,2.851-1.4c0.76-0.94,1.41-1.87,1.95-2.8
		c0.659-1.2,1.43-2.7,2.3-4.5c0.16-0.33,0.31-0.66,0.46-1.01c0.41,2.4,1.09,4.43,2.04,6.11c1.8,3.2,4.399,4.8,7.8,4.8
		c2.8,0,5.2-1.94,7.2-5.8c0.93-1.6,1.859-3.8,2.8-6.6c0.28-0.86,0.58-1.77,0.88-2.75c0.311,2.81,0.89,5.29,1.72,7.45
		c1.53,3.86,3.561,5.8,6.101,5.8c1.8,0,3.51-1.22,5.149-3.65c0.86-1.29,1.74-2.95,2.631-5c0.069,0.97,0.21,1.87,0.409,2.7
		c0.341,1.36,0.811,2.61,1.4,3.75c0.94,1.53,1.92,2.53,2.96,3c1.03,0.46,1.98,0.7,2.85,0.7c2.53,0,4.66-1.87,6.4-5.6
		c0.33-0.67,0.78-1.85,1.35-3.55c0.41-1.23,0.91-2.8,1.521-4.72c0.22,4.07,0.89,7.26,2.01,9.57c1.53,3.2,3.88,4.8,7.07,4.8
		c2.58,0,4.74-1.4,6.46-4.2c0.399-0.67,0.83-1.57,1.3-2.7c0.46-1.14,0.99-2.57,1.59-4.3v-0.2c0.2-0.8,0.38-1.55,0.55-2.25
		c0.16-0.7,0.311-1.39,0.44-2.05c0.94,0.33,1.57,0.55,1.9,0.65c0.34,0.1,0.6,0.15,0.8,0.15c2.02,0,3.779-0.83,5.279-2.48
		c0.021,0.82,0.061,1.65,0.12,2.48c0.07,1.33,0.13,2.68,0.2,4.05c0.07,1.36,0.13,2.71,0.2,4.05v0.1c0.2,1.26,0.52,2.26,0.95,3
		c0.43,0.73,0.92,1.3,1.45,1.7c0.529,0.4,1.079,0.66,1.649,0.8c0.57,0.13,1.05,0.2,1.45,0.2c0.8,0,1.479-0.24,2.05-0.7
		c0.57-0.47,1.021-1.02,1.351-1.65c0.329-0.64,0.6-1.27,0.8-1.9c0.2-0.64,0.37-1.12,0.5-1.45c0.67-2.47,1.27-4.72,1.8-6.75
		c0.53-2.04,1-3.89,1.4-5.55c0.13,2.33,0.279,4.3,0.449,5.9c0.17,1.6,0.351,2.86,0.551,3.8c1,5.86,3.27,8.8,6.8,8.8
		c1.67,0,3.3-1.54,4.899-4.6c0.011-0.02,0.021-0.05,0.03-0.07c0.33,0.89,0.92,1.78,1.771,2.67c2,2.2,4.27,3.3,6.8,3.3
		c2.399,0,4.43-1.24,6.1-3.7c1.47-2.14,2.2-4.94,2.2-8.4C505.123,97.731,504.923,96.081,504.523,94.051z M315.583,80.001
		c-0.1,1.16-0.2,2.23-0.28,3.2c-0.649,2.61-1.29,4.96-1.92,7.05c-0.83,2.76-1.609,5.05-2.35,6.85c-0.53,1.13-0.98,2-1.351,2.6
		c-0.359,0.6-0.68,1.06-0.949,1.4c-0.271,0.33-0.53,0.56-0.801,0.7c-0.13,0-0.38-0.34-0.75-1c-0.359-0.67-0.649-2.07-0.85-4.2
		c-0.06-0.74-0.12-2.09-0.15-4.05c-0.029-1.97-0.05-4.55-0.05-7.75c0-0.14,0.021-0.4,0.05-0.8c0.03-0.4,0.101-1.07,0.2-2
		c0.101-0.94,0.22-2.2,0.351-3.8c0.14-1.6,0.34-3.67,0.6-6.2c0.34-3,0.59-5.52,0.75-7.55c0.17-2.04,0.32-3.52,0.45-4.45l3.1-0.2
		c0.74,0,1.601-0.04,2.601-0.1c0.159-0.01,0.34-0.03,0.52-0.05c0.03,0.02,0.05,0.04,0.08,0.05c0.2,0.13,0.57,0.28,1.1,0.45
		c0.53,0.16,1.101,0.18,1.7,0.05C316.703,68.661,316.013,75.261,315.583,80.001z M447.673,95.551c-0.3,1.23-0.95,2.95-1.95,5.15
		c-0.6,1.26-1.05,2.11-1.35,2.55c-0.3,0.43-0.51,0.71-0.65,0.85c-0.659-0.07-1.199-0.45-1.6-1.15c-0.4-0.7-0.71-1.57-0.95-2.6
		c-0.229-1.04-0.38-2.12-0.45-3.25c-0.06-1.14-0.1-2.17-0.1-3.1c0-1.54,0.14-3.35,0.4-5.45c0.27-2.1,0.67-4.55,1.199-7.35
		c0.341-1.8,0.65-3.27,0.95-4.4c0.3-1.14,0.57-2.02,0.8-2.65c0.24-0.64,0.44-1.09,0.601-1.35c0.17-0.27,0.29-0.44,0.35-0.5
		c0.54,0,0.97,0.15,1.3,0.45c0.341,0.3,0.5,0.91,0.5,1.85v0.85c0,0.36-0.029,0.81-0.1,1.35c-0.13,0.53-0.2,1-0.2,1.4v1.1
		c0,0.33,0.05,0.9,0.15,1.7c0.1,0.8,0.35,2.26,0.75,4.4c0.27,1.53,0.47,2.93,0.6,4.2c0.141,1.26,0.2,2.36,0.2,3.3
		C448.123,93.431,447.973,94.311,447.673,95.551z M497.423,103.901c-0.399,0.73-0.82,1.18-1.25,1.35
		c-0.43,0.16-0.82,0.25-1.149,0.25c-0.801,0-1.671-0.97-2.601-2.9c-0.07-1.34-0.37-2.15-0.899-2.45c-0.351-0.2-0.66-0.33-0.921-0.39
		c0.73-1.87,1.48-3.97,2.25-6.33c0,0,0-0.01,0.011-0.02c0.09-0.11,0.18-0.24,0.26-0.36c0.33-0.5,0.6-1.02,0.8-1.55
		c0.2-0.54,0.37-0.94,0.5-1.2v-0.1c0.271-0.8,0.5-1.62,0.7-2.45c0.2-0.84,0.43-1.65,0.7-2.45c0.13,0.4,0.25,0.81,0.35,1.25
		c0.101,0.43,0.22,0.81,0.351,1.15v0.1c1.329,4.6,2,8.2,2,10.8C498.523,100.801,498.153,102.561,497.423,103.901z M17.794,159.564
		c-2.68,0.668-4.311,3.382-3.643,6.061c0.668,2.68,3.383,4.311,6.062,3.643l0.034-0.009c0,0,0.553-0.138,1.623-0.404
		c1.066-0.258,2.65-0.64,4.716-1.14c4.151-0.99,10.269-2.397,18.084-4.086c7.812-1.703,17.329-3.651,28.271-5.783
		c10.949-2.092,23.32-4.387,36.863-6.628c13.531-2.311,28.242-4.504,43.818-6.732c15.592-2.095,32.049-4.241,49.124-6.011
		c17.064-1.889,34.743-3.38,52.722-4.744c4.494-0.336,9.012-0.578,13.541-0.874c4.531-0.263,9.072-0.608,13.629-0.808
		c4.556-0.208,9.121-0.419,13.691-0.628l6.857-0.315l6.865-0.199c4.578-0.13,9.155-0.26,13.729-0.39l3.43-0.097l3.428-0.034
		c2.285-0.022,4.567-0.045,6.849-0.067c4.562-0.044,9.115-0.088,13.654-0.132c4.539,0.043,9.065,0.087,13.573,0.131
		c4.508,0.066,9.001,0.047,13.467,0.182c4.467,0.141,8.911,0.28,13.328,0.418c8.84,0.192,17.554,0.746,26.132,1.2
		c8.585,0.371,16.995,1.159,25.241,1.777c8.254,0.553,16.287,1.512,24.123,2.307c1.958,0.206,3.903,0.408,5.834,0.61
		c1.933,0.197,3.851,0.393,5.744,0.666c3.793,0.503,7.528,0.999,11.201,1.486c3.674,0.487,7.286,0.966,10.832,1.436
		c3.536,0.528,6.994,1.127,10.389,1.67c3.393,0.553,6.715,1.095,9.963,1.625c1.624,0.265,3.229,0.527,4.814,0.786
		c1.585,0.262,3.136,0.601,4.676,0.893c6.151,1.206,11.985,2.35,17.469,3.425c1.369,0.277,2.725,0.515,4.043,0.812
		c1.316,0.306,2.611,0.606,3.883,0.901c2.543,0.59,4.994,1.159,7.35,1.706c4.713,1.093,9.041,2.098,12.95,3.005
		c15.496,4.202,24.351,6.603,24.351,6.603s-8.815-2.552-24.242-7.019c-3.896-0.974-8.209-2.053-12.905-3.227
		c-2.349-0.588-4.792-1.199-7.328-1.833c-1.268-0.317-2.559-0.64-3.872-0.968c-1.314-0.319-2.666-0.581-4.032-0.881
		c-5.472-1.17-11.294-2.415-17.433-3.728c-1.537-0.318-3.085-0.684-4.668-0.974c-1.583-0.286-3.186-0.576-4.808-0.869
		c-3.243-0.586-6.562-1.185-9.951-1.797c-3.391-0.602-6.846-1.262-10.381-1.85c-3.544-0.532-7.153-1.073-10.826-1.624
		c-3.673-0.551-7.408-1.112-11.201-1.681c-1.895-0.306-3.813-0.534-5.745-0.766c-1.932-0.234-3.877-0.472-5.837-0.71
		c-7.839-0.93-15.88-2.029-24.143-2.724c-8.255-0.76-16.68-1.694-25.279-2.213c-8.594-0.602-17.328-1.306-26.189-1.649
		c-4.429-0.215-8.884-0.43-13.362-0.647c-4.479-0.211-8.984-0.269-13.506-0.412c-4.523-0.121-9.063-0.242-13.618-0.363
		c-4.555-0.034-9.124-0.067-13.701-0.101c-2.29-0.017-4.581-0.034-6.874-0.05l-3.441-0.024l-3.442,0.04
		c-4.592,0.051-9.188,0.104-13.784,0.155l-6.894,0.083l-6.888,0.199c-4.592,0.132-9.178,0.265-13.754,0.397
		c-4.578,0.122-9.141,0.391-13.693,0.578c-4.551,0.219-9.093,0.385-13.61,0.646c-18.069,1.061-35.85,2.256-53.017,3.862
		c-17.181,1.486-33.746,3.359-49.447,5.198c-15.686,1.971-30.508,3.923-44.15,6.015c-13.652,2.021-26.132,4.118-37.186,6.035
		c-11.047,1.958-20.664,3.756-28.57,5.339c-7.909,1.57-14.111,2.886-18.344,3.819c-2.124,0.475-3.752,0.839-4.85,1.084
		c-1.091,0.252-1.654,0.383-1.654,0.383C17.857,159.549,17.813,159.56,17.794,159.564z M49.995,184.429
		c0.023-0.008,0.046-0.016,0.068-0.025c2.59-0.962,3.908-3.839,2.946-6.429c-0.962-2.589-3.84-3.908-6.429-2.946
		c0,0-0.5,0.186-1.467,0.545c-0.137,0.053-0.281,0.109-0.434,0.17c-0.176,0.071-0.313,0.121-0.712,0.305l-0.204,0.101
		c-0.123,0.064-0.245,0.133-0.365,0.206c-0.275,0.168-0.543,0.369-0.787,0.591c0.929-1.725-3.359,3.287-0.492,6.866
		c0.592,1.258,3.758,1.999,3.52,1.801c0.169,0.011,0.339,0.014,0.509,0.01l0.337-0.02l0.15-0.016l0.24-0.033l0.278-0.048
		c0.225-0.048,0.458-0.099,0.702-0.151c0.734-0.186,1.584-0.402,2.547-0.646c3.658-0.958,9.021-2.363,15.849-4.152
		c13.639-3.5,33.194-8.263,56.843-13.204c23.645-4.946,51.381-10.065,81.281-14.414c29.895-4.361,61.953-7.938,94.122-10.082
		c32.166-2.166,64.438-2.874,94.667-2.04c30.229,0.803,58.398,3.168,82.399,6.315c24.009,3.122,43.839,6.989,57.63,10.057
		c6.897,1.531,12.292,2.85,15.964,3.771c3.668,0.941,5.624,1.442,5.624,1.442s-1.946-0.539-5.596-1.55
		c-3.654-0.993-9.023-2.416-15.895-4.082c-13.739-3.336-33.515-7.592-57.511-11.185c-23.986-3.619-52.186-6.538-82.5-7.93
		c-30.313-1.423-62.724-1.34-95.069,0.209c-32.348,1.529-64.625,4.499-94.756,8.301c-30.135,3.789-58.123,8.396-82.008,12.912
		c-23.887,4.511-43.675,8.925-57.484,12.187c-6.881,1.661-12.287,2.966-15.974,3.856c-0.876,0.205-1.651,0.385-2.319,0.542
		c-0.109,0.021-0.215,0.042-0.314,0.062c-0.025,0.005,0.016-0.004,0.035-0.006l0.12-0.017l0.091-0.009l0.277-0.016
		c0.15-0.004,0.301,0,0.449,0.011c-0.259-0.195,2.89,0.534,3.463,1.787c2.867,3.561-1.412,8.552-0.465,6.819
		c-0.229,0.21-0.48,0.399-0.74,0.557c-0.086,0.054-0.174,0.104-0.264,0.15l-0.102,0.051c-0.122,0.057,0.008,0,0.088-0.027
		c0.104-0.039,0.201-0.074,0.293-0.108c0.873-0.305,1.323-0.462,1.323-0.462L49.995,184.429z"/>
</g>
<g id="about_us">
</g>
<g id="landing">
</g>
</svg>
