<?xml version="1.0" encoding="utf-8"?>
<!-- Generator: Adobe Illustrator 16.0.0, SVG Export Plug-In . SVG Version: 6.00 Build 0)  -->
<!DOCTYPE svg PUBLIC "-//W3C//DTD SVG 1.1//EN" "http://www.w3.org/Graphics/SVG/1.1/DTD/svg11.dtd">
<svg version="1.1" id="Layer_1" xmlns="http://www.w3.org/2000/svg" xmlns:xlink="http://www.w3.org/1999/xlink" x="0px" y="0px"
	 width="800px" height="800px" viewBox="0 0 800 800" enable-background="new 0 0 800 800" xml:space="preserve">
<polygon class="onlinegon" fill="#A71E36" points="344.676,236.348 332.55,229.058 337.471,222.029 "/>
<polygon class="onlinegon" fill="#F38888" points="349.773,248.214 332.199,250.499 344.676,236.348 "/>
<polygon class="onlinegon" fill="#F9D7C1" points="362.511,236.438 344.676,236.348 355.48,229.67 "/>
<polygon class="onlinegon" fill="#EF5054" points="355.48,229.67 344.676,236.348 352.233,222.029 "/>
<polygon class="onlinegon" fill="#EC3039" points="373.146,241.972 364.654,257.583 362.511,236.438 "/>
<polygon class="onlinegon" fill="#F38888" points="386.15,241.269 379.649,255.3 373.146,241.972 "/>
<polygon class="onlinegon" fill="#EC3039" points="394.938,254.808 391.247,262.006 388.084,269.831 379.649,255.3 "/>
<polygon class="onlinegon" fill="#EF5054" points="394.938,254.808 379.649,255.3 386.15,241.269 "/>
<polygon class="onlinegon" fill="#F9D7C1" points="388.084,269.831 388,282.132 371.795,270.125 "/>
<polygon class="onlinegon" fill="#A71E36" points="388,282.132 370.98,285.238 371.795,270.125 "/>
<polygon class="onlinegon" fill="#EF5054" points="332.727,237.403 325.958,235.998 332.55,229.058 "/>
<polygon class="onlinegon" fill="#A71E36" points="332.199,250.499 316.854,253.31 316.854,242.063 "/>
<polygon class="onlinegon" fill="#A71E36" points="316.854,242.063 306.014,253.894 302.239,241.711 "/>
<polygon class="onlinegon" fill="#F9D7C1" points="306.014,253.894 293.621,256.474 302.239,241.711 "/>
<polygon class="onlinegon" fill="#EC3039" points="320.249,262.448 301.62,268.423 306.014,253.894 "/>
<polygon class="onlinegon" fill="#A71E36" points="316.854,275.979 301.093,283.714 301.62,268.423 "/>
<polygon class="onlinegon" fill="#EF5054" points="319.019,288.016 301.093,283.714 316.854,275.979 "/>
<polygon class="onlinegon" fill="#A71E36" points="326.224,297.771 309.177,296.099 319.019,288.016 "/>
<polygon class="onlinegon" fill="#EF5054" points="320.333,311.304 304.433,311.479 309.177,296.099 "/>
<polygon class="onlinegon" fill="#F38888" points="309.177,296.099 304.433,311.479 294.064,295.228 "/>
<polygon class="onlinegon" fill="#A71E36" points="309.177,296.099 294.064,295.228 301.093,283.714 "/>
<polygon class="onlinegon" fill="#F9D7C1" points="338.526,302.813 330.441,318.958 330.266,318.685 320.333,311.304 "/>
<polygon class="onlinegon" fill="#F38888" points="351.178,302.813 346.433,314.938 338.526,302.813 "/>
<polygon class="onlinegon" fill="#F38888" points="346.433,314.938 337.471,329.841 330.441,318.958 "/>
<polygon class="onlinegon" fill="#A71E36" points="354.258,329.406 337.471,329.841 346.433,314.938 "/>
<polygon class="onlinegon" fill="#EF5054" points="362.862,315.614 354.258,329.406 346.433,314.938 "/>
<polygon class="onlinegon" fill="#EC3039" points="362.862,315.614 346.433,314.938 351.178,302.813 "/>
<polygon class="onlinegon" fill="#F9D7C1" points="372.795,309.991 362.862,315.614 362.601,298.124 "/>
<polygon class="onlinegon" fill="#EC3039" points="395.38,295.044 380,293.906 388,282.132 "/>
<polygon class="onlinegon" fill="#F9D7C1" points="395.38,295.044 387.114,309.991 380,293.906 "/>
<polygon class="onlinegon" fill="#EC3039" points="387.114,309.991 372.795,309.991 380,293.906 "/>
<polygon class="onlinegon" fill="#F38888" points="352.233,222.029 344.676,236.348 337.471,222.029 "/>
<polygon class="onlinegon" fill="#EC3039" points="344.676,236.348 332.727,237.403 332.55,229.058 "/>
<polygon class="onlinegon" fill="#EF5054" points="344.676,236.348 332.199,250.499 332.727,237.403 "/>
<polygon class="onlinegon" fill="#F38888" points="332.199,250.499 316.854,242.063 325.958,235.998 "/>
<polygon class="onlinegon" fill="#A71E36" points="332.727,237.403 332.199,250.499 325.958,235.998 "/>
<polygon class="onlinegon" fill="#EF5054" points="306.014,253.894 301.62,268.423 293.621,256.474 "/>
<polygon class="onlinegon" fill="#F38888" points="316.854,242.063 316.854,253.31 306.014,253.894 "/>
<polygon class="onlinegon" fill="#EF5054" points="332.199,250.499 320.249,262.448 316.854,253.31 "/>
<polygon class="onlinegon" fill="#F9D7C1" points="320.249,262.448 306.014,253.894 316.854,253.31 "/>
<polygon class="onlinegon" fill="#F38888" points="320.249,262.448 316.854,275.979 301.62,268.423 "/>
<polygon class="onlinegon" fill="#F9D7C1" points="319.019,288.016 309.177,296.099 301.093,283.714 "/>
<polygon class="onlinegon" fill="#EC3039" points="326.224,297.771 320.333,311.304 309.177,296.099 "/>
<polygon class="onlinegon" fill="#A71E36" points="338.526,302.813 320.333,311.304 326.224,297.771 "/>
<polygon class="onlinegon" fill="#EF5054" points="346.433,314.938 330.441,318.958 338.526,302.813 "/>
<polygon class="onlinegon" fill="#A71E36" points="362.862,315.614 351.178,302.813 362.601,298.124 "/>
<polygon class="onlinegon" fill="#EF5054" points="380,293.906 372.795,309.991 362.601,298.124 "/>
<polygon class="onlinegon" fill="#F38888" points="380,293.906 362.601,298.124 370.98,285.238 "/>
<polygon class="onlinegon" fill="#EF5054" points="388,282.132 380,293.906 370.98,285.238 "/>
<polygon class="onlinegon" fill="#EF5054" points="388.084,269.831 371.795,270.125 379.649,255.3 "/>
<polygon class="onlinegon" fill="#A71E36" points="379.649,255.3 364.654,257.583 373.146,241.972 "/>
<polygon class="onlinegon" fill="#F9D7C1" points="379.649,255.3 371.795,270.125 364.654,257.583 "/>
<polygon class="onlinegon" fill="#A71E36" points="362.511,236.438 349.773,248.214 344.676,236.348 "/>
<polygon class="onlinegon" fill="#EF5054" points="364.654,257.583 349.773,248.214 362.511,236.438 "/>
<polygon class="onlinegon" fill="#A71E36" points="375.993,400.946 376.041,383.056 386.861,383.838 "/>
<polygon class="onlinegon" fill="#F38888" points="366.42,414.173 352.54,396.581 375.993,400.946 "/>
<polygon class="onlinegon" fill="#F9D7C1" points="387.462,420.363 375.993,400.946 390.25,408.342 "/>
<polygon class="onlinegon" fill="#EF5054" points="390.25,408.342 375.993,400.946 396.438,399.861 "/>
<polygon class="onlinegon" fill="#EC3039" points="388.355,435.495 365.901,436.405 387.462,420.363 "/>
<polygon class="onlinegon" fill="#F38888" points="397.554,449.153 378.106,451.199 388.355,435.495 "/>
<polygon class="onlinegon" fill="#EC3039" points="388.558,467.472 378.352,468.138 367.807,469.778 378.106,451.199 "/>
<polygon class="onlinegon" fill="#EF5054" points="388.558,467.472 378.106,451.199 397.554,449.153 "/>
<polygon class="onlinegon" fill="#F9D7C1" points="367.807,469.778 354.399,477.667 356.921,452.293 "/>
<polygon class="onlinegon" fill="#A71E36" points="354.399,477.667 339.988,461.207 356.921,452.293 "/>
<polygon class="onlinegon" fill="#EF5054" points="367.098,388.658 364.232,380.399 376.041,383.056 "/>
<polygon class="onlinegon" fill="#A71E36" points="352.54,396.581 339.535,381.748 351.743,374.453 "/>
<polygon class="onlinegon" fill="#A71E36" points="351.743,374.453 331.871,370.36 342.646,358.361 "/>
<polygon class="onlinegon" fill="#F9D7C1" points="331.871,370.36 321.032,358.583 342.646,358.361 "/>
<polygon class="onlinegon" fill="#EC3039" points="331.818,391.361 313.251,375.017 331.871,370.36 "/>
<polygon class="onlinegon" fill="#A71E36" points="314.928,396.452 296.312,384.363 313.251,375.017 "/>
<polygon class="onlinegon" fill="#EF5054" points="303.27,406.608 296.312,384.363 314.928,396.452 "/>
<polygon class="onlinegon" fill="#A71E36" points="297.353,420.76 288.112,401.17 303.27,406.608 "/>
<polygon class="onlinegon" fill="#EF5054" points="278.845,423.143 268.34,405.998 288.112,401.17 "/>
<polygon class="onlinegon" fill="#F38888" points="288.112,401.17 268.34,405.998 279.256,384.202 "/>
<polygon class="onlinegon" fill="#A71E36" points="288.112,401.17 279.256,384.202 296.312,384.363 "/>
<polygon class="onlinegon" fill="#F9D7C1" points="299.861,437.38 277.091,439.078 277.276,438.711 278.845,423.143 "/>
<polygon class="onlinegon" fill="#F38888" points="308.068,451.115 291.829,453.83 299.861,437.38 "/>
<polygon class="onlinegon" fill="#F38888" points="291.829,453.83 269.841,453.766 277.091,439.078 "/>
<polygon class="onlinegon" fill="#A71E36" points="281.202,471.704 269.841,453.766 291.829,453.83 "/>
<polygon class="onlinegon" fill="#EF5054" points="301.752,472.1 281.202,471.704 291.829,453.83 "/>
<polygon class="onlinegon" fill="#EC3039" points="301.752,472.1 291.829,453.83 308.068,451.115 "/>
<polygon class="onlinegon" fill="#F9D7C1" points="314.299,479.233 301.752,472.1 320.567,460.471 "/>
<polygon class="onlinegon" fill="#EC3039" points="345.17,494.053 336.43,476.622 354.399,477.667 "/>
<polygon class="onlinegon" fill="#F9D7C1" points="345.17,494.053 323.587,494.773 336.43,476.622 "/>
<polygon class="onlinegon" fill="#EC3039" points="323.587,494.773 314.299,479.233 336.43,476.622 "/>
<polygon class="onlinegon" fill="#F38888" points="396.438,399.861 375.993,400.946 386.861,383.838 "/>
<polygon class="onlinegon" fill="#EC3039" points="375.993,400.946 367.098,388.658 376.041,383.056 "/>
<polygon class="onlinegon" fill="#EF5054" points="375.993,400.946 352.54,396.581 367.098,388.658 "/>
<polygon class="onlinegon" fill="#F38888" points="352.54,396.581 351.743,374.453 364.232,380.399 "/>
<polygon class="onlinegon" fill="#A71E36" points="367.098,388.658 352.54,396.581 364.232,380.399 "/>
<polygon class="onlinegon" fill="#EF5054" points="331.871,370.36 313.251,375.017 321.032,358.583 "/>
<polygon class="onlinegon" fill="#F38888" points="351.743,374.453 339.535,381.748 331.871,370.36 "/>
<polygon class="onlinegon" fill="#EF5054" points="352.54,396.581 331.818,391.361 339.535,381.748 "/>
<polygon class="onlinegon" fill="#F9D7C1" points="331.818,391.361 331.871,370.36 339.535,381.748 "/>
<polygon class="onlinegon" fill="#F38888" points="331.818,391.361 314.928,396.452 313.251,375.017 "/>
<polygon class="onlinegon" fill="#F9D7C1" points="303.27,406.608 288.112,401.17 296.312,384.363 "/>
<polygon class="onlinegon" fill="#EC3039" points="297.353,420.76 278.845,423.143 288.112,401.17 "/>
<polygon class="onlinegon" fill="#A71E36" points="299.861,437.38 278.845,423.143 297.353,420.76 "/>
<polygon class="onlinegon" fill="#EF5054" points="291.829,453.83 277.091,439.078 299.861,437.38 "/>
<polygon class="onlinegon" fill="#A71E36" points="301.752,472.1 308.068,451.115 320.567,460.471 "/>
<polygon class="onlinegon" fill="#EF5054" points="336.43,476.622 314.299,479.233 320.567,460.471 "/>
<polygon class="onlinegon" fill="#F38888" points="336.43,476.622 320.567,460.471 339.988,461.207 "/>
<polygon class="onlinegon" fill="#EF5054" points="354.399,477.667 336.43,476.622 339.988,461.207 "/>
<polygon class="onlinegon" fill="#EF5054" points="367.807,469.778 356.921,452.293 378.106,451.199 "/>
<polygon class="onlinegon" fill="#A71E36" points="378.106,451.199 365.901,436.405 388.355,435.495 "/>
<polygon class="onlinegon" fill="#F9D7C1" points="378.106,451.199 356.921,452.293 365.901,436.405 "/>
<polygon class="onlinegon" fill="#A71E36" points="387.462,420.363 366.42,414.173 375.993,400.946 "/>
<polygon class="onlinegon" fill="#EF5054" points="365.901,436.405 366.42,414.173 387.462,420.363 "/>
<polygon class="onlinegon" fill="#A71E36" points="510.263,292.159 499.533,269.73 513.553,264.183 "/>
<polygon class="onlinegon" fill="#F38888" points="506.253,314.495 478.266,300.838 510.263,292.159 "/>
<polygon class="onlinegon" fill="#F9D7C1" points="536.332,309.552 510.263,292.159 532.571,292.818 "/>
<polygon class="onlinegon" fill="#EF5054" points="532.571,292.818 510.263,292.159 535.203,278.469 "/>
<polygon class="onlinegon" fill="#EC3039" points="546.577,327.96 519.014,342.641 536.332,309.552 "/>
<polygon class="onlinegon" fill="#F38888" points="566.331,339.515 543.215,353.801 546.577,327.96 "/>
<polygon class="onlinegon" fill="#EC3039" points="566.116,367.877 553.735,374.864 541.524,383.277 543.215,353.801 "/>
<polygon class="onlinegon" fill="#EF5054" points="566.116,367.877 543.215,353.801 566.331,339.515 "/>
<polygon class="onlinegon" fill="#F9D7C1" points="541.524,383.277 529.495,401.239 517.352,367.946 "/>
<polygon class="onlinegon" fill="#A71E36" points="529.495,401.239 501.526,389.325 517.352,367.946 "/>
<polygon class="onlinegon" fill="#EF5054" points="491.713,282.14 483.146,273.525 499.533,269.73 "/>
<polygon class="onlinegon" fill="#A71E36" points="478.266,300.838 453.037,290.111 463.92,273.612 "/>
<polygon class="onlinegon" fill="#A71E36" points="463.92,273.612 436.574,280.476 442.824,258.954 "/>
<polygon class="onlinegon" fill="#F9D7C1" points="436.574,280.476 415.9,272.265 442.824,258.954 "/>
<polygon class="onlinegon" fill="#EC3039" points="449.172,306.8 416.067,297.535 436.574,280.476 "/>
<polygon class="onlinegon" fill="#A71E36" points="431.096,323.361 400.496,319.45 416.067,297.535 "/>
<polygon class="onlinegon" fill="#EF5054" points="422.626,343.109 400.496,319.45 431.096,323.361 "/>
<polygon class="onlinegon" fill="#A71E36" points="423.75,364.395 400.367,345.441 422.626,343.109 "/>
<polygon class="onlinegon" fill="#EF5054" points="402.012,378.539 378.521,363.407 400.367,345.441 "/>
<polygon class="onlinegon" fill="#F38888" points="400.367,345.441 378.521,363.407 379.042,329.536 "/>
<polygon class="onlinegon" fill="#A71E36" points="400.367,345.441 379.042,329.536 400.496,319.45 "/>
<polygon class="onlinegon" fill="#F9D7C1" points="436.917,383.69 409.433,399.552 409.44,398.978 402.012,378.539 "/>
<polygon class="onlinegon" fill="#F38888" points="455.475,395.937 436.781,409.13 436.917,383.69 "/>
<polygon class="onlinegon" fill="#F38888" points="436.781,409.13 409.209,422.315 409.433,399.552 "/>
<polygon class="onlinegon" fill="#A71E36" points="434.252,437.92 409.209,422.315 436.781,409.13 "/>
<polygon class="onlinegon" fill="#EF5054" points="460.222,426.018 434.252,437.92 436.781,409.13 "/>
<polygon class="onlinegon" fill="#EC3039" points="460.222,426.018 436.781,409.13 455.475,395.937 "/>
<polygon class="onlinegon" fill="#F9D7C1" points="480.233,427.385 460.222,426.018 476.77,400.115 "/>
<polygon class="onlinegon" fill="#EC3039" points="527.822,427.323 506.368,410.768 529.495,401.239 "/>
<polygon class="onlinegon" fill="#F9D7C1" points="527.822,427.323 501.234,441.242 506.368,410.768 "/>
<polygon class="onlinegon" fill="#EC3039" points="501.234,441.242 480.233,427.385 506.368,410.768 "/>
<polygon class="onlinegon" fill="#F38888" points="535.203,278.469 510.263,292.159 513.553,264.183 "/>
<polygon class="onlinegon" fill="#EC3039" points="510.263,292.159 491.713,282.14 499.533,269.73 "/>
<polygon class="onlinegon" fill="#EF5054" points="510.263,292.159 478.266,300.838 491.713,282.14 "/>
<polygon class="onlinegon" fill="#F38888" points="478.266,300.838 463.92,273.612 483.146,273.525 "/>
<polygon class="onlinegon" fill="#A71E36" points="491.713,282.14 478.266,300.838 483.146,273.525 "/>
<polygon class="onlinegon" fill="#EF5054" points="436.574,280.476 416.067,297.535 415.9,272.265 "/>
<polygon class="onlinegon" fill="#F38888" points="463.92,273.612 453.037,290.111 436.574,280.476 "/>
<polygon class="onlinegon" fill="#EF5054" points="478.266,300.838 449.172,306.8 453.037,290.111 "/>
<polygon class="onlinegon" fill="#F9D7C1" points="449.172,306.8 436.574,280.476 453.037,290.111 "/>
<polygon class="onlinegon" fill="#F38888" points="449.172,306.8 431.096,323.361 416.067,297.535 "/>
<polygon class="onlinegon" fill="#F9D7C1" points="422.626,343.109 400.367,345.441 400.496,319.45 "/>
<polygon class="onlinegon" fill="#EC3039" points="423.75,364.395 402.012,378.539 400.367,345.441 "/>
<polygon class="onlinegon" fill="#A71E36" points="436.917,383.69 402.012,378.539 423.75,364.395 "/>
<polygon class="onlinegon" fill="#EF5054" points="436.781,409.13 409.433,399.552 436.917,383.69 "/>
<polygon class="onlinegon" fill="#A71E36" points="460.222,426.018 455.475,395.937 476.77,400.115 "/>
<polygon class="onlinegon" fill="#EF5054" points="506.368,410.768 480.233,427.385 476.77,400.115 "/>
<polygon class="onlinegon" fill="#F38888" points="506.368,410.768 476.77,400.115 501.526,389.325 "/>
<polygon class="onlinegon" fill="#EF5054" points="529.495,401.239 506.368,410.768 501.526,389.325 "/>
<polygon class="onlinegon" fill="#EF5054" points="541.524,383.277 517.352,367.946 543.215,353.801 "/>
<polygon class="onlinegon" fill="#A71E36" points="543.215,353.801 519.014,342.641 546.577,327.96 "/>
<polygon class="onlinegon" fill="#F9D7C1" points="543.215,353.801 517.352,367.946 519.014,342.641 "/>
<polygon class="onlinegon" fill="#A71E36" points="536.332,309.552 506.253,314.495 510.263,292.159 "/>
<polygon class="onlinegon" fill="#EF5054" points="519.014,342.641 506.253,314.495 536.332,309.552 "/>
<polygon class="onlinegon" fill="#A71E36" points="278.22,279.835 263.286,288.113 257.151,279.835 "/>
<polygon class="onlinegon" fill="#EC3039" points="278.22,279.835 278.22,302.237 263.286,288.113 "/>
<polygon class="onlinegon" fill="#F9D7C1" points="263.286,288.113 257.263,295.52 249.323,287.129 249.371,287.081 "/>
<polygon class="onlinegon" fill="#F9D7C1" points="243.37,302.237 222.593,302.237 233.645,291.735 "/>
<polygon class="onlinegon" fill="#A71E36" points="231.679,279.835 216.279,285.795 201.233,279.835 "/>
<polygon class="onlinegon" fill="#F38888" points="222.593,302.237 212.924,302.237 216.279,285.795 "/>
<polygon class="onlinegon" fill="#EF5054" points="204.63,296.533 204.63,296.54 204.623,296.54 191.508,289.734 201.233,279.835 "/>
<polygon class="onlinegon" fill="#EC3039" points="212.924,302.237 212.924,314.337 199.935,310.482 200.031,310.336 "/>
<polygon class="onlinegon" fill="#EC3039" points="199.844,310.455 199.893,310.539 191.508,322.786 191.508,289.734 199.949,310.142 "/>
<polygon class="onlinegon" fill="#A71E36" points="212.924,314.337 212.924,326.778 205.282,319.775 "/>
<polygon class="onlinegon" fill="#EC3039" points="212.924,326.778 212.924,339.399 199.844,331.063 "/>
<polygon class="onlinegon" fill="#F9D7C1" points="199.844,331.063 191.508,336.273 191.508,322.786 "/>
<polygon class="onlinegon" fill="#A71E36" points="197.781,348.868 197.642,348.965 197.69,348.979 191.508,356.245 191.508,336.273 197.795,348.853 
	"/>
<polygon class="onlinegon" fill="#F38888" points="204.762,351.382 191.508,356.245 197.69,348.979 "/>
<polygon class="onlinegon" fill="#A71E36" points="204.762,351.382 197.69,348.979 197.781,348.868 197.795,348.853 204.415,344.262 "/>
<polygon class="onlinegon" fill="#EF5054" points="212.924,339.399 212.924,358.329 204.762,351.382 "/>
<polygon class="onlinegon" fill="#F9D7C1" points="199.115,363.018 191.508,380.209 191.508,356.245 "/>
<polygon class="onlinegon" fill="#EF5054" points="212.924,358.329 212.924,387.337 208.235,377.882 "/>
<polygon class="onlinegon" fill="#A71E36" points="208.291,394.624 191.508,380.466 196.718,375.987 "/>
<polygon class="onlinegon" fill="#EF5054" points="197.642,395.436 191.508,404.293 191.508,380.466 "/>
<polygon class="onlinegon" fill="#A71E36" points="206.207,400.758 191.508,404.293 197.642,395.436 "/>
<polygon class="onlinegon" fill="#F38888" points="208.291,394.624 206.207,400.758 197.642,395.436 "/>
<polygon class="onlinegon" fill="#EC3039" points="212.924,387.337 212.924,403.023 208.291,394.624 "/>
<polygon class="onlinegon" fill="#F9D7C1" points="212.924,403.023 212.924,420.271 199.149,416.623 "/>
<polygon class="onlinegon" fill="#F38888" points="199.149,416.623 191.508,433.237 191.508,404.293 "/>
<polygon class="onlinegon" fill="#A71E36" points="212.924,420.271 212.924,443.831 208.929,433.523 "/>
<polygon class="onlinegon" fill="#F38888" points="199.378,446.549 191.508,449.334 191.508,433.237 "/>
<polygon class="onlinegon" fill="#F9D7C1" points="212.924,443.831 212.924,464.783 209.451,450.891 "/>
<polygon class="onlinegon" fill="#A71E36" points="212.924,464.783 197.642,461.307 209.451,450.891 "/>
<polygon class="onlinegon" fill="#EF5054" points="197.642,461.307 191.508,475.265 191.508,449.334 "/>
<polygon class="onlinegon" fill="#EF5054" points="199.204,487.356 191.508,496.388 191.508,475.265 "/>
<polygon class="onlinegon" fill="#F9D7C1" points="212.924,464.783 212.924,492.956 209.388,480.092 209.451,480.05 "/>
<polygon class="onlinegon" fill="#A71E36" points="206.325,496.214 191.508,496.388 199.204,487.356 "/>
<polygon class="onlinegon" fill="#EF5054" points="212.924,492.956 212.924,512.712 206.325,496.214 "/>
<polygon class="onlinegon" fill="#A71E36" points="195.384,512.191 191.508,524.521 191.508,496.388 "/>
<polygon class="onlinegon" fill="#EF5054" points="201.692,534.246 191.508,524.521 195.384,512.191 "/>
<polygon class="onlinegon" fill="#A71E36" points="215.008,528.342 205.977,520.7 195.384,512.191 212.924,512.712 "/>
<polygon class="onlinegon" fill="#F38888" points="229.248,534.246 201.692,534.246 215.008,528.342 "/>
<polygon class="onlinegon" fill="#EF5054" points="229.248,534.246 215.008,528.342 221.433,520.354 "/>
<polygon class="onlinegon" fill="#EF5054" points="234.979,512.712 221.433,520.354 212.924,512.712 "/>
<polygon class="onlinegon" fill="#F9D7C1" points="252.344,534.246 229.248,534.246 242.967,528.342 "/>
<polygon class="onlinegon" fill="#A71E36" points="265.938,526.258 242.967,528.342 254.081,518.616 "/>
<polygon class="onlinegon" fill="#F9D7C1" points="266.529,512.712 254.081,518.616 234.979,512.712 "/>
<polygon class="onlinegon" fill="#A71E36" points="270.634,534.246 252.344,534.246 265.938,526.258 "/>
<polygon class="onlinegon" fill="#F38888" points="298.448,512.712 278.568,519.485 266.529,512.712 "/>
<polygon class="onlinegon" fill="#EF5054" points="298.448,512.712 289.855,528.342 278.568,519.485 "/>
<polygon class="onlinegon" fill="#F9D7C1" points="303.171,534.246 270.634,534.246 289.855,528.342 303.137,534.002 "/>
<polygon class="onlinegon" fill="#EF5054" points="303.137,534.002 289.855,528.342 301.143,518.964 "/>
<polygon class="onlinegon" fill="#F9D7C1" points="344.557,512.712 321.468,517.748 298.448,512.712 "/>
<polygon class="onlinegon" fill="#EF5054" points="324.816,534.246 303.171,534.246 303.137,534.002 312.604,525.563 324.768,534.002 "/>
<polygon class="onlinegon" fill="#A71E36" points="344.557,512.712 334.485,527.474 321.468,517.748 "/>
<polygon class="onlinegon" fill="#EF5054" points="345.135,534.246 324.816,534.246 334.485,527.474 "/>
<polygon class="onlinegon" fill="#EF5054" points="369.621,534.246 345.135,534.246 357.208,528.342 "/>
<polygon class="onlinegon" fill="#EF5054" points="400.649,512.712 377.728,518.616 344.557,512.712 "/>
<polygon class="onlinegon" fill="#EF5054" points="386.756,534.246 369.621,534.246 377.728,518.616 "/>
<polygon class="onlinegon" fill="#F38888" points="412.979,520.7 396.356,527.043 396.134,527.126 377.728,518.616 "/>
<polygon class="onlinegon" fill="#EF5054" points="428.524,512.712 412.979,520.7 400.649,512.712 "/>
<polygon class="onlinegon" fill="#EF5054" points="420.502,534.246 404.762,534.246 412.979,520.7 "/>
<polygon class="onlinegon" fill="#EF5054" points="404.762,534.246 386.756,534.246 396.19,527.168 "/>
<polygon class="onlinegon" fill="#EF5054" points="436.249,534.246 420.502,534.246 428.582,527.258 "/>
<polygon class="onlinegon" fill="#F38888" points="466.118,512.712 433.992,521.222 428.524,512.712 "/>
<polygon class="onlinegon" fill="#EF5054" points="449.565,534.246 436.249,534.246 446.989,527.646 "/>
<polygon class="onlinegon" fill="#F38888" points="467.162,534.246 449.565,534.246 460.27,523.945 "/>
<polygon class="onlinegon" fill="#F38888" points="498.337,512.712 488.174,520.874 466.118,512.712 "/>
<polygon class="onlinegon" fill="#F38888" points="489.507,534.246 467.162,534.246 480.013,524.521 "/>
<polygon class="onlinegon" fill="#EC3039" points="500.498,527.939 480.013,524.521 488.174,520.874 "/>
<polygon class="onlinegon" fill="#A71E36" points="519.377,534.246 489.507,534.246 500.906,528.175 501.197,528.342 501.483,528.168 "/>
<polygon class="onlinegon" fill="#EF5054" points="519.377,534.246 501.483,528.168 519.197,517.229 "/>
<polygon class="onlinegon" fill="#EF5054" points="541.661,512.712 519.197,517.229 498.337,512.712 "/>
<polygon class="onlinegon" fill="#EF5054" points="535.583,534.246 519.377,534.246 529.331,524 "/>
<polygon class="onlinegon" fill="#F9D7C1" points="551.037,528.342 529.331,524 541.661,512.712 "/>
<polygon class="onlinegon" fill="#EF5054" points="571.877,512.712 553.123,519.138 541.661,512.712 "/>
<polygon class="onlinegon" fill="#EF5054" points="564.18,534.246 535.583,534.246 551.037,528.342 "/>
<polygon class="onlinegon" fill="#F38888" points="581.604,534.246 564.18,534.246 576.914,525.042 "/>
<polygon class="onlinegon" fill="#EF5054" points="587.158,518.616 581.604,534.246 576.914,525.042 "/>
<polygon class="onlinegon" fill="#EF5054" points="599.023,534.246 581.604,534.246 596.884,528.342 "/>
<polygon class="onlinegon" fill="#EF5054" points="608.639,523.132 599.023,534.246 596.884,528.342 "/>
<polygon class="onlinegon" fill="#EF5054" points="587.158,518.616 571.877,512.712 586.292,512.712 "/>
<polygon class="onlinegon" fill="#F38888" points="602.442,515.838 587.158,518.616 586.292,512.712 "/>
<polygon class="onlinegon" fill="#EF5054" points="608.639,504.07 608.639,523.132 602.442,515.838 "/>
<polygon class="onlinegon" fill="#EF5054" points="608.639,504.07 602.442,515.838 593.236,509.412 "/>
<polygon class="onlinegon" fill="#EF5054" points="593.236,509.412 586.292,512.712 586.292,496.388 "/>
<polygon class="onlinegon" fill="#F38888" points="608.639,488.226 608.639,504.07 600.358,497.43 "/>
<polygon class="onlinegon" fill="#EF5054" points="608.639,488.226 600.358,497.43 594.28,489.094 "/>
<polygon class="onlinegon" fill="#F38888" points="594.28,489.094 586.292,496.388 586.292,467.212 "/>
<polygon class="onlinegon" fill="#F9D7C1" points="601.977,475.2 594.28,489.094 586.292,467.212 "/>
<polygon class="onlinegon" fill="#EF5054" points="608.639,462.645 608.639,488.226 601.977,475.2 "/>
<polygon class="onlinegon" fill="#EF5054" points="601.977,475.2 586.292,467.212 600.358,458.008 "/>
<polygon class="onlinegon" fill="#EF5054" points="608.639,453.55 608.639,462.645 600.358,458.008 "/>
<polygon class="onlinegon" fill="#EF5054" points="593.586,450.717 586.292,467.212 586.292,437.428 "/>
<polygon class="onlinegon" fill="#EF5054" points="590.98,422.258 591.224,422.576 586.292,437.428 586.292,400.702 591.278,422.049 "/>
<polygon class="onlinegon" fill="#EF5054" points="608.639,407.036 608.639,425.883 603.31,413.552 "/>
<polygon class="onlinegon" fill="#F38888" points="608.639,407.036 603.31,413.552 586.292,400.702 "/>
<polygon class="onlinegon" fill="#F38888" points="595.67,386.115 586.292,400.702 586.292,373.75 "/>
<polygon class="onlinegon" fill="#EF5054" points="608.639,353.412 608.639,380.814 601.92,367.881 "/>
<polygon class="onlinegon" fill="#EF5054" points="601.92,367.881 586.292,373.75 586.292,359.538 "/>
<polygon class="onlinegon" fill="#A71E36" points="602.095,347.214 586.292,359.538 586.292,334.71 "/>
<polygon class="onlinegon" fill="#A71E36" points="608.639,309.1 608.639,330.542 601.574,319.775 "/>
<polygon class="onlinegon" fill="#EC3039" points="601.574,319.775 586.292,334.71 586.292,312.309 "/>
<polygon class="onlinegon" fill="#F38888" points="608.639,309.1 601.574,319.775 586.292,312.309 "/>
<polygon class="onlinegon" fill="#F38888" points="601.4,299.979 586.292,312.309 586.292,302.584 "/>
<polygon class="onlinegon" fill="#EF5054" points="599.371,279.835 591.328,289.594 586.235,279.835 "/>
<polygon class="onlinegon" fill="#F38888" points="586.292,302.584 562.673,302.542 576.219,294.771 "/>
<polygon class="onlinegon" fill="#F9D7C1" points="576.219,294.771 562.673,302.542 562.792,279.835 "/>
<polygon class="onlinegon" fill="#EF5054" points="586.235,279.835 576.219,294.771 562.792,279.835 "/>
<polygon class="onlinegon" fill="#EF5054" points="608.639,287.822 608.639,309.1 601.4,299.979 "/>
<polygon class="onlinegon" fill="#EF5054" points="608.639,330.542 608.639,353.412 602.095,347.214 "/>
<polygon class="onlinegon" fill="#A71E36" points="608.639,380.814 608.639,407.036 603.136,390.004 "/>
<polygon class="onlinegon" fill="#EF5054" points="608.639,425.883 608.639,453.55 602.095,436.823 "/>
<polygon class="onlinegon" fill="#EF5054" points="278.22,302.237 263.286,302.237 263.286,288.113 "/>
<polygon class="onlinegon" fill="#A71E36" points="257.151,279.835 249.371,287.081 249.273,287.073 249.031,287.148 249.023,287.148 231.679,279.835 
	"/>
<polygon class="onlinegon" fill="#A71E36" points="212.924,339.399 204.415,344.262 199.844,331.063 "/>
<polygon class="onlinegon" fill="#EF5054" points="204.415,344.262 197.795,348.853 199.844,331.063 "/>
<polygon class="onlinegon" fill="#F38888" points="208.291,394.624 196.718,375.987 208.235,377.882 "/>
<polygon class="onlinegon" fill="#F38888" points="541.661,512.712 529.331,524 519.197,517.229 "/>
<polygon class="onlinegon" fill="#EC3039" points="608.639,353.412 601.92,367.881 586.292,359.538 "/>
<polygon class="onlinegon" fill="#F9D7C1" points="602.095,347.214 586.292,334.71 601.574,319.775 "/>
<polygon class="onlinegon" fill="#F38888" points="263.286,288.113 263.286,302.237 257.263,295.52 "/>
<polygon class="onlinegon" fill="#F9D7C1" points="212.924,302.237 200.031,310.336 199.949,310.142 204.47,296.679 204.623,296.54 204.63,296.54 "/>
<polygon class="onlinegon" fill="#F9D7C1" points="212.924,314.337 205.282,319.775 199.893,310.539 199.935,310.482 "/>
<polygon class="onlinegon" fill="#EF5054" points="212.924,326.778 199.844,331.063 205.282,319.775 "/>
<polygon class="onlinegon" fill="#EC3039" points="212.924,339.399 204.762,351.382 204.415,344.262 "/>
<polygon class="onlinegon" fill="#EF5054" points="208.235,377.882 196.718,375.987 199.115,363.018 "/>
<polygon class="onlinegon" fill="#A71E36" points="212.924,358.329 208.235,377.882 199.115,363.018 "/>
<polygon class="onlinegon" fill="#F9D7C1" points="212.924,387.337 208.291,394.624 208.235,377.882 "/>
<polygon class="onlinegon" fill="#F9D7C1" points="212.924,403.023 206.207,400.758 208.291,394.624 "/>
<polygon class="onlinegon" fill="#A71E36" points="212.924,403.023 199.149,416.623 206.207,400.758 "/>
<polygon class="onlinegon" fill="#F38888" points="212.924,420.271 208.929,433.523 199.149,416.623 "/>
<polygon class="onlinegon" fill="#EF5054" points="212.924,443.831 209.451,450.891 208.929,433.523 "/>
<polygon class="onlinegon" fill="#A71E36" points="209.451,450.891 199.378,446.549 208.929,433.523 "/>
<polygon class="onlinegon" fill="#F9D7C1" points="209.451,450.891 197.642,461.307 199.378,446.549 "/>
<polygon class="onlinegon" fill="#EF5054" points="212.924,492.956 199.344,487.261 209.388,480.092 "/>
<polygon class="onlinegon" fill="#EF5054" points="254.081,518.616 242.967,528.342 234.979,512.712 "/>
<polygon class="onlinegon" fill="#A71E36" points="278.568,519.485 254.081,518.616 266.529,512.712 "/>
<polygon class="onlinegon" fill="#A71E36" points="321.468,517.748 312.604,525.563 298.448,512.712 "/>
<polygon class="onlinegon" fill="#EC3039" points="357.208,528.342 334.485,527.474 344.557,512.712 "/>
<polygon class="onlinegon" fill="#A71E36" points="377.728,518.616 357.208,528.342 344.557,512.712 "/>
<polygon class="onlinegon" fill="#EC3039" points="412.979,520.7 377.728,518.616 400.649,512.712 "/>
<polygon class="onlinegon" fill="#F9D7C1" points="433.992,521.222 412.979,520.7 428.524,512.712 "/>
<path fill="#F38888" d="M433.992,521.222c-0.521,0.175-5.559,5.904-5.559,5.904l-15.455-6.426L433.992,521.222z"/>
<path fill="#EF5054" d="M446.989,527.646l-18.263-0.515l-0.293-0.007c0,0,5.036-5.73,5.559-5.904
	C434.513,521.048,446.989,527.646,446.989,527.646z"/>
<path fill="#EC3039" d="M466.118,512.712l-19.129,14.937c0,0-12.478-6.601-12.997-6.427L466.118,512.712z"/>
<polygon class="onlinegon" fill="#EC3039" points="480.013,524.521 460.27,523.945 466.118,512.712 "/>
<polygon class="onlinegon" fill="#EF5054" points="488.174,520.874 480.013,524.521 466.118,512.712 "/>
<polygon class="onlinegon" fill="#EF5054" points="600.358,497.43 586.292,496.388 594.28,489.094 "/>
<polygon class="onlinegon" fill="#F9D7C1" points="600.358,458.008 586.292,467.212 593.586,450.717 "/>
<polygon class="onlinegon" fill="#EF5054" points="602.095,436.823 600.358,458.008 593.586,450.717 "/>
<polygon class="onlinegon" fill="#F38888" points="608.639,425.883 591.328,422.258 591.278,422.049 603.31,413.552 "/>
<polygon class="onlinegon" fill="#F9D7C1" points="603.31,413.552 591.278,422.049 586.292,400.702 "/>
<polygon class="onlinegon" fill="#EC3039" points="608.639,407.036 586.292,400.702 603.136,390.004 "/>
<polygon class="onlinegon" fill="#EF5054" points="608.639,380.814 603.136,390.004 595.67,386.115 "/>
<polygon class="onlinegon" fill="#A71E36" points="602.095,436.823 593.586,450.717 586.292,437.428 "/>
<polygon class="onlinegon" fill="#F9D7C1" points="602.095,436.823 586.292,437.428 591.224,422.576 "/>
<polygon class="onlinegon" fill="#A71E36" points="603.136,390.004 586.292,400.702 595.67,386.115 "/>
<polygon class="onlinegon" fill="#A71E36" points="601.92,367.881 595.67,386.115 586.292,373.75 "/>
<polygon class="onlinegon" fill="#EC3039" points="591.328,289.594 576.219,294.771 586.235,279.835 "/>
<polygon class="onlinegon" fill="#A71E36" points="591.328,289.594 586.292,302.584 576.219,294.771 "/>
<polygon class="onlinegon" fill="#EC3039" points="601.4,299.979 586.292,302.584 591.328,289.594 "/>
<polygon class="onlinegon" fill="#A71E36" points="608.639,287.822 591.328,289.594 599.371,279.835 "/>
<polygon class="onlinegon" fill="#F38888" points="608.639,287.822 601.4,299.979 591.328,289.594 "/>
<polygon class="onlinegon" fill="#F9D7C1" points="608.639,309.1 586.292,312.309 601.4,299.979 "/>
<polygon class="onlinegon" fill="#EC3039" points="608.639,330.542 602.095,347.214 601.574,319.775 "/>
<polygon class="onlinegon" fill="#F38888" points="608.639,353.412 586.292,359.538 602.095,347.214 "/>
<polygon class="onlinegon" fill="#F9D7C1" points="608.639,380.814 595.67,386.115 601.92,367.881 "/>
<polygon class="onlinegon" fill="#A71E36" points="608.639,453.55 600.358,458.008 602.095,436.823 "/>
<polygon class="onlinegon" fill="#EC3039" points="608.639,425.883 602.095,436.823 591.224,422.576 591.328,422.258 "/>
<polygon class="onlinegon" fill="#EC3039" points="608.639,462.645 601.977,475.2 600.358,458.008 "/>
<polygon class="onlinegon" fill="#F38888" points="587.158,518.616 576.914,525.042 571.877,512.712 "/>
<polygon class="onlinegon" fill="#F9D7C1" points="602.442,515.838 596.884,528.342 587.158,518.616 "/>
<polygon class="onlinegon" fill="#EF5054" points="602.442,515.838 586.292,512.712 593.236,509.412 "/>
<polygon class="onlinegon" fill="#A71E36" points="608.639,488.226 594.28,489.094 601.977,475.2 "/>
<polygon class="onlinegon" fill="#A71E36" points="600.358,497.43 593.236,509.412 586.292,496.388 "/>
<polygon class="onlinegon" fill="#F9D7C1" points="608.639,504.07 593.236,509.412 600.358,497.43 "/>
<polygon class="onlinegon" fill="#F38888" points="608.639,523.132 596.884,528.342 602.442,515.838 "/>
<polygon class="onlinegon" fill="#A71E36" points="596.884,528.342 581.604,534.246 587.158,518.616 "/>
<polygon class="onlinegon" fill="#A71E36" points="576.914,525.042 564.18,534.246 553.123,519.138 "/>
<polygon class="onlinegon" fill="#F38888" points="553.123,519.138 551.037,528.342 541.661,512.712 "/>
<polygon class="onlinegon" fill="#EC3039" points="576.914,525.042 553.123,519.138 571.877,512.712 "/>
<polygon class="onlinegon" fill="#F9D7C1" points="564.18,534.246 551.037,528.342 553.123,519.138 "/>
<polygon class="onlinegon" fill="#F9D7C1" points="501.143,528.049 500.504,527.946 500.498,527.939 488.174,520.874 498.337,512.712 "/>
<polygon class="onlinegon" fill="#A71E36" points="519.197,517.229 501.483,528.168 501.143,528.049 498.337,512.712 "/>
<polygon class="onlinegon" fill="#A71E36" points="551.037,528.342 535.583,534.246 529.331,524 "/>
<polygon class="onlinegon" fill="#EC3039" points="529.331,524 519.377,534.246 519.197,517.229 "/>
<polygon class="onlinegon" fill="#F9D7C1" points="500.906,528.175 489.507,534.246 480.013,524.521 500.498,527.939 500.504,527.946 "/>
<polygon class="onlinegon" fill="#A71E36" points="480.013,524.521 467.162,534.246 460.27,523.945 "/>
<polygon class="onlinegon" fill="#EF5054" points="466.118,512.712 460.27,523.945 446.989,527.646 "/>
<polygon class="onlinegon" fill="#F9D7C1" points="460.27,523.945 449.565,534.246 446.989,527.646 "/>
<polygon class="onlinegon" fill="#A71E36" points="446.989,527.646 436.249,534.246 428.582,527.258 428.729,527.133 "/>
<polygon class="onlinegon" fill="#F9D7C1" points="428.582,527.258 420.502,534.246 412.979,520.7 428.435,527.126 "/>
<polygon class="onlinegon" fill="#A71E36" points="412.979,520.7 404.762,534.246 396.19,527.168 396.356,527.043 "/>
<polygon class="onlinegon" fill="#A71E36" points="357.208,528.342 345.135,534.246 334.485,527.474 "/>
<polygon class="onlinegon" fill="#F38888" points="377.728,518.616 369.621,534.246 357.208,528.342 "/>
<polygon class="onlinegon" fill="#F9D7C1" points="396.19,527.168 386.756,534.246 377.728,518.616 396.134,527.126 "/>
<polygon class="onlinegon" fill="#F9D7C1" points="334.485,527.474 324.816,534.246 324.768,534.002 321.468,517.748 "/>
<polygon class="onlinegon" fill="#EC3039" points="278.568,519.485 265.938,526.258 254.081,518.616 "/>
<polygon class="onlinegon" fill="#A71E36" points="289.855,528.342 265.938,526.258 278.568,519.485 "/>
<polygon class="onlinegon" fill="#F38888" points="324.768,534.002 312.604,525.563 321.468,517.748 "/>
<polygon class="onlinegon" fill="#A71E36" points="301.143,518.964 289.855,528.342 298.448,512.712 "/>
<polygon class="onlinegon" fill="#EC3039" points="312.604,525.563 301.143,518.964 298.448,512.712 "/>
<polygon class="onlinegon" fill="#F9D7C1" points="312.604,525.563 303.137,534.002 301.143,518.964 "/>
<polygon class="onlinegon" fill="#F38888" points="221.433,520.354 215.008,528.342 212.924,512.712 "/>
<polygon class="onlinegon" fill="#F9D7C1" points="242.967,528.342 221.433,520.354 234.979,512.712 "/>
<polygon class="onlinegon" fill="#A71E36" points="242.967,528.342 229.248,534.246 221.433,520.354 "/>
<polygon class="onlinegon" fill="#F38888" points="289.855,528.342 270.634,534.246 265.938,526.258 "/>
<polygon class="onlinegon" fill="#EF5054" points="265.938,526.258 252.344,534.246 242.967,528.342 "/>
<polygon class="onlinegon" fill="#EC3039" points="209.388,480.092 199.344,487.261 199.204,487.356 197.642,461.307 209.326,479.857 "/>
<polygon class="onlinegon" fill="#F38888" points="212.924,492.956 206.325,496.214 199.204,487.356 199.344,487.261 "/>
<polygon class="onlinegon" fill="#EC3039" points="212.924,512.712 195.384,512.191 206.325,496.214 "/>
<polygon class="onlinegon" fill="#F9D7C1" points="215.008,528.342 201.692,534.246 195.384,512.191 205.977,520.7 "/>
<polygon class="onlinegon" fill="#EF5054" points="206.325,496.214 195.384,512.191 191.508,496.388 "/>
<polygon class="onlinegon" fill="#EF5054" points="212.924,464.783 209.451,480.05 209.326,479.857 197.642,461.307 "/>
<polygon class="onlinegon" fill="#F9D7C1" points="199.204,487.356 191.508,475.265 197.642,461.307 "/>
<polygon class="onlinegon" fill="#A71E36" points="199.378,446.549 197.642,461.307 191.508,449.334 "/>
<polygon class="onlinegon" fill="#F9D7C1" points="208.929,433.523 199.378,446.549 191.508,433.237 "/>
<polygon class="onlinegon" fill="#EC3039" points="208.291,394.624 197.642,395.436 191.508,380.466 "/>
<polygon class="onlinegon" fill="#EF5054" points="206.207,400.758 199.149,416.623 191.508,404.293 "/>
<polygon class="onlinegon" fill="#EC3039" points="208.929,433.523 191.508,433.237 199.149,416.623 "/>
<polygon class="onlinegon" fill="#F9D7C1" points="212.924,358.329 199.115,363.018 204.762,351.382 "/>
<polygon class="onlinegon" fill="#EC3039" points="199.115,363.018 196.718,375.987 191.508,380.466 191.508,380.209 "/>
<polygon class="onlinegon" fill="#A71E36" points="204.762,351.382 199.115,363.018 191.508,356.245 "/>
<polygon class="onlinegon" fill="#F38888" points="199.844,331.063 197.795,348.853 191.508,336.273 "/>
<polygon class="onlinegon" fill="#F38888" points="205.282,319.775 199.844,331.063 191.508,322.786 "/>
<polygon class="onlinegon" fill="#F38888" points="233.645,291.735 216.279,285.795 231.679,279.835 "/>
<polygon class="onlinegon" fill="#EC3039" points="216.279,285.795 204.63,296.533 201.233,279.835 "/>
<polygon class="onlinegon" fill="#A71E36" points="263.286,302.237 243.37,302.237 249.219,287.226 249.323,287.129 257.263,295.52 "/>
<polygon class="onlinegon" fill="#EF5054" points="249.023,287.148 233.645,291.735 231.679,279.835 "/>
<polygon class="onlinegon" fill="#EC3039" points="249.219,287.226 243.37,302.237 233.645,291.735 249.023,287.148 249.031,287.148 "/>
<polygon class="onlinegon" fill="#EC3039" points="233.645,291.735 222.593,302.237 216.279,285.795 "/>
<polygon class="onlinegon" fill="#EF5054" points="216.279,285.795 212.924,302.237 204.63,296.54 204.63,296.533 "/>
<polygon class="onlinegon" fill="#A71E36" points="204.623,296.54 204.47,296.679 199.949,310.142 191.508,289.734 "/>
<polygon class="onlinegon" fill="#A71E36" points="205.282,319.775 191.508,322.786 199.893,310.539 "/>
<polygon class="onlinegon" fill="#EF5054" points="263.286,288.113 249.371,287.081 257.151,279.835 "/>
<polygon class="onlinegon" fill="#EF5054" points="177.181,560.479 173.255,577.736 163.535,568.932 "/>
<polygon class="onlinegon" fill="#F38888" points="191.184,547.217 177.181,560.479 172.694,547.217 "/>
<polygon class="onlinegon" fill="#F38888" points="207.785,577.972 173.516,577.972 173.255,577.736 192.303,565.088 207.628,577.843 "/>
<polygon class="onlinegon" fill="#EC3039" points="215.697,562.963 191.184,547.217 214.278,547.217 "/>
<polygon class="onlinegon" fill="#EF5054" points="228.222,560.956 223.239,577.843 223.204,577.972 207.785,577.972 208.019,577.524 "/>
<polygon class="onlinegon" fill="#A71E36" points="228.222,560.956 208.019,577.524 215.697,562.963 "/>
<polygon class="onlinegon" fill="#A71E36" points="244.528,547.217 228.222,560.956 214.278,547.217 "/>
<polygon class="onlinegon" fill="#A71E36" points="278.554,547.217 266.681,563.468 266.681,563.474 266.447,563.792 244.528,547.217 "/>
<polygon class="onlinegon" fill="#A71E36" points="257.876,577.972 223.204,577.972 223.239,577.843 245.59,570.35 "/>
<polygon class="onlinegon" fill="#EC3039" points="272.707,577.972 257.876,577.972 266.447,563.792 266.681,563.474 "/>
<polygon class="onlinegon" fill="#F38888" points="278.554,547.217 274.479,568.044 266.681,563.468 "/>
<polygon class="onlinegon" fill="#F38888" points="300.53,547.217 288.833,563.792 278.554,547.217 "/>
<polygon class="onlinegon" fill="#A71E36" points="295.865,577.972 272.707,577.972 288.833,563.792 "/>
<polygon class="onlinegon" fill="#EC3039" points="321.499,577.972 295.865,577.972 310.753,559.064 "/>
<polygon class="onlinegon" fill="#F38888" points="326.761,547.217 310.753,559.064 300.53,547.217 "/>
<polygon class="onlinegon" fill="#F9D7C1" points="349.005,547.217 330.424,565.506 326.761,547.217 "/>
<polygon class="onlinegon" fill="#EC3039" points="344.306,577.972 321.499,577.972 330.424,565.506 "/>
<polygon class="onlinegon" fill="#A71E36" points="348.856,560.126 344.306,577.972 330.424,565.506 "/>
<polygon class="onlinegon" fill="#EF5054" points="357.243,557.945 348.856,560.126 351.487,553.69 "/>
<polygon class="onlinegon" fill="#F38888" points="351.487,553.69 348.856,560.126 349.005,547.217 "/>
<polygon class="onlinegon" fill="#A71E36" points="365.75,577.972 344.306,577.972 356.477,569.285 "/>
<polygon class="onlinegon" fill="#F38888" points="373.604,557.945 356.477,569.285 357.243,557.945 "/>
<polygon class="onlinegon" fill="#EF5054" points="382.465,577.972 365.75,577.972 373.604,557.945 "/>
<polygon class="onlinegon" fill="#F9D7C1" points="404.385,557.945 392.418,565.388 373.604,557.945 "/>
<polygon class="onlinegon" fill="#A71E36" points="418.074,577.972 382.465,577.972 406.299,572.929 406.596,573.093 406.567,572.874 "/>
<polygon class="onlinegon" fill="#F38888" points="433.15,577.972 418.074,577.972 423.29,567.96 "/>
<polygon class="onlinegon" fill="#F38888" points="457.078,577.972 433.15,577.972 449.633,569.108 456.845,577.686 "/>
<polygon class="onlinegon" fill="#A71E36" points="449.633,569.108 442.431,557.945 448.337,553.392 "/>
<polygon class="onlinegon" fill="#A71E36" points="464.054,563.14 448.337,553.392 450.229,547.841 "/>
<polygon class="onlinegon" fill="#F38888" points="470.815,547.77 464.054,563.14 450.229,547.841 "/>
<polygon class="onlinegon" fill="#EF5054" points="469.306,577.972 457.078,577.972 456.845,577.686 464.054,563.14 "/>
<polygon class="onlinegon" fill="#A71E36" points="490.184,547.699 477.578,562.078 470.815,547.77 "/>
<polygon class="onlinegon" fill="#EC3039" points="498.372,577.972 469.306,577.972 489.808,569.166 "/>
<polygon class="onlinegon" fill="#EF5054" points="513.557,547.622 505.283,562.593 490.226,547.699 "/>
<polygon class="onlinegon" fill="#EF5054" points="516.624,577.972 498.372,577.972 505.283,562.593 "/>
<polygon class="onlinegon" fill="#F38888" points="538.956,547.528 532.695,559.479 513.557,547.622 "/>
<polygon class="onlinegon" fill="#F38888" points="543.734,567.564 543.72,567.571 520.112,569.166 532.695,559.479 "/>
<polygon class="onlinegon" fill="#EF5054" points="543.578,567.813 536.652,577.972 516.624,577.972 543.479,567.677 "/>
<polygon class="onlinegon" fill="#F38888" points="551.007,577.972 536.652,577.972 543.578,567.813 "/>
<polygon class="onlinegon" fill="#EF5054" points="560.932,560.126 551.007,577.972 543.578,567.813 543.74,567.571 543.74,567.564 "/>
<polygon class="onlinegon" fill="#EF5054" points="567.552,547.429 560.932,560.126 538.956,547.528 "/>
<polygon class="onlinegon" fill="#EC3039" points="568.85,577.972 551.007,577.972 560.932,560.126 "/>
<polygon class="onlinegon" fill="#F38888" points="586.87,577.972 568.85,577.972 579.427,562.593 "/>
<polygon class="onlinegon" fill="#EF5054" points="593.718,558.653 586.87,577.972 579.427,562.593 "/>
<polygon class="onlinegon" fill="#F38888" points="589.764,547.352 579.427,562.593 567.552,547.429 "/>
<polygon class="onlinegon" fill="#F38888" points="607.342,547.291 593.718,558.653 589.764,547.352 "/>
<polygon class="onlinegon" fill="#F38888" points="628.042,547.217 622.195,560.778 607.508,547.291 "/>
<polygon class="onlinegon" fill="#F9D7C1" points="628.751,577.972 608.251,568.813 622.195,560.778 "/>
<polygon class="onlinegon" fill="#EF5054" points="636.465,568.755 628.751,577.972 622.195,560.778 "/>
<polygon class="onlinegon" fill="#EF5054" points="628.751,577.972 586.87,577.972 608.251,568.813 "/>
<polygon class="onlinegon" fill="#F9D7C1" points="636.465,557.945 636.465,568.755 622.195,560.778 "/>
<polygon class="onlinegon" fill="#EC3039" points="636.465,557.945 622.195,560.778 628.042,547.217 "/>
<polygon class="onlinegon" fill="#A71E36" points="177.181,560.479 163.897,555.769 172.694,547.217 "/>
<polygon class="onlinegon" fill="#F9D7C1" points="177.181,560.479 163.535,568.932 163.535,556.115 163.897,555.769 "/>
<polygon class="onlinegon" fill="#F9D7C1" points="192.303,565.088 173.255,577.736 177.181,560.479 "/>
<polygon class="onlinegon" fill="#EF5054" points="192.303,565.088 177.181,560.479 191.184,547.217 "/>
<polygon class="onlinegon" fill="#EC3039" points="215.697,562.963 208.019,577.524 207.628,577.843 192.303,565.088 "/>
<polygon class="onlinegon" fill="#A71E36" points="215.697,562.963 192.303,565.088 191.184,547.217 "/>
<polygon class="onlinegon" fill="#F9D7C1" points="228.222,560.956 215.697,562.963 214.278,547.217 "/>
<polygon class="onlinegon" fill="#F9D7C1" points="245.59,570.35 228.222,560.956 244.528,547.217 "/>
<polygon class="onlinegon" fill="#EC3039" points="245.59,570.35 223.239,577.843 228.222,560.956 "/>
<polygon class="onlinegon" fill="#F38888" points="266.447,563.792 257.876,577.972 245.59,570.35 "/>
<polygon class="onlinegon" fill="#EF5054" points="266.447,563.792 245.59,570.35 244.528,547.217 "/>
<polygon class="onlinegon" fill="#EC3039" points="288.833,563.792 274.479,568.044 278.554,547.217 "/>
<polygon class="onlinegon" fill="#A71E36" points="274.479,568.044 272.707,577.972 266.681,563.474 266.681,563.468 "/>
<polygon class="onlinegon" fill="#F9D7C1" points="288.833,563.792 272.707,577.972 274.479,568.044 "/>
<polygon class="onlinegon" fill="#F9D7C1" points="310.753,559.064 295.865,577.972 288.833,563.792 "/>
<polygon class="onlinegon" fill="#EF5054" points="310.753,559.064 288.833,563.792 300.53,547.217 "/>
<polygon class="onlinegon" fill="#A71E36" points="330.424,565.506 310.753,559.064 326.761,547.217 "/>
<polygon class="onlinegon" fill="#F9D7C1" points="330.424,565.506 321.499,577.972 310.753,559.064 "/>
<polygon class="onlinegon" fill="#EC3039" points="349.005,547.217 348.856,560.126 330.424,565.506 "/>
<polygon class="onlinegon" fill="#F9D7C1" points="356.477,569.285 344.306,577.972 348.856,560.126 "/>
<polygon class="onlinegon" fill="#A71E36" points="357.243,557.945 356.477,569.285 348.856,560.126 "/>
<polygon class="onlinegon" fill="#F9D7C1" points="373.604,557.945 365.75,577.972 356.477,569.285 "/>
<polygon class="onlinegon" fill="#A71E36" points="392.418,565.388 382.465,577.972 373.604,557.945 "/>
<polygon class="onlinegon" fill="#A71E36" points="406.563,572.874 406.299,572.929 392.418,565.388 404.385,557.945 "/>
<polygon class="onlinegon" fill="#F38888" points="418.074,577.972 406.567,572.874 406.563,572.874 404.385,557.945 "/>
<polygon class="onlinegon" fill="#F9D7C1" points="442.431,557.945 423.29,567.96 404.385,557.945 "/>
<polygon class="onlinegon" fill="#EC3039" points="423.29,567.96 418.074,577.972 404.385,557.945 "/>
<polygon class="onlinegon" fill="#EF5054" points="406.299,572.929 382.465,577.972 392.418,565.388 "/>
<polygon class="onlinegon" fill="#EF5054" points="442.431,557.945 433.15,577.972 423.29,567.96 "/>
<polygon class="onlinegon" fill="#F9D7C1" points="449.633,569.108 433.15,577.972 442.431,557.945 "/>
<polygon class="onlinegon" fill="#F9D7C1" points="464.054,563.14 449.633,569.108 448.337,553.392 "/>
<polygon class="onlinegon" fill="#EC3039" points="464.054,563.14 456.845,577.686 449.633,569.108 "/>
<polygon class="onlinegon" fill="#EF5054" points="477.578,562.078 464.054,563.14 470.815,547.77 "/>
<polygon class="onlinegon" fill="#F9D7C1" points="490.203,547.699 489.808,569.166 477.578,562.078 490.184,547.699 "/>
<polygon class="onlinegon" fill="#F38888" points="477.578,562.078 469.306,577.972 464.054,563.14 "/>
<polygon class="onlinegon" fill="#A71E36" points="489.808,569.166 469.306,577.972 477.578,562.078 "/>
<polygon class="onlinegon" fill="#F9D7C1" points="505.283,562.593 498.372,577.972 489.808,569.166 "/>
<polygon class="onlinegon" fill="#EC3039" points="505.283,562.593 489.808,569.166 490.203,547.699 490.226,547.699 "/>
<polygon class="onlinegon" fill="#F9D7C1" points="520.112,569.166 516.624,577.972 505.283,562.593 "/>
<polygon class="onlinegon" fill="#F9D7C1" points="532.695,559.479 520.112,569.166 513.557,547.622 "/>
<polygon class="onlinegon" fill="#EC3039" points="520.112,569.166 505.283,562.593 513.557,547.622 "/>
<polygon class="onlinegon" fill="#EC3039" points="543.74,567.564 543.734,567.564 532.695,559.479 538.956,547.528 "/>
<polygon class="onlinegon" fill="#EC3039" points="543.72,567.571 543.599,567.629 543.479,567.677 516.624,577.972 520.112,569.166 "/>
<polygon class="onlinegon" fill="#EF5054" points="579.427,562.593 568.85,577.972 560.932,560.126 "/>
<polygon class="onlinegon" fill="#EC3039" points="579.427,562.593 560.932,560.126 567.552,547.429 "/>
<polygon class="onlinegon" fill="#F9D7C1" points="593.718,558.653 579.427,562.593 589.764,547.352 "/>
<polygon class="onlinegon" fill="#F38888" points="608.251,568.813 593.718,558.653 607.342,547.291 607.429,547.291 "/>
<polygon class="onlinegon" fill="#F9D7C1" points="560.932,560.126 543.74,567.564 538.956,547.528 "/>
<polygon class="onlinegon" fill="#EC3039" points="608.251,568.813 586.87,577.972 593.718,558.653 "/>
<polygon class="onlinegon" fill="#EF5054" points="622.195,560.778 608.251,568.813 607.429,547.291 607.508,547.291 "/>
</svg>
