<?xml version="1.0" encoding="utf-8"?>
<!-- Generator: Adobe Illustrator 16.0.0, SVG Export Plug-In . SVG Version: 6.00 Build 0)  -->
<!DOCTYPE svg PUBLIC "-//W3C//DTD SVG 1.1//EN" "http://www.w3.org/Graphics/SVG/1.1/DTD/svg11.dtd">
<svg version="1.1" id="Layer_1" xmlns="http://www.w3.org/2000/svg" xmlns:xlink="http://www.w3.org/1999/xlink" x="0px" y="0px"
	 width="3403px" height="446.825px" viewBox="0 0 3403 446.825" enable-background="new 0 0 3403 446.825" xml:space="preserve">
<g>
	<g>
		<path fill="#010101" d="M1621.663,144.52c-2.449-4.49-6.43-7.246-11.943-8.27c-1.227-0.203-2.551-0.303-3.982-0.303
			c-4.082,0-7.861,1.221-11.332,3.674c-4.086,2.859-6.638,6.635-7.657,11.336c-0.613,1.834-0.919,3.57-0.919,5.203
			c0,3.471,1.021,6.432,3.063,8.885c2.654,3.674,6.431,5.924,11.333,6.734c1.43,0.205,2.754,0.305,3.98,0.305
			c3.473,0,6.738-0.918,9.802-2.752c4.491-2.451,7.555-6.535,9.19-12.254c0.405-1.426,0.609-2.961,0.609-4.596
			C1623.808,149.831,1623.095,147.18,1621.663,144.52z"/>
		<path fill="#010101" d="M1904.064,212.215c-0.817-1.227-2.044-1.943-3.677-2.148h-0.92c-1.223,0-2.347,0.305-3.367,0.922
			c-1.227,1.016-1.941,2.244-2.146,3.676c-0.406,3.059-0.813,6.021-1.223,8.877c-0.613,3.883-1.328,7.557-2.145,11.027
			c-1.836,9.801-4.085,18.484-6.739,26.037c-8.37,14.293-17.663,21.441-27.872,21.441c-9.801,0-16.539-2.961-20.216-8.834
			c-3.673-4.441-6.226-9.951-7.655-16.436c-1.226-5.258-2.043-10.771-2.451-16.436c11.129-0.818,20.063-3.371,26.75-7.607
			c8.115-5.516,12.148-13.529,12.148-24.1c0-8.523-3.369-15.822-10.107-21.893c-6.736-6.283-14.496-9.449-23.277-9.449
			c-10.619,0-19.193,4.293-25.729,12.818c-7.556,9.391-11.332,22.916-11.332,40.629c0,2.811,0.103,5.563,0.356,8.221
			c0,0.055,0,0.055,0,0.104c-3.011,18.629-6.177,34.457-9.546,47.574c-5.309,21.236-9.903,31.854-13.781,31.854
			c-3.269,0-5.311-6.734-6.127-20.213c-0.205-4.492-0.408-11.338-0.613-20.52c2.654-41.865,3.778-69.633,3.369-83.313
			c-0.408-18.586-5.003-29.203-13.783-31.855c-4.084-1.225-8.678,0.613-13.782,5.514c-1.839,2.045-3.982,4.492-6.433,7.348
			c-0.613,0.818-1.326,2.045-2.145,3.68c-0.818,0.818-1.632,1.836-2.449,3.061c-7.146,11.027-13.172,26.496-18.072,46.402
			c-4.899,19.91-8.27,33.23-10.107,39.971l-0.92-8.881c-1.836-15.316-4.082-27.359-6.736-36.145
			c-0.817-2.242-1.531-4.287-2.144-6.121c-1.022-2.453-2.145-4.598-3.37-6.432c-3.064-4.695-6.636-7.049-10.721-7.049
			c-2.654,0-5.512,1.021-8.574,3.066c-2.451,1.629-4.595,3.773-6.434,6.43c-0.408,0.613-0.611,1.432-0.611,2.449
			c0,0.617,0.203,1.33,0.611,2.145c0.205,0.406,0.461,0.869,0.664,1.33c-3.013,22.104-6.789,38.799-11.383,50.125
			c-1.635,4.088-6.127,6.639-13.478,7.658c-3.677-0.201-6.228-1.477-7.657-3.83c-1.43-2.342-2.451-5.512-3.063-9.49
			c-0.613-3.984-0.921-6.178-0.921-6.586l-0.917-9.801l-1.227-9.801c-0.814-7.354-1.837-13.785-3.063-19.299
			c-0.611-2.652-1.326-5.006-2.144-7.045c-0.816-2.656-1.735-5.104-2.759-7.352c-2.654-5.305-6.122-8.574-10.412-9.801
			c-1.02-0.41-2.246-0.607-3.675-0.607c-1.837,0-3.88,0.607-6.126,1.834c-1.838,1.227-3.471,2.652-4.9,4.285
			c-3.674,4.09-5.514,8.785-5.514,14.09v2.762c0,0.609,0.203,1.326,0.612,2.145c0.204,0.354,0.356,0.764,0.561,1.17
			c-3.521,25.271-7.706,45.182-12.505,59.777c-3.676,11.438-7.555,17.154-11.641,17.154c-3.47,0-6.431-4.596-8.881-13.785
			c-3.473-12.043-6.229-27.566-8.27-46.555c-1.43-15.52-0.717-34.303,2.143-56.359v-3.977c3.063-4.697,5.922-9.904,8.577-15.623
			c8.575-16.541,14.396-33.281,17.458-50.23c0.818-3.271,1.43-6.432,1.837-9.496c0.204-2.857,0.308-5.615,0.308-8.271v-2.449
			c-0.205-8.578-2.451-14.396-6.738-17.461c-1.838-1.426-3.984-2.145-6.434-2.145c-15.925,0-28.076,19.811-36.446,59.424
			c-2.858,14.496-5.104,30.527-6.739,48.086c-0.815,6.939-1.429,13.783-1.838,20.52c-0.205,5.723-0.409,10.111-0.613,13.17v23.281
			c0.104,1.684,0.154,3.266,0.257,4.797v0.049c-2.961,18.33-6.127,33.949-9.443,46.916c-5.31,21.236-9.903,31.854-13.785,31.854
			c-3.269,0-5.31-6.734-6.124-20.213c-0.204-4.492-0.408-11.338-0.613-20.52c2.655-41.865,3.777-69.633,3.37-83.313
			c-0.409-18.586-5.005-29.203-13.784-31.855c-4.082-1.225-8.679,0.613-13.783,5.514c-1.838,2.045-3.98,4.492-6.431,7.348
			c-0.614,0.818-1.329,2.045-2.145,3.68c-0.817,0.818-1.635,1.836-2.45,3.061c-7.149,11.027-13.171,26.496-18.07,46.402
			c-4.9,19.91-8.271,33.23-10.108,39.971l-0.919-8.881c-1.838-15.316-4.084-27.359-6.738-36.145
			c-0.818-2.242-1.533-4.287-2.143-6.121c-1.023-2.453-2.146-4.598-3.371-6.432c-3.063-4.695-6.638-7.049-10.72-7.049
			c-2.655,0-5.515,1.021-8.577,3.066c-2.451,1.629-4.594,3.773-6.432,6.43c-0.408,0.613-0.613,1.432-0.613,2.449
			c0,0.617,0.205,1.33,0.613,2.145c0.663,1.275,1.326,2.76,1.938,4.395c-0.407,2.145-0.817,4.287-1.325,6.326
			c-1.431,5.514-3.166,10.416-5.207,14.701c-5.309,11.438-12.354,17.154-21.135,17.154c-1.838,0-3.573-0.105-5.207-0.303
			c1.021-5.514,1.53-11.133,1.53-16.852c0-4.49-0.304-9.082-0.917-13.777c-0.766-5.924-1.889-12.869-3.318-20.83
			c-3.88-20.418-9.803-32.572-17.713-36.449l-0.309-0.311c-0.204-1.221-0.51-2.344-0.917-3.365
			c-2.043-6.127-5.41-10.822-10.058-14.094c-4.082-2.652-8.576-3.979-13.424-3.979c-11.589,0-20.678,9.598-27.16,28.791
			c-5.715,16.541-8.574,34.611-8.574,54.215l-3.676-0.613c-13.885-2.857-27.975-5.41-42.268-7.658
			c-14.296-2.248-28.436-4.287-42.422-6.127c-13.988-1.834-28.129-3.369-42.421-4.59c-27.975-2.045-55.642-2.66-83.005-1.842
			c-13.476,0.41-26.646,1.326-39.51,2.758c-6.535,0.611-12.967,1.43-19.297,2.449c-6.33,1.025-12.561,2.148-18.684,3.369
			c-6.331,1.025-12.405,2.301-18.227,3.828c-5.817,1.535-11.586,3.012-17.303,4.447c-5.719,1.834-11.231,3.668-16.541,5.514
			c-5.31,1.834-10.517,3.773-15.621,5.813c-5.105,2.043-10.055,4.188-14.853,6.436c-4.799,2.246-9.446,4.592-13.937,7.043
			c-4.29,2.453-8.475,4.955-12.559,7.508s-7.963,5.156-11.641,7.809c-7.759,5.104-14.496,10.258-20.214,15.467
			c-5.718,5.205-10.823,10.26-15.315,15.16c-4.695,4.492-8.626,8.73-11.792,12.713c-3.165,3.979-5.768,7.396-7.81,10.26
			c-2.245,3.061-3.881,5.309-4.9,6.738c0,0.609-0.307,1.229-0.918,1.834l-0.309,0.311c-2.041,2.857-2.756,5.924-2.143,9.189
			c0.613,3.264,2.348,5.92,5.206,7.961c2.858,2.043,5.923,2.76,9.188,2.143c3.268-0.607,5.923-2.344,7.964-5.205
			c0-0.203,0.103-0.508,0.307-0.916l0.307-0.311v-0.607c0.409-0.408,0.715-0.818,0.919-1.227c0.407-1.023,0.971-1.943,1.684-2.762
			c0.714-0.813,1.479-2.039,2.297-3.668c0.818-1.438,1.736-2.912,2.758-4.447c1.021-1.527,2.246-3.211,3.676-5.051
			c1.225-1.84,2.652-3.777,4.289-5.816c1.631-2.045,3.468-4.293,5.513-6.74c1.837-2.045,3.828-4.289,5.972-6.74
			c2.145-2.453,4.646-4.9,7.504-7.35c5.104-5.104,10.924-10.209,17.459-15.313c6.738-5.107,13.986-10.109,21.746-15.012
			c4.082-2.248,8.32-4.59,12.713-7.045c4.389-2.451,8.934-4.695,13.629-6.738c4.899-2.045,9.801-4.033,14.701-5.973
			s10.107-3.83,15.621-5.664c5.31-1.633,10.771-3.219,16.387-4.75c5.615-1.531,11.281-2.906,16.998-4.133
			c5.921-1.432,11.945-2.656,18.072-3.68c6.125-1.016,12.354-1.939,18.682-2.75c12.455-1.637,25.32-2.762,38.594-3.371
			c13.272-0.619,26.697-0.867,40.277-0.768c13.579,0.1,27.311,0.664,41.193,1.684c27.568,2.045,55.543,5.414,83.924,10.111
			c14.092,2.447,28.076,5.105,41.963,7.963c2.245,0.611,4.287,1.121,6.127,1.527c1.224,13.891,4.695,26.244,10.414,37.061
			c7.911,15.316,17.967,22.973,30.168,22.973c10.006,0,18.327-3.779,25.066-11.332c5.869-6.332,10.259-14.904,13.118-25.727
			c2.399,0.406,4.748,0.611,6.993,0.611l3.064-0.305c10.617-1.225,19.089-7.965,25.421-20.219c1.479-2.752,2.806-5.713,3.931-8.984
			c1.072,5.875,1.992,12.664,2.807,20.32c1.021,7.963,1.737,16.541,2.143,25.723c0.41,2.658,0.614,5.105,0.614,7.355
			c0,1.02,1.328,1.838,3.983,2.451c2.246,0.613,4.9,0.918,7.961,0.918h0.613c3.678,0,6.842-0.41,9.494-1.221
			c3.268-0.818,5.514-2.045,6.74-3.68v-0.311c0.205-0.197,0.41-0.508,0.613-0.916c2.246-7.961,5.563-19.807,9.953-35.529
			c4.389-15.719,9.342-31.137,14.855-46.248c5.514-13.07,8.373-19.6,8.577-19.6c0.611,0.406,1.122,1.938,1.53,4.59
			c0.205,0.818,0.307,1.84,0.307,3.064v2.145c0,5.715-0.613,13.066-1.837,22.055c-0.614,37.363-0.818,57.678-0.614,60.947
			c0.614,8.377,1.736,15.521,3.367,21.443c4.7,16.125,13.99,24.191,27.876,24.191c6.94,0,13.065-5.104,18.375-15.313
			c1.84-3.676,3.473-7.857,4.899-12.555c0.614-1.838,1.125-3.678,1.535-5.512c0.203-0.619,0.407-1.432,0.611-2.453l0.305-0.918
			l0.307-0.916c1.48-5.465,2.961-11.389,4.34-17.922c0.766,3.932,1.685,7.553,2.707,10.871c6.125,20.83,16.64,31.242,31.547,31.242
			c7.145,0,13.477-3.471,18.99-10.412c4.287-5.311,7.963-12.453,11.025-21.438c2.809-8.684,5.41-18.893,7.861-30.838
			c0,0.457,0.053,0.973,0.102,1.43l0.307,3.066l0.307,2.754c1.023,5.512,2.145,10.008,3.369,13.479
			c1.635,4.49,4.494,9.031,8.576,13.629c4.086,4.596,13.58,6.994,28.484,7.197c11.436-0.814,20.063-6.23,25.883-16.23
			c4.799-8.275,8.219-17.457,10.107-27.566c0.508,3.42,0.971,7.092,1.379,11.025c1.02,7.963,1.736,16.541,2.144,25.723
			c0.409,2.658,0.614,5.105,0.614,7.355c0,1.02,1.324,1.838,3.98,2.451c2.245,0.613,4.899,0.918,7.963,0.918h0.613
			c3.674,0,6.84-0.41,9.494-1.221c3.268-0.818,5.514-2.045,6.738-3.68v-0.311c0.204-0.197,0.408-0.508,0.613-0.916
			c2.246-7.961,5.563-19.807,9.955-35.529c4.389-15.719,9.34-31.137,14.853-46.248c5.514-13.07,8.372-19.6,8.577-19.6
			c0.613,0.406,1.121,1.938,1.531,4.59c0.204,0.818,0.307,1.84,0.307,3.064v2.145c0,5.715-0.613,13.066-1.838,22.055
			c-0.613,37.363-0.818,57.678-0.613,60.947c0.613,8.377,1.734,15.521,3.371,21.443c4.695,16.125,13.985,24.191,27.871,24.191
			c6.942,0,13.068-5.104,18.379-15.313c1.837-3.676,3.469-7.857,4.9-12.555c0.613-1.838,1.121-3.678,1.529-5.512
			c0.205-0.619,0.41-1.432,0.613-2.453l0.308-0.918l0.306-0.916c2.296-8.377,4.492-18.027,6.483-28.795
			c2.349,5.203,5.36,10.004,8.983,14.447c8.065,10.16,22.104,15.773,42.114,16.795c16.54-0.613,28.894-6.945,37.063-18.99
			c5.104-7.965,8.982-17.766,11.637-29.402c2.041-8.17,3.779-17.666,5.208-28.484v-1.227
			C1905.289,214.049,1904.88,213.028,1904.064,212.215z M1551.833,111.749c0-1.021,0.099-1.939,0.303-2.758
			c0.205-1.225,0.511-2.451,0.92-3.672c0.613-2.658,1.125-5.211,1.531-7.658c2.248-5.922,4.596-9.496,7.045-10.723h0.308
			c0.201,0.818,0.305,2.145,0.305,3.982c0,2.25-0.104,4.801-0.305,7.658c-0.204,2.039-0.511,4.188-0.921,6.434
			c-0.408,1.633-0.715,3.063-0.919,4.289c-2.654,11.635-6.636,23.48-11.944,35.525
			C1548.769,131.963,1549.991,120.936,1551.833,111.749z M1341.104,274.081c-1.225,2.861-2.451,5.416-3.676,7.658
			c-3.268,5.924-7.147,8.883-11.64,8.883c-7.964,0-14.14-5.822-18.632-17.457c-3.472-10.004-5.26-22.563-5.26-37.674
			c0-14.502,1.379-28.895,4.086-43.188c3.216-15.723,7.146-23.584,11.842-23.584c0.613,0,1.432,0.508,2.451,1.531
			c1.021,0.818,1.736,1.635,2.143,2.451c-4.491,2.447-8.063,7.553-10.717,15.316c-2.451,7.143-3.678,15.209-3.678,24.197
			c0,13.066,3.269,24.496,9.801,34.299c6.74,9.799,15.212,16.646,25.423,20.523C1342.634,269.694,1341.922,272.036,1341.104,274.081
			z M1345.087,257.542c-7.964-3.471-14.602-9.189-19.91-17.15c-5.105-7.967-7.658-17.359-7.658-28.176
			c0-6.539,0.818-12.154,2.45-16.85c2.245-5.719,5.208-8.576,8.884-8.576c0.817,0,1.529,0.205,2.144,0.609
			c2.45,1.027,4.695,4.088,6.737,9.193c1.431,3.674,2.757,8.164,3.984,13.475c2.858,10.822,4.286,21.949,4.286,33.385
			C1346.004,248.147,1345.698,252.846,1345.087,257.542z M1828.104,200.569c2.194-6.734,5.818-10.104,10.873-10.104
			c3.625,0,6.993,2.143,10.006,6.436c2.807,4.078,4.234,7.961,4.234,11.637c0,7.146-3.01,12.352-9.084,15.623
			c-4.646,2.652-10.926,4.285-18.787,4.895C1825.347,215.991,1826.266,206.491,1828.104,200.569z"/>
		<path fill="#010101" d="M2601.178,211.292h-0.917c-2.654,0-4.188,1.328-4.595,3.984c-4.494,33.076-17.866,68.811-40.126,107.203
			c1.227-10.621,1.738-20.117,1.533-28.488c0-12.455-7.352-28.793-22.054-49.004l-4.288-5.82l-3.98-5.514
			c-3.063-4.084-5.411-7.559-7.047-10.416c-4.695-7.352-7.043-13.574-7.043-18.678c0-8.172,7.043-12.256,21.133-12.256h1.838
			c2.859,0,4.39-1.535,4.594-4.596v-0.309c0-3.061-1.53-4.592-4.594-4.592h-2.757c-12.046,0-21.95,1.939-29.709,5.818
			c-11.028,5.514-16.542,14.602-16.542,27.26c0,3.727,0.564,7.557,1.637,11.436c-5.261,26.801-10.773,50.031-16.645,69.732
			c-0.816,3.879-1.631,7.756-2.449,11.641c-1.223,5.514-2.45,10.514-3.674,15.01c-3.472,12.25-6.639,18.375-9.498,18.375
			c-3.672,0-6.635-8.783-8.881-26.342c-0.816-6.127-1.532-13.17-2.143-21.137c-0.205-3.061-0.307-6.326-0.307-9.801l-0.613-7.35
			c-0.613-5.922-0.92-12.762-0.92-20.518c0-9.193,0.409-19.811,1.227-31.855c0.818-11.436,2.552-30.121,5.207-56.055
			c1.837-0.197,3.674-0.303,5.513-0.303h1.226c5.718,0.408,10.822,2.857,15.313,7.354c1.023,1.221,2.145,1.834,3.371,1.834
			c1.02,0,2.143-0.613,3.37-1.834c1.224-1.025,1.837-2.145,1.837-3.371c0-1.02-0.613-2.143-1.837-3.369
			c-6.536-6.74-14.397-10.109-23.585-10.109c-1.432,0-2.757,0.1-3.982,0.309c0.408-4.496,1.737-12.762,3.982-24.811v-1.229
			c0-1.221-0.512-2.246-1.533-3.059c-0.406-0.408-1.02-0.924-1.837-1.531c-0.612-0.211-1.224-0.514-1.837-0.916
			c-2.451-1.027-4.799-1.846-7.044-2.455c-1.431-0.203-2.757-0.307-3.983-0.307c-2.45,0-4.594,0.512-6.432,1.535
			c-2.654,1.424-4.391,3.777-5.206,7.039v0.309c-0.408,1.432-0.716,2.652-0.921,3.678c-0.408,1.631-0.715,3.162-0.919,4.594
			c-0.61,3.475-1.224,6.734-1.837,9.799c-0.613,2.248-1.633,7.354-3.063,15.316c-2.859,0.611-5.514,0.92-7.964,0.92
			c-1.021,0-2.145-0.104-3.368-0.309c-4.492-0.816-8.475-3.68-11.947-8.574c-1.019-1.635-2.246-2.453-3.674-2.453
			c-0.817,0-1.734,0.311-2.758,0.918c-1.631,1.227-2.449,2.553-2.449,3.984c0,0.816,0.307,1.738,0.919,2.756
			c6.125,8.783,13.986,13.17,23.583,13.17c2.044,0,4.086-0.203,6.127-0.613c-3.317,21.592-5.309,41.811-5.869,60.695
			c-3.064,19.092-6.332,35.275-9.752,48.65c-5.309,21.236-9.903,31.854-13.784,31.854c-3.265,0-5.307-6.734-6.124-20.213
			c-0.204-4.492-0.408-11.338-0.613-20.52c2.654-41.865,3.778-69.633,3.369-83.313c-0.408-18.586-5.001-29.203-13.783-31.855
			c-4.084-1.225-8.677,0.613-13.782,5.514c-1.839,2.045-3.983,4.492-6.433,7.348c-0.613,0.818-1.326,2.045-2.144,3.68
			c-0.817,0.818-1.633,1.836-2.451,3.061c-7.146,11.027-13.17,26.496-18.071,46.402c-4.9,19.91-8.27,33.23-10.106,39.971
			l-0.921-8.881c-1.836-15.316-4.082-27.359-6.736-36.145c-0.818-2.242-1.53-4.287-2.145-6.121
			c-1.021-2.453-2.144-4.598-3.369-6.432c-3.063-4.695-6.635-7.049-10.721-7.049c-2.654,0-5.514,1.021-8.575,3.066
			c-2.45,1.629-4.597,3.773-6.433,6.43c-0.409,0.613-0.613,1.432-0.613,2.449c0,0.617,0.204,1.33,0.613,2.145
			c0.358,0.717,0.715,1.436,1.07,2.246c-0.151,1.123-0.305,2.199-0.457,3.266c-0.613,3.883-1.328,7.557-2.145,11.027
			c-1.838,9.801-4.084,18.484-6.739,26.037c-8.369,14.293-17.662,21.441-27.872,21.441c-9.801,0-16.539-2.961-20.215-8.834
			c-3.674-4.441-6.227-9.951-7.656-16.436c-1.226-5.258-2.043-10.771-2.451-16.436c11.129-0.818,20.063-3.371,26.75-7.607
			c8.115-5.516,12.149-13.529,12.149-24.1c0-8.523-3.37-15.822-10.108-21.893c-6.736-6.283-14.496-9.449-23.277-9.449
			c-10.618,0-19.192,4.293-25.729,12.818c-6.84,8.523-10.618,20.469-11.229,35.832c-0.257,0.613-0.511,1.275-0.715,1.889
			c-2.45,5.918-5.003,11.023-7.657,15.316c-7.146,11.838-14.6,17.762-22.358,17.762c-2.858,0-5.616-0.41-8.271-1.225
			c3.47-12.307,5.207-23.023,5.207-32.262c0-11.639-2.042-20.98-6.127-27.922c-3.675-6.125-8.066-9.242-13.172-9.242
			c-4.285,0-7.758,1.939-10.413,5.873c-3.266,4.49-4.899,10.514-4.899,18.121c0,10.006,1.123,18.938,3.369,26.695
			c3.063,10.01,7.658,17.613,13.783,22.719l0.918,0.613c-1.837,4.695-3.775,9.291-5.817,13.783
			c-2.655,5.717-5.411,10.617-8.271,14.701c-6.332-1.021-11.436-6.635-15.314-16.846c-1.635-3.674-2.961-7.961-3.984-12.865
			c-0.813-3.676-1.428-7.25-1.836-10.721c-2.041-5.561-3.063-14.242-3.063-26.135v-9.496c0.204-18.631,1.124-33.486,2.757-44.564
			c0.204-1.635,0.307-2.961,0.307-3.982c0-3.266-0.613-5.924-1.836-7.963c-4.697-9.037-9.293-14.242-13.785-15.674
			c-0.818-0.203-1.531-0.303-2.144-0.303c-4.696,0-8.169,5.408-10.415,16.232c-2.449,11.436-3.674,28.992-3.674,52.684v9.49
			c0.05,2.354,0.101,4.596,0.153,6.74c-0.308,1.785-0.664,3.52-1.073,5.205c-1.836,9.801-4.084,18.484-6.736,26.037
			c-8.373,14.293-17.666,21.441-27.875,21.441c-9.801,0-16.539-2.961-20.215-8.834c-3.674-4.441-6.227-9.951-7.657-16.436
			c-1.224-5.258-2.041-10.771-2.45-16.436c11.129-0.818,20.063-3.371,26.75-7.607c8.116-5.516,12.148-13.529,12.148-24.1
			c0-8.523-3.369-15.822-10.106-21.893c-6.737-6.283-14.497-9.449-23.278-9.449c-10.619,0-19.193,4.293-25.729,12.818
			c-7.555,9.391-11.331,22.916-11.331,40.629c0,18.324,5.052,33.59,15.159,45.844c8.017,10.16,22.055,15.773,42.115,16.795
			c16.541-0.613,28.894-6.945,37.063-18.99c2.348-3.678,4.438-7.707,6.278-12.203c0.05,0.309,0.103,0.564,0.153,0.869
			c1.021,5.104,2.143,9.904,3.369,14.395c2.041,5.924,4.185,11.232,6.43,15.93c5.924,11.84,13.172,18.988,21.749,21.441
			c2.041,0.607,4.185,0.916,6.431,0.916c0.818,0,1.533-0.098,2.145-0.309c6.738-3.67,13.17-10.41,19.296-20.209
			c4.901-7.762,9.188-16.641,12.866-26.652c3.267,1.229,6.94,1.84,11.026,1.84c10.411,0,19.908-6.33,28.483-18.988
			c1.173-1.791,2.346-3.68,3.422-5.668c2.041,11.838,6.685,22.105,13.884,30.834c8.013,10.16,22.052,15.773,42.114,16.795
			c16.541-0.613,28.895-6.945,37.063-18.99c4.9-7.656,8.678-16.998,11.281-28.025c0.662,4.49,1.326,9.492,1.887,14.855
			c1.022,7.963,1.737,16.541,2.146,25.723c0.406,2.658,0.61,5.105,0.61,7.355c0,1.02,1.329,1.838,3.983,2.451
			c2.246,0.613,4.9,0.918,7.964,0.918h0.61c3.676,0,6.843-0.41,9.498-1.221c3.264-0.818,5.514-2.045,6.736-3.68v-0.311
			c0.204-0.197,0.408-0.508,0.613-0.916c2.245-7.961,5.564-19.807,9.953-35.529c4.392-15.719,9.342-31.137,14.855-46.248
			c5.514-13.07,8.373-19.6,8.577-19.6c0.612,0.406,1.122,1.938,1.53,4.59c0.204,0.818,0.307,1.84,0.307,3.064v2.145
			c0,5.715-0.613,13.066-1.837,22.055c-0.614,37.363-0.817,57.678-0.614,60.947c0.614,8.377,1.736,15.521,3.371,21.443
			c4.695,16.125,13.984,24.191,27.871,24.191c6.943,0,13.07-5.104,18.379-15.313c1.837-3.676,3.469-7.857,4.9-12.555
			c0.61-1.838,1.121-3.678,1.531-5.512c0.204-0.619,0.408-1.432,0.613-2.453l0.305-0.918l0.308-0.916
			c0.765-2.912,1.58-5.922,2.295-9.094c3.779,61.826,15.212,92.703,34.152,92.703c12.863,0,23.585-22.457,32.161-67.379
			c5.053-20.115,9.902-41.656,14.496-64.727c3.318,5.459,8.066,12.043,14.293,19.701l4.291,4.9l4.286,4.9
			c3.063,3.678,5.411,6.84,7.044,9.496c4.695,6.945,6.944,16.438,6.74,28.48c-0.203,12.053-3.063,22.053-8.576,30.021l-3.371,4.287
			c-1.019,1.635-1.939,3.061-2.756,4.285c-3.471,4.697-5.359,9.547-5.666,14.549c-0.308,5.006,0.204,8.275,1.533,9.801
			c1.326,1.533,2.807,2.607,4.438,3.221c18.787,3.264,37.317-16.336,55.593-58.811c18.275-42.471,29.045-76.059,32.313-100.766
			c0.204-0.408,0.306-0.818,0.306-1.227C2605.466,212.823,2604.036,211.497,2601.178,211.292z M2001.413,200.569
			c2.246-6.734,5.869-10.104,10.926-10.104c3.623,0,6.99,2.143,10.004,6.436c2.807,4.078,4.238,7.961,4.238,11.637
			c0,7.146-3.014,12.352-9.089,15.623c-4.646,2.652-10.925,4.285-18.787,4.895C1998.705,215.991,1999.626,206.491,2001.413,200.569z
			 M2139.6,224.161c0,8.98-1.53,18.883-4.595,29.705c-4.184-4.287-7.146-10.414-8.933-18.375
			c-1.787-6.332-2.704-13.275-2.704-20.826c0-4.494,0.814-8.068,2.396-10.725c1.228-2.447,2.811-3.674,4.799-3.674
			c2.4,0,4.441,1.939,6.024,5.816c1.992,4.289,3.012,10.012,3.012,17.154V224.161z M2216.122,200.569
			c2.245-6.734,5.869-10.104,10.922-10.104c3.627,0,6.995,2.143,10.008,6.436c2.807,4.078,4.235,7.961,4.235,11.637
			c0,7.146-3.011,12.352-9.085,15.623c-4.646,2.652-10.926,4.285-18.787,4.895C2213.415,215.991,2214.335,206.491,2216.122,200.569z
			"/>
	</g>
</g>
</svg>
