<?xml version="1.0" encoding="utf-8"?>
<!-- Generator: Adobe Illustrator 16.0.0, SVG Export Plug-In . SVG Version: 6.00 Build 0)  -->
<!DOCTYPE svg PUBLIC "-//W3C//DTD SVG 1.1//EN" "http://www.w3.org/Graphics/SVG/1.1/DTD/svg11.dtd">
<svg version="1.1" id="Layer_1" xmlns="http://www.w3.org/2000/svg" xmlns:xlink="http://www.w3.org/1999/xlink" x="0px" y="0px"
	 width="166.617px" height="98.676px" viewBox="0 0 166.617 98.676" enable-background="new 0 0 166.617 98.676"
	 xml:space="preserve">
<g>
	<g>
		<path fill-rule="evenodd" clip-rule="evenodd" fill="#282828" d="M62.665,15.03c1.013,0.127,2.026,0.256,3.039,0.383
			c0.128,0.016,0.256,0.031,0.416,0.051c0,8.287,0,16.545,0,24.883c-1.439,0.139-2.872,0.324-4.311,0.4
			c-0.848,0.044-1.38-0.642-1.386-1.631c-0.012-1.899-0.006-3.798-0.006-5.697c0-5.494,0.01-10.99-0.012-16.485
			c-0.002-0.868,0.25-1.52,1.054-1.903C61.861,15.03,62.263,15.03,62.665,15.03z"/>
		<path fill-rule="evenodd" clip-rule="evenodd" fill="#282828" d="M48.991,20.257c0.093-0.116,0.185-0.234,0.279-0.351
			c0.404-0.495,0.918-0.718,1.54-0.524c0.635,0.197,1.016,0.641,1.021,1.328c0.012,1.494,0.009,2.986,0.009,4.479
			c0,3.254-0.003,6.506,0,9.759c0.001,0.644-0.255,1.12-0.84,1.396c-0.513,0.24-1.01,0.169-1.443-0.176
			c-0.217-0.173-0.378-0.417-0.565-0.629C48.991,30.445,48.991,25.351,48.991,20.257z"/>
		<path fill-rule="evenodd" clip-rule="evenodd" fill="#282828" d="M74.729,69.313c0-2.301-0.001-4.532,0.001-6.764
			c0-1.211,0.464-1.688,1.657-1.807c4.777-0.469,9.553-0.955,14.329-1.43c2.263-0.227,4.527-0.443,6.849-0.67
			c0,8.102,0,16.15,0,24.287c-0.894-0.08-1.773-0.15-2.651-0.238c-6.199-0.617-12.397-1.239-18.596-1.857
			c-1.116-0.111-1.586-0.616-1.588-1.737c-0.003-2.253-0.001-4.507-0.001-6.864c-0.302,0-0.559,0-0.815,0
			c-4.447,0-8.893,0.021-13.338-0.008c-2.83-0.018-5.141-1.113-6.618-3.602c-2.085-3.512-0.667-7.487,3.251-9.235
			c6.172-2.754,12.349-5.496,18.524-8.241c10.803-4.803,21.605-9.604,32.407-14.406c1.233-0.549,2.248-1.316,2.521-2.736
			c0.428-2.217-1.468-4.496-3.93-4.623c-1.828-0.095-3.663-0.039-5.494-0.042c-3.083-0.004-6.165-0.001-9.351-0.001
			c0,0.267,0,0.502,0,0.736c0.001,2.033,0.003,4.066,0.002,6.1c0,1.146-0.489,1.658-1.632,1.771
			c-6.154,0.609-12.308,1.227-18.462,1.84c-0.905,0.09-1.81,0.168-2.757,0.256c0-8.125,0-16.174,0-24.293
			c1.443,0.139,2.838,0.271,4.232,0.41c4.265,0.427,8.531,0.857,12.796,1.283c1.467,0.146,2.935,0.274,4.398,0.434
			c0.95,0.104,1.417,0.648,1.42,1.619c0.007,2.078,0.004,4.155,0.005,6.232c0,0.219,0,0.438,0,0.729c0.321,0,0.583,0,0.843,0
			c4.446,0,8.893-0.032,13.338,0.012c3.083,0.03,5.5,1.311,6.876,4.158c1.64,3.396,0.15,7.03-3.506,8.666
			c-5.314,2.376-10.638,4.732-15.957,7.098c-11.658,5.183-23.316,10.367-34.976,15.547c-1.235,0.55-2.25,1.311-2.551,2.716
			c-0.375,1.745,0.796,3.686,2.665,4.368c0.534,0.195,1.129,0.312,1.697,0.314c4.669,0.024,9.339,0.016,14.008,0.014
			C74.435,69.349,74.543,69.331,74.729,69.313z"/>
		<path fill-rule="evenodd" clip-rule="evenodd" fill="#282828" d="M100.494,83.237c0-8.311,0-16.561,0-24.904
			c1.457-0.134,2.91-0.319,4.368-0.383c0.83-0.035,1.332,0.674,1.334,1.679c0.006,2.567,0.001,5.134,0.001,7.7
			c0,4.82,0,9.642-0.003,14.462c0,1.448-0.624,1.998-2.036,1.823c-0.598-0.074-1.197-0.137-1.795-0.197
			C101.765,83.356,101.165,83.302,100.494,83.237z"/>
		<path fill-rule="evenodd" clip-rule="evenodd" fill="#282828" d="M114.775,70.724c0-2.299-0.005-4.598,0.002-6.896
			c0.004-0.98,0.559-1.603,1.402-1.609c0.839-0.008,1.441,0.635,1.443,1.58c0.005,4.665,0.004,9.329,0,13.994
			c-0.001,0.837-0.46,1.424-1.181,1.561c-0.617,0.117-1.291-0.216-1.529-0.819c-0.11-0.279-0.133-0.606-0.133-0.913
			C114.769,75.321,114.774,73.022,114.775,70.724z"/>
		<path fill-rule="evenodd" clip-rule="evenodd" fill="#282828" d="M109.046,70.795c0-1.361-0.003-2.724,0.001-4.086
			c0.003-0.97,0.557-1.614,1.39-1.64c0.853-0.026,1.451,0.631,1.454,1.637c0.008,2.745,0.008,5.492,0,8.237
			c-0.002,0.919-0.575,1.553-1.381,1.573c-0.836,0.021-1.454-0.631-1.46-1.568C109.039,73.563,109.046,72.179,109.046,70.795z"/>
		<path fill-rule="evenodd" clip-rule="evenodd" fill="#282828" d="M57.571,27.901c0,1.361,0.004,2.724-0.002,4.086
			c-0.003,0.965-0.563,1.611-1.398,1.633c-0.851,0.023-1.445-0.637-1.447-1.641c-0.006-2.725-0.006-5.448,0-8.172
			c0.003-0.982,0.553-1.613,1.389-1.633c0.857-0.02,1.453,0.643,1.457,1.64C57.576,25.177,57.571,26.539,57.571,27.901z"/>
	</g>
</g>
</svg>
