<?xml version="1.0" encoding="utf-8"?>
<!-- Generator: Adobe Illustrator 16.0.0, SVG Export Plug-In . SVG Version: 6.00 Build 0)  -->
<!DOCTYPE svg PUBLIC "-//W3C//DTD SVG 1.1//EN" "http://www.w3.org/Graphics/SVG/1.1/DTD/svg11.dtd">
<svg version="1.1" class="splitlit" xmlns="http://www.w3.org/2000/svg" xmlns:xlink="http://www.w3.org/1999/xlink" x="0px" y="0px"
	 width="612px" height="792px" viewBox="0 0 612 792" enable-background="new 0 0 612 792" xml:space="preserve">
<g>
	<polygon class="workgon"fill-rule="evenodd" clip-rule="evenodd" fill="#F68D40" points="295.322,78.412 249.482,101.096 255.13,39.817 	"/>
	<polygon class="workgon"fill-rule="evenodd" clip-rule="evenodd" fill="#F68D40" points="389.251,50.405 337.701,111.921 335.247,35.945 	"/>
	<polygon class="workgon"fill-rule="evenodd" clip-rule="evenodd" fill="#F05232" points="454.729,93.348 405.724,106.508 389.251,50.405 	"/>
	<polygon class="workgon"fill-rule="evenodd" clip-rule="evenodd" fill="#F05232" points="187.997,69.008 169.128,116.858 126.421,131.646 	"/>
	<polygon class="workgon"fill-rule="evenodd" clip-rule="evenodd" fill="#F05232" points="157.298,170.092 99.452,192.303 126.421,131.646 	"/>
	<polygon class="workgon"fill-rule="evenodd" clip-rule="evenodd" fill="#F05232" points="295.322,78.412 251.936,154.33 249.482,101.096 	"/>
	<polygon class="workgon"fill-rule="evenodd" clip-rule="evenodd" fill="#E21F26" points="337.701,111.921 251.936,154.33 295.322,78.412 	"/>
	<polygon class="workgon"fill-rule="evenodd" clip-rule="evenodd" fill="#B11F29" points="405.724,106.508 375.646,187.337 337.701,111.921 	"/>
	<polygon class="workgon"fill-rule="evenodd" clip-rule="evenodd" fill="#F05232" points="174.54,210.018 92.915,263.227 99.452,192.303 	"/>
	<polygon class="workgon"fill-rule="evenodd" clip-rule="evenodd" fill="#E21F26" points="498.264,153.561 435.299,161.222 454.729,93.348 	"/>
	<polygon class="workgon"fill-rule="evenodd" clip-rule="evenodd" fill="#F68D40" points="163.835,269.051 163.568,270.501 105.159,318.204 
		92.915,263.227 	"/>
	<polygon class="workgon"fill-rule="evenodd" clip-rule="evenodd" fill="#F05232" points="163.862,273.28 131.805,371.854 105.159,318.204 
		163.568,270.501 	"/>
	<polygon class="workgon"fill-rule="evenodd" clip-rule="evenodd" fill="none" stroke="#000000" stroke-miterlimit="10" points="163.862,273.28 
		163.568,270.501 163.835,269.051 165.194,269.17 164.899,270.055 	"/>
	<polygon class="workgon"fill-rule="evenodd" clip-rule="evenodd" fill="#FBB14E" points="478.182,381.64 432.252,453.772 407.203,379.099 	"/>
	<polygon class="workgon"fill-rule="evenodd" clip-rule="evenodd" fill="#F05232" points="309.608,540.16 198.969,540.16 271.159,487.044 	"/>
	<polygon class="workgon"fill-rule="evenodd" clip-rule="evenodd" fill="#FED978" points="271.159,487.044 198.969,540.16 192.493,484.294 	"/>
	<polygon class="workgon"fill-rule="evenodd" clip-rule="evenodd" fill="#F05232" points="271.159,432.807 192.493,484.294 166.525,428.898 	"/>
	<polygon class="workgon"fill-rule="evenodd" clip-rule="evenodd" fill="#FBB14E" points="173.564,368.244 166.525,428.898 131.805,371.854 	"/>
	<polygon class="workgon"fill-rule="evenodd" clip-rule="evenodd" fill="none" stroke="#000000" stroke-miterlimit="10" points="249.305,375.491 
		246.819,377.086 245.52,374.159 247.411,374.809 	"/>
	<polygon class="workgon"fill-rule="evenodd" clip-rule="evenodd" fill="#F68D40" points="415.428,500.767 411.757,540.16 338.679,484.294 	"/>
	<polygon class="workgon"fill-rule="evenodd" clip-rule="evenodd" fill="#E21F26" points="432.252,453.772 415.428,500.767 384.52,453.772 	"/>
	<polygon class="workgon"fill-rule="evenodd" clip-rule="evenodd" fill="#E21F26" points="508.999,305.311 478.182,381.64 441.716,325.865 	"/>
	<polygon class="workgon"fill-rule="evenodd" clip-rule="evenodd" fill="#F68D40" points="519.085,224.452 453.545,216.438 498.264,153.561 	"/>
	<polygon class="workgon"fill-rule="evenodd" clip-rule="evenodd" fill="#E21F26" points="335.247,35.945 295.322,78.412 255.13,39.817 	"/>
	<polygon class="workgon"fill-rule="evenodd" clip-rule="evenodd" fill="#F05232" points="337.701,111.921 295.322,78.412 335.247,35.945 	"/>
	<polygon class="workgon"fill-rule="evenodd" clip-rule="evenodd" fill="#E21F26" points="405.724,106.508 337.701,111.921 389.251,50.405 	"/>
	<polygon class="workgon"fill-rule="evenodd" clip-rule="evenodd" fill="#F68D40" points="454.729,93.348 435.299,161.222 405.724,106.508 	"/>
	<polygon class="workgon"fill-rule="evenodd" clip-rule="evenodd" fill="#F05232" points="498.264,153.561 453.545,216.438 435.299,161.222 	"/>
	<polygon class="workgon"fill-rule="evenodd" clip-rule="evenodd" fill="#F05232" points="519.085,224.452 508.999,305.311 457.479,265.233 	"/>
	<polygon class="workgon"fill-rule="evenodd" clip-rule="evenodd" fill="#F68D40" points="508.999,305.311 441.716,325.865 457.479,265.233 	"/>
	<polygon class="workgon"fill-rule="evenodd" clip-rule="evenodd" fill="#F68D40" points="478.182,381.64 407.203,379.099 441.716,325.865 	"/>
	<polygon class="workgon"fill-rule="evenodd" clip-rule="evenodd" fill="#F05232" points="432.252,453.772 384.52,453.772 407.203,379.099 	"/>
	<polygon class="workgon"fill-rule="evenodd" clip-rule="evenodd" fill="#FED978" points="411.757,540.16 309.608,540.16 338.679,484.294 	"/>
	<polygon class="workgon"fill-rule="evenodd" clip-rule="evenodd" fill="#FBB14E" points="338.679,484.294 309.608,540.16 271.159,487.044 	"/>
	<polygon class="workgon"fill-rule="evenodd" clip-rule="evenodd" fill="#FED978" points="415.428,500.767 338.679,484.294 384.52,453.772 	"/>
	<polygon class="workgon"fill-rule="evenodd" clip-rule="evenodd" fill="#FBB14E" points="519.085,224.452 457.479,265.233 453.545,216.438 	"/>
	<polygon class="workgon"fill-rule="evenodd" clip-rule="evenodd" fill="#B11F29" points="255.13,39.817 249.482,101.096 187.997,69.008 	"/>
	<polygon class="workgon"fill-rule="evenodd" clip-rule="evenodd" fill="#F68D40" points="249.482,101.096 169.128,116.858 187.997,69.008 	"/>
	<polygon class="workgon"fill-rule="evenodd" clip-rule="evenodd" fill="#B11F29" points="169.128,116.858 157.298,170.092 126.421,131.646 	"/>
	<polygon class="workgon"fill-rule="evenodd" clip-rule="evenodd" fill="#F68D40" points="174.54,210.018 99.452,192.303 157.298,170.092 	"/>
	<polygon class="workgon"fill-rule="evenodd" clip-rule="evenodd" fill="#E21F26" points="174.54,210.018 163.835,269.051 92.915,263.227 	"/>
	
		<line fill-rule="evenodd" clip-rule="evenodd" fill="none" stroke="#000000" stroke-miterlimit="10" x1="165.194" y1="269.17" x2="163.568" y2="270.501"/>
	<polygon class="workgon"fill-rule="evenodd" clip-rule="evenodd" fill="#FBB14E" points="214.969,253.671 173.564,368.244 163.862,273.28 
		164.899,270.055 	"/>
	<polygon class="workgon"fill-rule="evenodd" clip-rule="evenodd" fill="#F68D40" points="173.564,368.244 131.805,371.854 163.862,273.28 	"/>
	<polygon class="workgon"fill-rule="evenodd" clip-rule="evenodd" fill="#FBB14E" points="271.661,280.498 247.411,374.809 245.52,374.159 
		214.969,253.671 	"/>
	<polygon class="workgon"fill-rule="evenodd" clip-rule="evenodd" fill="#FED978" points="407.203,379.099 384.52,453.772 338.205,406.691 	"/>
	<polygon class="workgon"fill-rule="evenodd" clip-rule="evenodd" fill="#E21F26" points="338.205,406.691 271.159,487.044 271.159,432.807 	"/>
	<polygon class="workgon"fill-rule="evenodd" clip-rule="evenodd" fill="#FBB14E" points="384.52,453.772 338.679,484.294 338.205,406.691 	"/>
	<polygon class="workgon"fill-rule="evenodd" clip-rule="evenodd" fill="#F05232" points="338.679,484.294 271.159,487.044 338.205,406.691 	"/>
	<polygon class="workgon"fill-rule="evenodd" clip-rule="evenodd" fill="#FED978" points="245.52,374.159 166.525,428.898 173.564,368.244 	"/>
	<polygon class="workgon"fill-rule="evenodd" clip-rule="evenodd" fill="#FBB14E" points="271.159,432.807 271.159,487.044 192.493,484.294 	"/>
	<polygon class="workgon"fill-rule="evenodd" clip-rule="evenodd" fill="#F05232" points="441.716,325.865 407.203,379.099 348.794,310.958 	"/>
	<polygon class="workgon"fill-rule="evenodd" clip-rule="evenodd" fill="#F05232" points="348.794,310.958 338.205,406.691 249.305,375.491 	"/>
	<polygon class="workgon"fill-rule="evenodd" clip-rule="evenodd" fill="#FED978" points="338.205,406.691 271.159,432.807 246.819,377.086 
		249.305,375.491 	"/>
	<polygon class="workgon"fill-rule="evenodd" clip-rule="evenodd" fill="#F68D40" points="375.646,187.337 251.936,154.33 337.701,111.921 	"/>
	<polygon class="workgon"fill-rule="evenodd" clip-rule="evenodd" fill="#E21F26" points="375.646,187.337 360.385,231.698 267.699,206.561 	"/>
	<polygon class="workgon"fill-rule="evenodd" clip-rule="evenodd" fill="#E21F26" points="453.545,216.438 375.646,187.337 435.299,161.222 	"/>
	<polygon class="workgon"fill-rule="evenodd" clip-rule="evenodd" fill="#FED978" points="457.479,265.233 348.794,310.958 360.385,231.698 	"/>
	<polygon class="workgon"fill-rule="evenodd" clip-rule="evenodd" fill="#F05232" points="457.479,265.233 360.385,231.698 453.545,216.438 	"/>
	<polygon class="workgon"fill-rule="evenodd" clip-rule="evenodd" fill="#E21F26" points="251.936,154.33 174.54,210.018 157.298,170.092 	"/>
	<polygon class="workgon"fill-rule="evenodd" clip-rule="evenodd" fill="#F68D40" points="164.899,270.055 165.194,269.17 163.835,269.051 
		174.54,210.018 214.969,253.671 	"/>
	<polygon class="workgon"fill-rule="evenodd" clip-rule="evenodd" fill="#E21F26" points="245.52,374.159 173.564,368.244 214.969,253.671 	"/>
	<polygon class="workgon"fill-rule="evenodd" clip-rule="evenodd" fill="#FBB14E" points="271.159,432.807 166.525,428.898 245.52,374.159 
		246.819,377.086 	"/>
	
		<line fill-rule="evenodd" clip-rule="evenodd" fill="none" stroke="#000000" stroke-miterlimit="10" x1="164.899" y1="270.055" x2="163.568" y2="270.501"/>
	<polygon class="workgon"fill-rule="evenodd" clip-rule="evenodd" fill="#E21F26" points="249.482,101.096 157.298,170.092 169.128,116.858 	"/>
	<polygon class="workgon"fill-rule="evenodd" clip-rule="evenodd" fill="#F68D40" points="251.936,154.33 157.298,170.092 249.482,101.096 	"/>
	<polygon class="workgon"fill-rule="evenodd" clip-rule="evenodd" fill="#B11F29" points="267.699,206.561 214.969,253.671 251.936,154.33 	"/>
	<polygon class="workgon"fill-rule="evenodd" clip-rule="evenodd" fill="#F05232" points="251.936,154.33 214.969,253.671 174.54,210.018 	"/>
	<polygon class="workgon"fill-rule="evenodd" clip-rule="evenodd" fill="#F05232" points="435.299,161.222 375.646,187.337 405.724,106.508 	"/>
	<polygon class="workgon"fill-rule="evenodd" clip-rule="evenodd" fill="#F05232" points="375.646,187.337 267.699,206.561 251.936,154.33 	"/>
	<polygon class="workgon"fill-rule="evenodd" clip-rule="evenodd" fill="#B11F29" points="360.385,231.698 271.661,280.498 267.699,206.561 	"/>
	<polygon class="workgon"fill-rule="evenodd" clip-rule="evenodd" fill="#F68D40" points="453.545,216.438 360.385,231.698 375.646,187.337 	"/>
	<polygon class="workgon"fill-rule="evenodd" clip-rule="evenodd" fill="#FBB14E" points="360.385,231.698 348.794,310.958 271.661,280.498 	"/>
	<polygon class="workgon"fill-rule="evenodd" clip-rule="evenodd" fill="#F68D40" points="271.661,280.498 214.969,253.671 267.699,206.561 	"/>
	<polygon class="workgon"fill-rule="evenodd" clip-rule="evenodd" fill="#FED978" points="348.794,310.958 249.305,375.491 247.411,374.809 
		271.661,280.498 	"/>
	
		<line fill-rule="evenodd" clip-rule="evenodd" fill="none" stroke="#000000" stroke-miterlimit="10" x1="247.411" y1="374.809" x2="246.819" y2="377.086"/>
	<polygon class="workgon"fill-rule="evenodd" clip-rule="evenodd" fill="#FBB14E" points="407.203,379.099 338.205,406.691 348.794,310.958 	"/>
	<polygon class="workgon"fill-rule="evenodd" clip-rule="evenodd" fill="#FBB14E" points="457.479,265.233 441.716,325.865 348.794,310.958 	"/>
	<polygon class="workgon"fill-rule="evenodd" clip-rule="evenodd" fill="#FBB14E" points="256.728,587.836 201.513,576.772 214.614,564.944 	"/>
	<polygon class="workgon"fill-rule="evenodd" clip-rule="evenodd" fill="#F05232" points="292.424,564.589 256.728,587.836 214.614,564.944 	"/>
	<polygon class="workgon"fill-rule="evenodd" clip-rule="evenodd" fill="#FBB14E" points="307.213,606.97 214.614,607.265 256.728,587.836 	"/>
	<polygon class="workgon"fill-rule="evenodd" clip-rule="evenodd" fill="#FED978" points="341.371,564.352 307.213,606.97 292.424,564.589 	"/>
	<polygon class="workgon"fill-rule="evenodd" clip-rule="evenodd" fill="#FBB14E" points="398.479,606.674 307.213,606.97 341.371,564.352 
		341.931,564.352 	"/>
	<polygon class="workgon"fill-rule="evenodd" clip-rule="evenodd" fill="#FED978" points="411.433,579.111 411.017,594.727 398.479,606.674 	"/>
	<polygon class="workgon"fill-rule="evenodd" clip-rule="evenodd" fill="#F68D40" points="411.433,579.111 342.821,564.352 398.329,564.089 	"/>
	<polygon class="workgon"fill-rule="evenodd" clip-rule="evenodd" fill="#FBB14E" points="223.102,660.413 214.614,674.161 201.04,660.709 	"/>
	<polygon class="workgon"fill-rule="evenodd" clip-rule="evenodd" fill="#F05232" points="259.33,674.017 214.614,674.161 223.102,660.413 	"/>
	<polygon class="workgon"fill-rule="evenodd" clip-rule="evenodd" fill="#FED978" points="254.364,652.575 201.513,643.644 214.614,631.841 	"/>
	<polygon class="workgon"fill-rule="evenodd" clip-rule="evenodd" fill="#E21F26" points="285.208,631.518 254.364,652.575 214.614,631.841 	"/>
	<polygon class="workgon"fill-rule="evenodd" clip-rule="evenodd" fill="#F68D40" points="336.962,631.28 303.456,673.866 285.208,631.518 	"/>
	<polygon class="workgon"fill-rule="evenodd" clip-rule="evenodd" fill="#E21F26" points="345.716,673.746 303.456,673.866 336.962,631.28 
		337.258,631.28 	"/>
	<polygon class="workgon"fill-rule="evenodd" clip-rule="evenodd" fill="#FBB14E" points="377.804,631.075 346.044,673.746 345.716,673.746 
		337.258,631.28 	"/>
	<polygon class="workgon"fill-rule="evenodd" clip-rule="evenodd" fill="#F05232" points="398.479,673.574 346.044,673.746 377.804,631.075 
		377.895,631.075 	"/>
	<polygon class="workgon"fill-rule="evenodd" clip-rule="evenodd" fill="#E21F26" points="411.433,646.008 411.017,661.594 398.479,673.574 	"/>
	<polygon class="workgon"fill-rule="evenodd" clip-rule="evenodd" fill="#E21F26" points="411.433,646.008 378.073,631.075 398.329,630.985 	"/>
	<polygon class="workgon"fill-rule="evenodd" clip-rule="evenodd" fill="#F05232" points="288.729,699.123 249.363,729.113 239.367,699.48 	"/>
	<polygon class="workgon"fill-rule="evenodd" clip-rule="evenodd" fill="#B11F29" points="289.289,699.123 271.159,747.745 249.363,729.113 
		288.729,699.123 	"/>
	<polygon class="workgon"fill-rule="evenodd" clip-rule="evenodd" fill="#E21F26" points="330.603,698.799 301.59,722.279 301.385,722.459 
		289.819,699.094 	"/>
	<polygon class="workgon"fill-rule="evenodd" clip-rule="evenodd" fill="#FED978" points="301.565,722.842 301.565,722.87 300.735,756.055 
		271.159,747.745 301.385,722.459 	"/>
	<polygon class="workgon"fill-rule="evenodd" clip-rule="evenodd" fill="#FBB14E" points="334.951,750.375 300.735,756.055 301.565,722.87 
		301.59,722.903 	"/>
	<polygon class="workgon"fill-rule="evenodd" clip-rule="evenodd" fill="#FED978" points="362.633,729.973 334.951,750.375 331.964,698.799 
		332.883,698.799 	"/>
	<polygon class="workgon"fill-rule="evenodd" clip-rule="evenodd" fill="#FBB14E" points="372.511,698.501 362.633,729.973 332.883,698.799 	"/>
	<polygon class="workgon"fill-rule="evenodd" clip-rule="evenodd" fill="#E21F26" points="307.213,606.97 256.728,587.836 292.424,564.589 	"/>
	<polygon class="workgon"fill-rule="evenodd" clip-rule="evenodd" fill="#E21F26" points="411.433,579.111 398.479,606.674 341.931,564.352 
		342.821,564.352 	"/>
	<polygon class="workgon"fill-rule="evenodd" clip-rule="evenodd" fill="#FBB14E" points="214.614,607.265 201.04,593.809 201.513,576.772 	"/>
	<polygon class="workgon"fill-rule="evenodd" clip-rule="evenodd" fill="#B11F29" points="256.728,587.836 214.614,607.265 201.513,576.772 	"/>
	<polygon class="workgon"fill-rule="evenodd" clip-rule="evenodd" fill="#FBB14E" points="303.456,673.866 254.364,652.575 285.208,631.518 	"/>
	<polygon class="workgon"fill-rule="evenodd" clip-rule="evenodd" fill="#FBB14E" points="411.433,646.008 398.479,673.574 377.895,631.075 
		378.073,631.075 	"/>
	<polygon class="workgon"fill-rule="evenodd" clip-rule="evenodd" fill="#B11F29" points="223.102,660.413 201.04,660.709 201.513,643.644 	"/>
	<polygon class="workgon"fill-rule="evenodd" clip-rule="evenodd" fill="#F68D40" points="261.282,674.017 259.33,674.017 223.102,660.413 
		254.364,652.575 	"/>
	<polygon class="workgon"fill-rule="evenodd" clip-rule="evenodd" fill="#F05232" points="254.364,652.575 223.102,660.413 201.513,643.644 	"/>
	<polygon class="workgon"fill-rule="evenodd" clip-rule="evenodd" fill="#FED978" points="303.456,673.866 261.282,674.017 254.364,652.575 	"/>
	<polygon class="workgon"fill-rule="evenodd" clip-rule="evenodd" fill="#FBB14E" points="301.385,722.459 271.159,747.745 289.289,699.123 
		289.819,699.094 	"/>
	<polygon class="workgon"fill-rule="evenodd" clip-rule="evenodd" fill="#F05232" points="334.951,750.375 301.59,722.903 301.565,722.87 
		301.565,722.842 301.59,722.279 330.603,698.799 331.964,698.799 	"/>
</g>
</svg>
