<?xml version="1.0" encoding="utf-8"?>
<!-- Generator: Adobe Illustrator 16.0.0, SVG Export Plug-In . SVG Version: 6.00 Build 0)  -->
<!DOCTYPE svg PUBLIC "-//W3C//DTD SVG 1.1//EN" "http://www.w3.org/Graphics/SVG/1.1/DTD/svg11.dtd">
<svg version="1.1" id="Layer_1" xmlns="http://www.w3.org/2000/svg" xmlns:xlink="http://www.w3.org/1999/xlink" x="0px" y="0px"
	 width="3403px" height="446.825px" viewBox="0 0 3403 446.825" enable-background="new 0 0 3403 446.825" xml:space="preserve">
<g>
	<g>
		<path fill="#010101" d="M2260.631,202.129c-0.613-3.27-2.398-5.92-5.26-7.965c-2.855-2.043-5.922-2.756-9.186-2.145
			c-3.268,0.613-5.924,2.349-7.912,5.155c0,0.259-0.156,0.563-0.359,0.972l-0.256,0.256v0.662c-0.457,0.408-0.766,0.817-0.971,1.227
			c-0.404,1.022-0.967,1.939-1.682,2.758c-0.717,0.816-1.479,2.043-2.246,3.673c-0.818,1.432-1.785,2.911-2.758,4.442
			c-1.072,1.48-2.297,3.215-3.729,5.054c-1.172,1.786-2.652,3.78-4.287,5.819c-1.631,2.039-3.469,4.236-5.514,6.738
			c-1.785,2.039-3.828,4.289-5.973,6.686c-2.145,2.504-4.646,4.955-7.502,7.403c-5.105,5.104-10.924,10.209-17.459,15.315
			c-6.74,5.104-13.988,10.104-21.695,15.01c-4.133,2.244-8.369,4.542-12.762,7.038c-4.393,2.403-8.934,4.702-13.58,6.69
			c-4.9,2.094-9.801,4.088-14.701,5.973c-4.9,1.994-10.16,3.829-15.674,5.719c-5.309,1.634-10.768,3.164-16.387,4.695
			c-5.611,1.581-11.281,2.962-16.998,4.188c-5.918,1.381-11.945,2.602-18.072,3.674c-6.072,1.023-12.354,1.89-18.629,2.756
			c-12.508,1.582-25.369,2.758-38.645,3.372c-13.271,0.611-26.697,0.866-40.227,0.761c-13.629-0.149-27.363-0.713-41.246-1.685
			c-27.568-2.038-55.541-5.458-83.922-10.104c-14.092-2.448-28.076-5.106-41.965-7.962c-4.492-1.021-9.082-2.045-13.783-3.115
			h-0.559c-3.32,6.38-6.691,12.459-10.16,18.43c1.275-10.618,1.734-20.115,1.531-28.485c0-12.458-7.299-28.845-22-49.059
			l-4.344-5.769l-3.928-5.514c-3.115-4.082-5.463-7.557-7.043-10.414c-4.752-7.354-7.1-13.58-7.1-18.734
			c0-8.115,7.1-12.197,21.188-12.197h1.785c2.91,0,4.391-1.586,4.596-4.598v-0.309c0-3.11-1.48-4.593-4.596-4.593h-2.758
			c-12.043,0-21.949,1.94-29.656,5.769c-11.076,5.514-16.59,14.651-16.59,27.309c0,2.354,0.203,4.752,0.662,7.149
			c0,0.051,0,0.051,0,0.051c-3.369,23.739-7.404,42.573-11.994,56.51c-3.68,11.437-7.559,17.149-11.641,17.149
			c-3.471,0-6.432-4.592-8.883-13.777c-3.471-12.051-6.229-27.619-8.271-46.557c-1.426-15.52-0.713-34.305,2.145-56.358v-4.033
			c3.064-4.646,5.922-9.851,8.578-15.569c8.576-16.54,14.393-33.281,17.459-50.23c0.818-3.27,1.432-6.431,1.84-9.496
			c0.199-2.857,0.305-5.617,0.305-8.32V81.14c-0.205-8.624-2.453-14.392-6.742-17.458c-1.834-1.426-3.977-2.143-6.43-2.143
			c-15.928,0-28.076,19.811-36.447,59.422c-2.861,14.498-5.104,30.53-6.738,48.088c-0.818,6.94-1.432,13.784-1.84,20.471
			c-0.205,5.772-0.41,10.158-0.613,13.168v16.746c-3.471,19.447-8.471,36.807-15.006,52.071
			c-7.912,18.683-13.072,27.971-15.314,27.971c-3.828,0-6.076-6.485-6.586-19.603c-0.508-13.016-1.072-26.694-1.686-41.042
			c0-6.072,0.205-13.425,0.613-22.004v-1.834l0.359-2.145c0-1.89,0.1-3.47,0.305-4.899v-2.504c0-2.806-0.205-4.746-0.664-5.768
			c-0.816-3.271-4.186-5.613-10.055-7.045c-2.453-0.408-4.801-0.613-7.043-0.613c-2.658,0-4.955,0.51-6.74,1.482
			c-11.027-11.184-22.613-16.796-34.611-16.796h-0.305c-12.713,0-22.359,5.769-29.1,17.409c-5.514,9.541-8.27,21.236-8.27,35.12
			c0,0.972,0,1.94,0.049,2.856c0,0.049,0,0.104,0,0.104c-2.961,17.764-6.021,32.928-9.236,45.536
			c-5.309,21.286-9.957,31.905-13.785,31.905c-3.266,0-5.309-6.79-6.127-20.217c-0.254-4.49-0.457-11.334-0.613-20.574
			c2.658-41.81,3.779-69.578,3.371-83.257c-0.459-18.583-5-29.202-13.783-31.854c-4.135-1.275-8.73,0.613-13.781,5.514
			c-1.838,2.043-3.982,4.491-6.436,7.297c-0.611,0.869-1.324,2.094-2.143,3.73c-0.818,0.818-1.686,1.783-2.447,3.062
			c-7.15,11.026-13.172,26.49-18.072,46.352c-4.9,19.96-8.27,33.281-10.109,39.972l-0.918-8.885
			c-1.84-15.314-4.082-27.309-6.738-36.092c-0.818-2.244-1.531-4.338-2.145-6.121c-1.072-2.503-2.145-4.597-3.369-6.434
			c-3.063-4.695-6.637-7.096-10.719-7.096c-2.658,0-5.514,1.07-8.574,3.113c-2.453,1.63-4.598,3.774-6.438,6.431
			c-0.459,0.614-0.611,1.432-0.611,2.448c0,0.564,0.152,1.332,0.611,2.145c0.664,1.275,1.332,2.762,1.939,4.392
			c-0.402,2.148-0.867,4.292-1.375,6.331c-1.432,5.514-3.166,10.414-5.154,14.703c-5.359,11.434-12.408,17.151-21.137,17.151
			c-1.836,0-3.57-0.104-5.205-0.358c1.021-5.514,1.529-11.076,1.529-16.793c0-4.494-0.305-9.084-0.916-13.836
			c-0.818-5.868-1.939-12.811-3.371-20.827c-3.877-20.365-9.75-32.519-17.713-36.397l-0.309-0.309
			c-0.205-1.223-0.508-2.344-0.916-3.365c-2.045-6.127-5.359-10.822-10.057-14.094c-4.086-2.65-8.523-3.977-13.424-3.977
			c-11.592,0-20.68,9.595-27.16,28.737c-5.055,14.907-7.861,31.089-8.375,48.651c-2.855,7.298-7.299,16.027-13.32,26.133
			c-3.469,6.076-7.656,12.867-12.557,20.219c-1.84,2.653-3.879,5.613-6.129,8.828l-1.225,2.145l-1.529,1.89
			c-1.023,1.636-1.842,2.86-2.449,3.624l-7.658,11.691c-1.43-1.022-2.961-1.939-4.596-2.758c-2.656-1.275-5.514-1.889-8.574-1.889
			c-3.271,0-6.23,0.768-8.883,2.192c1.225-11.634,6.635-29.601,16.23-53.904l5.822-14.702l0.918-2.143l0.918-2.758
			c0.816-2.038,1.529-4.033,2.143-5.816c1.637-4.498,2.453-8.066,2.453-10.774v-0.611c0-0.36-0.105-0.868-0.309-1.481
			c-0.41-1.43-1.426-2.348-3.061-2.756c-0.818-0.205-1.635-0.311-2.453-0.311h-2.143l-3.676,0.617l-3.674,0.918
			c-8.783,1.428-15.928,2.349-21.441,2.758c-2.043,0.205-4.082,0.255-6.127,0.255c-2.652,0-5-0.149-7.043-0.613
			c-5.719-0.563-9.803-2.145-12.254-4.542c-1.631-2.045-4.033-1.48-7.193,1.686c-3.166,3.16-0.465,6.48,8.115,9.949
			c5.105,2.045,11.332,3.065,18.684,3.065c2.039,0,4.184-0.104,6.432-0.304c2.652-0.209,5.311-0.408,7.961-0.617l-3.369,7.303
			c-5.105,10.056-9.951,23.381-14.547,40.021c-4.596,16.646-7.094,26.696-7.504,30.171c-0.408,2.248-0.613,4.393-0.613,6.381
			c0,6.178,1.531,10.464,4.594,12.916c2.043,1.172,4.291,1.786,6.738,1.786c1.021,0,2.145-0.099,3.371-0.255
			c2.855-0.465,6.127-1.74,9.801-3.983l0.309-0.31c2.652-2.855,5.816-4.287,9.492-4.287c2.861,0,5.514,0.818,7.965,2.453
			c-9.396,13.835-16.645,25.523-21.75,34.867c-1.426,2.502-2.553,4.646-3.365,6.43c-1.43,2.912-2.656,5.514-3.678,8.017
			c-2.447,6.28-3.676,11.794-3.676,16.54c0,6.482,2.654,11.487,7.963,14.955c3.678,2.045,7.557,3.112,11.641,3.112
			c2.043,0,4.287-0.354,6.738-0.968c7.35-1.634,13.377-5.922,18.072-12.811c5.309-8.016,7.961-18.535,7.961-31.547
			c0-17.357-2.652-30.324-7.961-38.904l9.188-13.525c0.613-0.764,1.531-2.145,2.756-3.932l1.531-2.195l1.227-2.143
			c2.447-3.42,4.592-6.586,6.432-9.443c5.104-7.762,9.496-14.706,13.17-20.827c1.736-2.911,3.32-5.772,4.746-8.476
			c1.381,12.813,4.646,24.299,9.906,34.458c7.912,15.315,17.967,22.972,30.219,22.972c9.957,0,18.277-3.729,25.016-11.281
			c5.867-6.331,10.26-14.906,13.117-25.729c2.453,0.409,4.752,0.613,7.045,0.613l3.064-0.357
			c10.563-1.173,19.039-7.914,25.42-20.217c1.43-2.703,2.756-5.612,3.883-8.834c1.123,5.874,2.039,12.613,2.857,20.22
			c1.021,7.962,1.684,16.485,2.143,25.726c0.41,2.656,0.613,5.104,0.613,7.301c0,1.073,1.277,1.892,3.984,2.498
			c2.193,0.619,4.898,0.922,7.961,0.922h0.611c3.676,0,6.791-0.406,9.498-1.275c3.266-0.764,5.514-1.988,6.736-3.625V283.6
			c0.152-0.201,0.357-0.511,0.611-0.969c2.25-7.91,5.514-19.756,9.957-35.529c4.391-15.674,9.342-31.088,14.854-46.197
			c5.516-13.072,8.322-19.602,8.576-19.602c0.613,0.408,1.072,1.934,1.531,4.541c0.152,0.867,0.309,1.889,0.309,3.117v2.142
			c0,5.714-0.613,13.067-1.84,22.001c-0.613,37.418-0.818,57.733-0.613,61.004c0.613,8.37,1.686,15.518,3.369,21.436
			c4.646,16.081,13.988,24.148,27.873,24.148c6.943,0,13.016-5.105,18.381-15.316c1.834-3.672,3.469-7.805,4.9-12.557
			c0.607-1.784,1.121-3.623,1.529-5.457c0.205-0.62,0.41-1.432,0.613-2.455l0.305-0.916l0.309-0.973
			c1.68-6.127,3.266-12.967,4.846-20.469c0.359,1.172,0.768,2.35,1.227,3.42c5.922,13.629,15.469,20.418,28.486,20.418
			c6.176,0,12.148-2.094,18.07-6.38c4.695-3.267,8.779-6.226,12.303-8.933c3.674,24.961,8.016,41.706,13.172,50.23
			c5.254,9.236,10.414,13.523,15.314,12.916c9.342,1.783,19.242-12.1,29.656-41.656c4.85-13.785,9.242-27.209,13.172-40.279
			c1.225,9.143,2.859,17.053,4.898,23.688c6.127,20.878,16.641,31.293,31.547,31.293c7.148,0,13.48-3.47,18.994-10.415
			c4.287-5.31,7.961-12.453,11.027-21.492c3.471-10.666,6.635-23.838,9.492-39.508c3.215,5.207,7.762,11.382,13.529,18.426
			l8.523,9.803c3.063,3.624,5.41,6.84,7.045,9.492c4.695,6.949,6.943,16.439,6.791,28.484c-0.256,11.999-3.117,22.004-8.631,30.02
			l-3.314,4.289c-1.072,1.586-1.994,3.011-2.758,4.286c-3.523,4.696-5.412,9.492-5.717,14.497c-0.305,5.055,0.203,8.27,1.529,9.852
			c1.326,1.535,2.809,2.605,4.441,3.219c18.58,3.216,36.857-16.08,54.877-57.887c1.785,0.354,3.729,0.762,5.768,1.17
			c13.885,2.857,27.979,5.41,42.32,7.658c14.242,2.299,28.385,4.287,42.369,6.178c13.988,1.834,28.131,3.369,42.473,4.597
			c27.922,1.988,55.59,2.649,82.953,1.784c13.475-0.41,26.646-1.326,39.563-2.758c6.482-0.611,12.918-1.43,19.244-2.398
			c6.33-1.07,12.563-2.144,18.684-3.369c6.332-1.072,12.457-2.348,18.227-3.828c5.816-1.531,11.586-3.063,17.305-4.443
			c5.717-1.889,11.23-3.672,16.539-5.562c5.311-1.79,10.52-3.726,15.674-5.769c5.055-2.043,10.006-4.188,14.801-6.431
			c4.801-2.247,9.447-4.597,13.939-7.099c4.285-2.398,8.475-4.9,12.557-7.502c4.082-2.503,7.961-5.107,11.691-7.813
			c7.705-5.056,14.447-10.26,20.215-15.414c5.668-5.261,10.771-10.26,15.314-15.215c4.645-4.438,8.574-8.729,11.738-12.663
			c3.166-3.979,5.768-7.398,7.863-10.31c2.193-3.012,3.828-5.255,4.85-6.684c0-0.614,0.305-1.228,0.918-1.842l0.357-0.307
			C2260.477,208.457,2261.244,205.396,2260.631,202.129z M1663.93,102.891c0-1.021,0.1-1.94,0.305-2.756
			c0.205-1.278,0.508-2.503,0.918-3.68c0.613-2.652,1.127-5.254,1.535-7.658c2.242-5.916,4.592-9.492,7.043-10.768h0.305
			c0.203,0.867,0.309,2.145,0.309,4.033c0,2.248-0.105,4.801-0.309,7.656c-0.203,2.041-0.508,4.184-0.918,6.383
			c-0.408,1.684-0.717,3.115-0.916,4.285c-2.658,11.691-6.641,23.537-11.949,35.529
			C1660.865,123.105,1662.09,112.078,1663.93,102.891z M1211.287,337.762c0,10.414-1.74,19.039-5.211,25.73
			c-3.061,5.513-6.943,9.34-11.641,11.385c-2.039,0.764-3.977,1.172-5.816,1.172c-2.045,0-3.984-0.459-5.818-1.53
			c-3.475-1.636-5.211-4.188-5.211-7.657v-0.256c0.205-3.673,1.637-8.474,4.289-14.396c0.818-2.094,1.84-4.286,3.066-6.789
			l1.529-2.398c0.205-0.816,0.613-1.535,1.227-2.143c4.695-8.834,11.127-19.244,19.293-31.242
			c2.861,6.895,4.293,15.108,4.293,24.502V337.762z M1319.096,265.223c-1.223,2.863-2.447,5.414-3.723,7.657
			c-3.217,5.923-7.15,8.885-11.592,8.885c-7.961,0-14.188-5.823-18.68-17.46c-3.475-10.004-5.209-22.563-5.209-37.678
			c0-14.495,1.326-28.889,4.033-43.18c3.215-15.725,7.197-23.586,11.895-23.586c0.613,0,1.375,0.509,2.453,1.531
			c0.967,0.816,1.68,1.634,2.143,2.452c-4.547,2.448-8.121,7.552-10.773,15.313c-2.396,7.146-3.623,15.21-3.623,24.144
			c0,13.116,3.215,24.502,9.801,34.353c6.738,9.803,15.158,16.646,25.424,20.525
			C1320.631,260.836,1319.863,263.179,1319.096,265.223z M1323.029,248.633c-7.912-3.42-14.602-9.188-19.855-17.1
			c-5.16-8.016-7.658-17.358-7.658-28.231c0-6.485,0.762-12.099,2.447-16.796c2.248-5.718,5.211-8.572,8.885-8.572
			c0.762,0,1.529,0.197,2.143,0.607c2.447,1.026,4.697,4.088,6.74,9.191c1.375,3.676,2.758,8.166,3.979,13.425
			c2.861,10.874,4.287,22.001,4.287,33.438C1323.996,239.291,1323.691,243.986,1323.029,248.633z M1558.006,226.273
			c-0.465,5.973-1.176,13.631-2.145,22.971l-0.309,1.277l-0.664,0.867c-0.203,1.275-0.457,2.145-0.867,2.758
			c-0.611,2.299-1.381,4.137-2.143,5.514c-2.504,4.545-5.465,6.789-8.885,6.789c-4.492,0-8.523-3.471-11.943-10.414
			c-1.48-2.502-2.707-5.26-3.674-8.271c-0.867-2.451-1.432-4.645-1.84-6.43c-0.205-5.105-0.305-10.309-0.305-15.674
			c0-2.398,0.15-5.358,0.559-8.833c0.613-4.337,1.43-8.166,2.502-11.636c2.807-9.596,6.74-14.447,11.641-14.447
			c4.082,0,8.012,1.48,11.945,4.289c2.602,2.093,5.662,5.053,9.188,8.933C1559.584,211.314,1558.619,218.771,1558.006,226.273z"/>
	</g>
</g>
</svg>
